<svg xmlns="http://www.w3.org/2000/svg" xmlns:xlink="http://www.w3.org/1999/xlink" x="0" y="0" width="662" height="475" style="
        width:662px;
        height:475px;
        background: transparent;
        fill: none;
">
        
        
        <svg xmlns="http://www.w3.org/2000/svg" class="role-diagram-draw-area"><g class="shapes-region" style="stroke: black; fill: none;"><g class="composite-shape"><path class="real" d=" M55,97 L517.91,97 L517.91,361.52 L55,361.52 Z" style="stroke-width: 1; stroke: rgb(0, 0, 0); fill: none; fill-opacity: 1;"/></g><g class="composite-shape"><path class="real" d=" M164.33,133.56 C163.15,128.03 167.02,122.57 174.31,119.47 C181.59,116.38 191,116.21 198.55,119.02 C201.23,115.81 206.13,113.59 211.76,113.04 C217.4,112.49 223.11,113.67 227.18,116.22 C229.45,113.31 233.93,111.35 239.01,111.04 C244.09,110.74 249.06,112.12 252.16,114.71 C256.28,111.62 262.83,110.32 268.98,111.37 C275.12,112.42 279.77,115.63 280.9,119.62 C285.94,120.5 290.14,122.72 292.42,125.73 C294.69,128.73 294.81,132.22 292.75,135.29 C297.72,139.41 298.88,144.9 295.8,149.71 C292.73,154.52 285.87,157.93 277.8,158.66 C277.74,163.18 273.86,167.32 267.64,169.49 C261.43,171.67 253.85,171.53 247.83,169.14 C245.27,174.55 238.06,178.53 229.31,179.36 C220.57,180.19 211.85,177.73 206.94,173.03 C200.91,175.34 193.69,176.01 186.88,174.88 C180.08,173.75 174.28,170.91 170.78,167.01 C164.63,167.47 158.67,165.44 155.88,161.92 C153.09,158.41 154.05,154.16 158.28,151.28 C152.79,149.22 149.99,145.14 151.34,141.15 C152.68,137.17 157.88,134.19 164.21,133.77" style="stroke-width: 1; stroke: rgb(0, 0, 0); fill: none; fill-opacity: 1;"/><path class="real" d=" M158.28,151.28 C160.87,152.26 163.87,152.7 166.86,152.55 M170.78,167.01 C172.07,166.92 173.33,166.71 174.54,166.41 M206.94,173.03 C206.03,172.16 205.27,171.24 204.68,170.27 M247.83,169.14 C248.3,168.16 248.61,167.14 248.74,166.11 M277.8,158.66 C277.86,153.86 273.58,149.45 266.79,147.35 M292.75,135.29 C291.65,136.92 289.97,138.38 287.85,139.53 M280.9,119.62 C281.08,120.28 281.17,120.95 281.15,121.62 M252.16,114.71 C251.13,115.48 250.29,116.34 249.65,117.27 M227.18,116.22 C226.63,116.92 226.22,117.66 225.96,118.42 M198.55,119.02 C200.15,119.62 201.63,120.34 202.96,121.16 M164.33,133.56 C164.49,134.32 164.75,135.07 165.1,135.81" style="stroke-width: 1; stroke: rgb(0, 0, 0); fill: none; fill-opacity: 1;"/></g><g class="composite-shape"><path class="real" d=" M68,237.76 C68,183.22 83.67,139 103,139 C122.33,139 138,183.22 138,237.76 C138,292.3 122.33,336.52 103,336.52 C83.67,336.52 68,292.3 68,237.76 Z" style="stroke-width: 1; stroke: rgb(0, 0, 0); fill: none; fill-opacity: 1;"/></g><g class="composite-shape"><path class="real" d=" M213.75,182.51 L214.71,202.72 L182.43,204.24 L184.77,253.96 L149.69,255.61 L146.39,185.69 Z" style="stroke-width: 1; stroke: rgb(0, 0, 0); fill: none; fill-opacity: 1;"/></g><g class="shape"><path class="real" d=" M210,212 C230,202 278.5,163.52 311.5,178.52 C344.5,193.52 340,266.04 307.5,286.52 C275,307 230,302 210,272 C190,242 190,222 210,212 Z" style="stroke: rgb(0, 0, 0); stroke-width: 1; fill: none; fill-opacity: 1;"/></g><g class="shape"><path class="real" d=" M166,330 C186,320 247.5,298.52 280.5,313.52 C313.5,328.52 365,361.04 332.5,381.52 C300,402 186,420 166,390 C146,360 146,340 166,330 Z" style="stroke: rgb(0, 0, 0); stroke-width: 1; fill: none; fill-opacity: 1;"/></g><g class="composite-shape"><path class="real" d=" M141,290.26 C141,275.2 156.67,263 176,263 C195.33,263 211,275.2 211,290.26 C211,305.32 195.33,317.52 176,317.52 C156.67,317.52 141,305.32 141,290.26 Z" style="stroke-width: 1; stroke: rgb(0, 0, 0); fill: none; fill-opacity: 1;"/></g><g class="composite-shape"><path class="real" d=" M352.5,220.76 C352.5,162.9 385.85,116 427,116 C468.15,116 501.5,162.9 501.5,220.76 C501.5,278.62 468.15,325.52 427,325.52 C385.85,325.52 352.5,278.62 352.5,220.76 Z" style="stroke-width: 1; stroke: rgb(0, 0, 0); fill: none; fill-opacity: 1;"/></g><g class="shape"><path class="real" d=" M81,120 C110.5,109.52 413.5,91.52 474.5,110.52 C535.5,129.52 509,329.04 476.5,349.52 C444,370 386.5,346.52 348.5,322.52 C310.5,298.52 269.71,300.75 250.5,302.52 C231.29,304.29 166.5,326.52 147.5,322.52 C128.5,318.52 140,282.46 140.5,257.52 C141,232.58 88.5,264.52 74.5,236.52 C60.5,208.52 51.5,130.48 81,120 Z" style="stroke: rgb(208, 2, 27); stroke-width: 1; fill: none; fill-opacity: 1; stroke-opacity: 1;"/></g><g/></g><g/><g><g><ellipse cx="242" cy="141.5" rx="24.041630560342615" ry="14.849242404917497" style="stroke: rgb(0, 0, 0); stroke-width: 1; fill: none; fill-opacity: 1;"/></g><g><ellipse cx="99.5" cy="220.5" rx="21.920310216782973" ry="14.849242404917497" style="stroke: rgb(0, 0, 0); stroke-width: 1; fill: none; fill-opacity: 1;"/></g><g><ellipse cx="102.5" cy="273.5" rx="16.263455967290593" ry="14.849242404917497" style="stroke: rgb(0, 0, 0); stroke-width: 1; fill: none; fill-opacity: 1;"/></g><g><ellipse cx="244.5" cy="245" rx="31.819805153394636" ry="12.727922061357855" style="stroke: rgb(0, 0, 0); stroke-width: 1; fill: none; fill-opacity: 1;"/></g><g><ellipse cx="278.5" cy="271.5" rx="21.920310216782973" ry="12.020815280171307" style="stroke: rgb(0, 0, 0); stroke-width: 1; fill: none; fill-opacity: 1;"/></g><g><ellipse cx="276" cy="348" rx="16.97056274847714" ry="9.899494936611665" style="stroke: rgb(0, 0, 0); stroke-width: 1; fill: none; fill-opacity: 1;"/></g><g><ellipse cx="234" cy="371.5" rx="70.9284159067456" ry="13.376064159853167" style="stroke: rgb(0, 0, 0); stroke-width: 1; fill: none; fill-opacity: 1;"/></g><g><ellipse cx="393" cy="186.5" rx="26.870057685088803" ry="14.849242404917497" style="stroke: rgb(0, 0, 0); stroke-width: 1; fill: none; fill-opacity: 1;"/></g><g><ellipse cx="459.5" cy="187.5" rx="26.162950903902257" ry="14.849242404917497" style="stroke: rgb(0, 0, 0); stroke-width: 1; fill: none; fill-opacity: 1;"/></g></g><g/></svg>
        <svg xmlns="http://www.w3.org/2000/svg" xmlns:xlink="http://www.w3.org/1999/xlink" width="660" height="473" style="width:660px;height:473px;font-family:Asana-Math, Asana;background:transparent;"><g><g><g><g transform="matrix(1,0,0,1,61.99500274658203,81.86999816894532)"><path transform="matrix(0.02595,0,0,-0.02595,0,0)" d="M32 0C55 1 98 3 134 3C165 3 217 1 249 0L249 31C199 31 174 56 174 82C174 85 175 95 176 97L222 228L469 228L522 75C523 71 525 65 525 61C525 31 469 31 442 31L442 0C478 3 548 3 586 3C629 3 675 2 717 0L717 31L699 31C639 31 625 38 614 71L398 696C393 709 391 716 375 716C359 716 356 710 351 696L144 98C126 47 86 32 32 31ZM233 259L345 584L458 259ZM778 0C813 3 892 3 930 3C969 3 1048 3 1083 0L1083 31L1057 31C978 31 975 42 975 78L975 605C975 641 978 652 1057 652L1083 652L1083 683C1048 680 969 680 931 680C892 680 813 680 778 683L778 652L804 652C883 652 886 641 886 605L886 78C886 42 883 31 804 31L778 31ZM1501 152C1501 142 1516 141 1528 141L2136 141C2147 141 2163 142 2163 153C2163 165 2147 164 2134 164L1521 164C1511 164 1502 164 1501 152ZM1501 347C1501 337 1513 336 1521 336L2138 336C2149 336 2163 336 2163 347C2163 360 2146 359 2133 359L1522 359C1504 359 1501 352 1501 347ZM2592 0C2627 1 2676 3 2709 3C2742 3 2791 1 2826 0L2826 31C2723 31 2723 78 2723 105L2723 644L2724 644L2965 22C2970 9 2975 0 2985 0C2996 0 2999 8 3003 19L3249 652L3250 652L3250 78C3250 42 3248 31 3171 31L3147 31L3147 0C3184 3 3252 3 3291 3C3330 3 3397 3 3434 0L3434 31L3410 31C3333 31 3331 42 3331 78L3331 605C3331 641 3333 652 3410 652L3434 652L3434 683L3265 683C3239 683 3239 682 3232 664L3013 101L2796 661C2787 683 2784 683 2761 683L2592 683L2592 652L2616 652C2693 652 2695 641 2695 605L2695 105C2695 78 2695 31 2592 31ZM3499 0C3534 3 3613 3 3651 3C3690 3 3769 3 3804 0L3804 31L3778 31C3699 31 3696 42 3696 78L3696 605C3696 641 3699 652 3778 652L3804 652L3804 683C3769 680 3690 680 3652 680C3613 680 3534 680 3499 683L3499 652L3525 652C3604 652 3607 641 3607 605L3607 78C3607 42 3604 31 3525 31L3499 31Z" stroke="rgb(0,0,0)" stroke-opacity="1" stroke-width="8" fill="rgb(0,0,0)" fill-opacity="1"></path></g></g></g></g><g><g><g><g transform="matrix(1,0,0,1,158.99999237060547,275.12998962402344)"><path transform="matrix(0.0075,0,0,-0.0075,0,0)" d="M28 220C28 86 133 -11 248 -11C370 -11 415 100 415 119C415 129 407 131 402 131C393 131 391 125 389 117C354 14 264 14 254 14C204 14 164 44 141 81C111 129 111 195 111 231L390 231C412 231 415 231 415 252C415 351 361 448 236 448C120 448 28 345 28 220ZM112 252C118 401 202 426 236 426C339 426 349 291 349 252ZM476 0C511 1 562 3 589 3C615 3 667 1 701 0L701 31C634 31 623 31 623 76L623 260C623 364 694 420 758 420C821 420 832 366 832 309L832 76C832 31 821 31 754 31L754 0C789 1 840 3 867 3C893 3 945 1 979 0L979 31C927 31 902 31 901 61L901 252C901 338 901 369 870 405C856 422 823 442 765 442C692 442 645 399 617 337L617 442L476 431L476 400C546 400 554 393 554 344L554 76C554 31 543 31 476 31ZM1033 216C1033 88 1132 -11 1248 -11C1382 -11 1414 109 1414 119C1414 129 1404 129 1401 129C1392 129 1390 125 1388 119C1359 26 1294 14 1257 14C1204 14 1116 57 1116 218C1116 381 1198 423 1251 423C1260 423 1323 422 1358 386C1317 383 1311 353 1311 340C1311 314 1329 294 1357 294C1383 294 1403 311 1403 341C1403 409 1327 448 1250 448C1125 448 1033 340 1033 216ZM1471 214C1471 85 1575 -11 1692 -11C1813 -11 1914 87 1914 214C1914 342 1814 448 1693 448C1568 448 1471 339 1471 214ZM1554 222C1554 261 1554 315 1578 359C1605 405 1652 426 1692 426C1736 426 1779 404 1805 361C1831 318 1831 260 1831 222C1831 186 1831 132 1809 88C1787 43 1743 14 1693 14C1650 14 1606 35 1579 81C1554 125 1554 186 1554 222ZM2005 215C2005 88 2103 -11 2217 -11C2281 -11 2326 23 2351 55L2351 -11L2498 0L2498 31C2428 31 2420 38 2420 87L2420 694L2276 683L2276 652C2346 652 2354 645 2354 596L2354 380C2325 416 2282 442 2228 442C2110 442 2005 344 2005 215ZM2088 214C2088 251 2090 311 2119 356C2140 387 2178 420 2232 420C2267 420 2309 405 2340 360C2351 343 2351 341 2351 323L2351 118C2351 100 2351 98 2340 81C2310 33 2265 11 2222 11C2177 11 2141 37 2117 75C2091 116 2088 173 2088 214ZM2601 616C2601 589 2623 563 2654 563C2682 563 2707 584 2707 616C2707 648 2682 669 2654 669C2623 669 2601 642 2601 616ZM2559 0C2591 1 2645 3 2669 3C2704 3 2739 1 2773 0L2773 31C2707 31 2703 36 2703 75L2703 442L2563 431L2563 400C2628 400 2637 394 2637 345L2637 76C2637 31 2626 31 2559 31ZM2835 0C2870 1 2921 3 2948 3C2974 3 3026 1 3060 0L3060 31C2993 31 2982 31 2982 76L2982 260C2982 364 3053 420 3117 420C3180 420 3191 366 3191 309L3191 76C3191 31 3180 31 3113 31L3113 0C3148 1 3199 3 3226 3C3252 3 3304 1 3338 0L3338 31C3286 31 3261 31 3260 61L3260 252C3260 338 3260 369 3229 405C3215 422 3182 442 3124 442C3051 442 3004 399 2976 337L2976 442L2835 431L2835 400C2905 400 2913 393 2913 344L2913 76C2913 31 2902 31 2835 31ZM3386 -79C3386 -151 3485 -206 3607 -206C3725 -206 3829 -155 3829 -77C3829 -42 3815 9 3764 37C3711 65 3653 65 3592 65C3567 65 3524 65 3517 66C3485 70 3464 101 3464 133C3464 137 3464 160 3481 180C3520 152 3561 149 3580 149C3673 149 3742 218 3742 295C3742 332 3726 369 3701 392C3737 426 3773 431 3791 431C3793 431 3798 431 3801 430C3790 426 3785 415 3785 403C3785 386 3798 374 3814 374C3824 374 3843 381 3843 404C3843 421 3831 453 3792 453C3772 453 3728 447 3686 406C3644 439 3602 442 3580 442C3487 442 3418 373 3418 296C3418 252 3440 214 3465 193C3452 178 3434 145 3434 110C3434 79 3447 41 3478 21C3418 4 3386 -39 3386 -79ZM3438 -79C3438 -33 3476 4 3520 7L3579 7C3665 7 3777 7 3777 -79C3777 -133 3706 -183 3608 -183C3507 -183 3438 -132 3438 -79ZM3493 295C3493 322 3494 354 3509 379C3517 391 3540 419 3580 419C3667 419 3667 319 3667 296C3667 269 3666 237 3651 212C3643 200 3620 172 3580 172C3493 172 3493 272 3493 295Z" stroke="rgb(0,0,0)" stroke-opacity="1" stroke-width="8" fill="rgb(0,0,0)" fill-opacity="1"></path></g></g></g></g><g><g><g><g transform="matrix(1,0,0,1,178.99999237060547,150.27000427246094)"><path transform="matrix(0.015,0,0,-0.015,0,0)" d="M33 13C33 -4 33 -11 44 -11C49 -11 50 -10 69 9C71 11 71 13 89 32C133 -10 178 -11 199 -11C314 -11 360 56 360 128C360 181 330 211 318 223C285 255 246 263 204 271C148 282 81 295 81 353C81 388 107 429 193 429C303 429 308 339 310 308C311 299 320 299 322 299C335 299 335 304 335 323L335 424C335 441 335 448 324 448C319 448 317 448 304 436C301 432 291 423 287 420C249 448 208 448 193 448C71 448 33 381 33 325C33 290 49 262 76 240C108 214 136 208 208 194C230 190 312 174 312 102C312 51 277 11 199 11C115 11 79 68 60 153C57 166 56 170 46 170C33 170 33 163 33 145ZM413 400L498 400L498 124C498 1 591 -11 627 -11C698 -11 726 60 726 124L726 181L701 181L701 126C701 52 671 14 634 14C567 14 567 105 567 122L567 400L710 400L710 431L567 431L567 615L542 615C541 533 511 426 413 422ZM824 95C824 14 921 -11 984 -11C1050 -11 1096 29 1115 76C1119 36 1146 -6 1193 -6C1214 -6 1275 8 1275 89L1275 145L1250 145L1250 89C1250 31 1225 25 1214 25C1181 25 1177 70 1177 75L1177 275C1177 317 1177 356 1141 393C1102 432 1052 448 1004 448C922 448 853 401 853 335C853 305 873 288 899 288C927 288 945 308 945 334C945 346 940 379 894 380C921 415 970 426 1002 426C1051 426 1108 387 1108 298L1108 261C1057 258 987 255 924 225C849 191 824 139 824 95ZM901 96C901 151 943 234 1108 240L1108 140C1108 45 1036 11 991 11C942 11 901 46 901 96ZM1301 400L1386 400L1386 124C1386 1 1479 -11 1515 -11C1586 -11 1614 60 1614 124L1614 181L1589 181L1589 126C1589 52 1559 14 1522 14C1455 14 1455 105 1455 122L1455 400L1598 400L1598 431L1455 431L1455 615L1430 615C1429 533 1399 426 1301 422ZM1703 13C1703 -4 1703 -11 1714 -11C1719 -11 1720 -10 1739 9C1741 11 1741 13 1759 32C1803 -10 1848 -11 1869 -11C1984 -11 2030 56 2030 128C2030 181 2000 211 1988 223C1955 255 1916 263 1874 271C1818 282 1751 295 1751 353C1751 388 1777 429 1863 429C1973 429 1978 339 1980 308C1981 299 1990 299 1992 299C2005 299 2005 304 2005 323L2005 424C2005 441 2005 448 1994 448C1989 448 1987 448 1974 436C1971 432 1961 423 1957 420C1919 448 1878 448 1863 448C1741 448 1703 381 1703 325C1703 290 1719 262 1746 240C1778 214 1806 208 1878 194C1900 190 1982 174 1982 102C1982 51 1947 11 1869 11C1785 11 1749 68 1730 153C1727 166 1726 170 1716 170C1703 170 1703 163 1703 145Z" stroke="rgb(0,0,0)" stroke-opacity="1" stroke-width="8" fill="rgb(0,0,0)" fill-opacity="1"></path></g></g></g></g><g><g><g><g transform="matrix(1,0,0,1,226.99500274658203,147.27000427246094)"><path transform="matrix(0.015,0,0,-0.015,0,0)" d="M28 -163L28 -194C62 -193 114 -191 140 -191C167 -191 218 -193 253 -194L253 -163C186 -163 175 -163 175 -118L175 50L175 59C180 43 222 -11 298 -11C417 -11 521 87 521 216C521 343 424 442 312 442C234 442 192 398 172 376L172 442L28 431L28 400C99 400 106 394 106 350L106 -118C106 -163 95 -163 28 -163ZM175 114L175 337C204 388 253 417 304 417C377 417 438 329 438 216C438 95 368 11 294 11C254 11 216 31 189 72C175 93 175 94 175 114ZM583 0C622 1 669 3 697 3C737 3 784 3 824 0L824 31L803 31C729 31 727 42 727 78L727 232C727 331 769 420 845 420C852 420 854 420 856 419C853 418 833 406 833 380C833 352 854 337 876 337C894 337 919 349 919 381C919 413 888 442 845 442C772 442 736 375 722 332L722 442L583 431L583 400C653 400 661 393 661 344L661 76C661 31 650 31 583 31ZM974 214C974 85 1078 -11 1195 -11C1316 -11 1417 87 1417 214C1417 342 1317 448 1196 448C1071 448 974 339 974 214ZM1057 222C1057 261 1057 315 1081 359C1108 405 1155 426 1195 426C1239 426 1282 404 1308 361C1334 318 1334 260 1334 222C1334 186 1334 132 1312 88C1290 43 1246 14 1196 14C1153 14 1109 35 1082 81C1057 125 1057 186 1057 222ZM1474 652C1544 652 1552 645 1552 596L1552 0L1577 0C1578 1 1586 15 1613 62C1628 39 1670 -11 1744 -11C1863 -11 1967 87 1967 216C1967 343 1869 442 1755 442C1677 442 1634 395 1618 377L1618 694L1474 683ZM1621 114L1621 320C1621 339 1621 340 1632 356C1671 412 1726 420 1750 420C1795 420 1831 394 1855 356C1881 315 1884 258 1884 217C1884 180 1882 120 1853 75C1832 44 1794 11 1740 11C1695 11 1659 35 1635 72C1621 93 1621 96 1621 114Z" stroke="rgb(0,0,0)" stroke-opacity="1" stroke-width="8" fill="rgb(0,0,0)" fill-opacity="1"></path></g></g></g></g><g><g><g><g transform="matrix(1,0,0,1,87.99500274658203,185.27000427246094)"><path transform="matrix(0.015,0,0,-0.015,0,0)" d="M33 0C66 1 119 3 144 3C169 3 218 1 255 0L255 31C188 31 177 31 177 76L177 694L33 683L33 652C103 652 111 645 111 596L111 76C111 31 100 31 33 31ZM305 214C305 85 409 -11 526 -11C647 -11 748 87 748 214C748 342 648 448 527 448C402 448 305 339 305 214ZM388 222C388 261 388 315 412 359C439 405 486 426 526 426C570 426 613 404 639 361C665 318 665 260 665 222C665 186 665 132 643 88C621 43 577 14 527 14C484 14 440 35 413 81C388 125 388 186 388 222ZM805 -79C805 -151 904 -206 1026 -206C1144 -206 1248 -155 1248 -77C1248 -42 1234 9 1183 37C1130 65 1072 65 1011 65C986 65 943 65 936 66C904 70 883 101 883 133C883 137 883 160 900 180C939 152 980 149 999 149C1092 149 1161 218 1161 295C1161 332 1145 369 1120 392C1156 426 1192 431 1210 431C1212 431 1217 431 1220 430C1209 426 1204 415 1204 403C1204 386 1217 374 1233 374C1243 374 1262 381 1262 404C1262 421 1250 453 1211 453C1191 453 1147 447 1105 406C1063 439 1021 442 999 442C906 442 837 373 837 296C837 252 859 214 884 193C871 178 853 145 853 110C853 79 866 41 897 21C837 4 805 -39 805 -79ZM857 -79C857 -33 895 4 939 7L998 7C1084 7 1196 7 1196 -79C1196 -133 1125 -183 1027 -183C926 -183 857 -132 857 -79ZM912 295C912 322 913 354 928 379C936 391 959 419 999 419C1086 419 1086 319 1086 296C1086 269 1085 237 1070 212C1062 200 1039 172 999 172C912 172 912 272 912 295ZM1352 616C1352 589 1374 563 1405 563C1433 563 1458 584 1458 616C1458 648 1433 669 1405 669C1374 669 1352 642 1352 616ZM1310 0C1342 1 1396 3 1420 3C1455 3 1490 1 1524 0L1524 31C1458 31 1454 36 1454 75L1454 442L1314 431L1314 400C1379 400 1388 394 1388 345L1388 76C1388 31 1377 31 1310 31ZM1588 216C1588 88 1687 -11 1803 -11C1937 -11 1969 109 1969 119C1969 129 1959 129 1956 129C1947 129 1945 125 1943 119C1914 26 1849 14 1812 14C1759 14 1671 57 1671 218C1671 381 1753 423 1806 423C1815 423 1878 422 1913 386C1872 383 1866 353 1866 340C1866 314 1884 294 1912 294C1938 294 1958 311 1958 341C1958 409 1882 448 1805 448C1680 448 1588 340 1588 216Z" stroke="rgb(0,0,0)" stroke-opacity="1" stroke-width="8" fill="rgb(0,0,0)" fill-opacity="1"></path></g></g></g></g><g><g><g><g transform="matrix(1,0,0,1,85.98999786376953,226.27000427246094)"><path transform="matrix(0.015,0,0,-0.015,0,0)" d="M35 0L401 0C569 0 707 148 707 336C707 526 572 683 401 683L35 683L35 652L59 652C136 652 138 641 138 605L138 78C138 42 136 31 59 31L35 31ZM224 71L224 612C224 645 226 652 273 652L373 652C435 652 504 630 555 559C598 500 607 414 607 336C607 225 588 165 552 116C532 89 475 31 374 31L273 31C226 31 224 38 224 71ZM799 452L824 452C838 613 853 646 1004 646C1022 646 1048 646 1058 644C1079 640 1079 629 1079 606L1079 79C1079 45 1079 31 974 31L934 31L934 0C975 3 1077 3 1123 3C1169 3 1272 3 1313 0L1313 31L1273 31C1168 31 1168 45 1168 79L1168 606C1168 626 1168 640 1186 644C1197 646 1224 646 1243 646C1394 646 1409 613 1423 452L1448 452L1429 677L818 677ZM1435 13C1435 -4 1435 -11 1446 -11C1451 -11 1452 -10 1471 9C1473 11 1473 13 1491 32C1535 -10 1580 -11 1601 -11C1716 -11 1762 56 1762 128C1762 181 1732 211 1720 223C1687 255 1648 263 1606 271C1550 282 1483 295 1483 353C1483 388 1509 429 1595 429C1705 429 1710 339 1712 308C1713 299 1722 299 1724 299C1737 299 1737 304 1737 323L1737 424C1737 441 1737 448 1726 448C1721 448 1719 448 1706 436C1703 432 1693 423 1689 420C1651 448 1610 448 1595 448C1473 448 1435 381 1435 325C1435 290 1451 262 1478 240C1510 214 1538 208 1610 194C1632 190 1714 174 1714 102C1714 51 1679 11 1601 11C1517 11 1481 68 1462 153C1459 166 1458 170 1448 170C1435 170 1435 163 1435 145Z" stroke="rgb(0,0,0)" stroke-opacity="1" stroke-width="8" fill="rgb(0,0,0)" fill-opacity="1"></path></g></g></g></g><g><g><g><g transform="matrix(1,0,0,1,92.99500274658203,279.27000427246094)"><path transform="matrix(0.015,0,0,-0.015,0,0)" d="M33 0C68 3 146 3 185 3C226 3 317 3 353 0L353 31L320 31C225 31 225 44 225 79L225 325L311 325C407 325 417 293 417 208L442 208L442 473L417 473C417 389 407 356 311 356L225 356L225 609C225 642 227 649 274 649L394 649C544 649 569 593 585 455L610 455L582 680L33 680L33 649L57 649C134 649 136 638 136 602L136 78C136 42 134 31 57 31L33 31ZM685 0L1206 0L1234 258L1209 258C1198 156 1184 31 1008 31L926 31C879 31 877 38 877 71L877 604C877 638 877 652 972 652L1005 652L1005 683C969 680 878 680 837 680C798 680 720 680 685 683L685 652L709 652C786 652 788 641 788 605L788 78C788 42 786 31 709 31L685 31Z" stroke="rgb(0,0,0)" stroke-opacity="1" stroke-width="8" fill="rgb(0,0,0)" fill-opacity="1"></path></g></g></g></g><g transform="matrix(0.956610402487592,-0.29137010459641755,0.29137010459641755,0.956610402487592,-50.71791118648417,56.7187173232665)"><g><g><g transform="matrix(1,0,0,1,154.87499237060547,204.37001037597656)"><path transform="matrix(0.015,0,0,-0.015,0,0)" d="M35 0C71 3 142 3 181 3C220 3 291 3 327 0L327 31L303 31C226 31 224 42 224 78L224 331L339 331C355 331 397 331 432 297C470 261 470 230 470 163C470 98 470 58 511 20C552 -16 607 -22 637 -22C715 -22 732 60 732 88C732 94 732 105 719 105C708 105 708 96 707 89C701 18 666 0 641 0C592 0 584 51 570 144L557 224C539 288 490 321 435 340C532 364 610 425 610 503C610 599 496 683 349 683L35 683L35 652L59 652C136 652 138 641 138 605L138 78C138 42 136 31 59 31L35 31ZM224 353L224 612C224 635 224 647 246 650C256 652 285 652 305 652C395 652 507 648 507 503C507 434 483 353 335 353ZM769 0L1290 0L1318 258L1293 258C1282 156 1268 31 1092 31L1010 31C963 31 961 38 961 71L961 604C961 638 961 652 1056 652L1089 652L1089 683C1053 680 962 680 921 680C882 680 804 680 769 683L769 652L793 652C870 652 872 641 872 605L872 78C872 42 870 31 793 31L769 31Z" stroke="rgb(0,0,0)" stroke-opacity="1" stroke-width="8" fill="rgb(0,0,0)" fill-opacity="1"></path></g></g></g></g><g><g><g><g transform="matrix(1,0,0,1,249.00000762939453,204.27000427246094)"><path transform="matrix(0.015,0,0,-0.015,0,0)" d="M56 342C56 135 218 -22 404 -22C567 -22 665 117 665 233C665 243 665 250 652 250C641 250 641 244 640 234C632 91 525 9 416 9C355 9 159 43 159 341C159 640 354 674 415 674C524 674 613 583 633 437C635 423 635 420 649 420C665 420 665 423 665 444L665 681C665 698 665 705 654 705C650 705 646 705 638 693L588 619C551 655 500 705 404 705C217 705 56 546 56 342ZM755 0C788 1 841 3 866 3C891 3 940 1 977 0L977 31C910 31 899 31 899 76L899 694L755 683L755 652C825 652 833 645 833 596L833 76C833 31 822 31 755 31ZM1041 95C1041 14 1138 -11 1201 -11C1267 -11 1313 29 1332 76C1336 36 1363 -6 1410 -6C1431 -6 1492 8 1492 89L1492 145L1467 145L1467 89C1467 31 1442 25 1431 25C1398 25 1394 70 1394 75L1394 275C1394 317 1394 356 1358 393C1319 432 1269 448 1221 448C1139 448 1070 401 1070 335C1070 305 1090 288 1116 288C1144 288 1162 308 1162 334C1162 346 1157 379 1111 380C1138 415 1187 426 1219 426C1268 426 1325 387 1325 298L1325 261C1274 258 1204 255 1141 225C1066 191 1041 139 1041 95ZM1118 96C1118 151 1160 234 1325 240L1325 140C1325 45 1253 11 1208 11C1159 11 1118 46 1118 96ZM1532 13C1532 -4 1532 -11 1543 -11C1548 -11 1549 -10 1568 9C1570 11 1570 13 1588 32C1632 -10 1677 -11 1698 -11C1813 -11 1859 56 1859 128C1859 181 1829 211 1817 223C1784 255 1745 263 1703 271C1647 282 1580 295 1580 353C1580 388 1606 429 1692 429C1802 429 1807 339 1809 308C1810 299 1819 299 1821 299C1834 299 1834 304 1834 323L1834 424C1834 441 1834 448 1823 448C1818 448 1816 448 1803 436C1800 432 1790 423 1786 420C1748 448 1707 448 1692 448C1570 448 1532 381 1532 325C1532 290 1548 262 1575 240C1607 214 1635 208 1707 194C1729 190 1811 174 1811 102C1811 51 1776 11 1698 11C1614 11 1578 68 1559 153C1556 166 1555 170 1545 170C1532 170 1532 163 1532 145ZM1926 13C1926 -4 1926 -11 1937 -11C1942 -11 1943 -10 1962 9C1964 11 1964 13 1982 32C2026 -10 2071 -11 2092 -11C2207 -11 2253 56 2253 128C2253 181 2223 211 2211 223C2178 255 2139 263 2097 271C2041 282 1974 295 1974 353C1974 388 2000 429 2086 429C2196 429 2201 339 2203 308C2204 299 2213 299 2215 299C2228 299 2228 304 2228 323L2228 424C2228 441 2228 448 2217 448C2212 448 2210 448 2197 436C2194 432 2184 423 2180 420C2142 448 2101 448 2086 448C1964 448 1926 381 1926 325C1926 290 1942 262 1969 240C2001 214 2029 208 2101 194C2123 190 2205 174 2205 102C2205 51 2170 11 2092 11C2008 11 1972 68 1953 153C1950 166 1949 170 1939 170C1926 170 1926 163 1926 145ZM2362 616C2362 589 2384 563 2415 563C2443 563 2468 584 2468 616C2468 648 2443 669 2415 669C2384 669 2362 642 2362 616ZM2320 0C2352 1 2406 3 2430 3C2465 3 2500 1 2534 0L2534 31C2468 31 2464 36 2464 75L2464 442L2324 431L2324 400C2389 400 2398 394 2398 345L2398 76C2398 31 2387 31 2320 31ZM2591 0C2645 3 2677 3 2699 3C2737 3 2776 2 2814 0L2814 31L2806 31C2740 31 2736 39 2736 77L2736 400L2891 400C2942 400 2947 385 2947 336C2947 327 2946 318 2946 309L2946 75C2946 39 2938 31 2879 31L2869 31L2869 0C2923 3 2955 3 2977 3C3015 3 3053 2 3091 0L3091 31L3081 31C3030 31 3014 36 3014 72L3014 443L2869 432L2869 430L2733 430L2733 541C2733 648 2825 682 2881 682C2933 682 2961 656 2968 650C2940 649 2920 631 2920 604C2920 577 2942 558 2966 558C2990 558 3012 575 3012 606C3012 659 2959 705 2883 705C2790 705 2669 657 2669 542L2669 430L2591 430L2591 400L2669 400L2669 77C2669 39 2664 31 2599 31L2591 31ZM3147 220C3147 86 3252 -11 3367 -11C3489 -11 3534 100 3534 119C3534 129 3526 131 3521 131C3512 131 3510 125 3508 117C3473 14 3383 14 3373 14C3323 14 3283 44 3260 81C3230 129 3230 195 3230 231L3509 231C3531 231 3534 231 3534 252C3534 351 3480 448 3355 448C3239 448 3147 345 3147 220ZM3231 252C3237 401 3321 426 3355 426C3458 426 3468 291 3468 252ZM3591 0C3630 1 3677 3 3705 3C3745 3 3792 3 3832 0L3832 31L3811 31C3737 31 3735 42 3735 78L3735 232C3735 331 3777 420 3853 420C3860 420 3862 420 3864 419C3861 418 3841 406 3841 380C3841 352 3862 337 3884 337C3902 337 3927 349 3927 381C3927 413 3896 442 3853 442C3780 442 3744 375 3730 332L3730 442L3591 431L3591 400C3661 400 3669 393 3669 344L3669 76C3669 31 3658 31 3591 31ZM3987 13C3987 -4 3987 -11 3998 -11C4003 -11 4004 -10 4023 9C4025 11 4025 13 4043 32C4087 -10 4132 -11 4153 -11C4268 -11 4314 56 4314 128C4314 181 4284 211 4272 223C4239 255 4200 263 4158 271C4102 282 4035 295 4035 353C4035 388 4061 429 4147 429C4257 429 4262 339 4264 308C4265 299 4274 299 4276 299C4289 299 4289 304 4289 323L4289 424C4289 441 4289 448 4278 448C4273 448 4271 448 4258 436C4255 432 4245 423 4241 420C4203 448 4162 448 4147 448C4025 448 3987 381 3987 325C3987 290 4003 262 4030 240C4062 214 4090 208 4162 194C4184 190 4266 174 4266 102C4266 51 4231 11 4153 11C4069 11 4033 68 4014 153C4011 166 4010 170 4000 170C3987 170 3987 163 3987 145ZM4405 -236C4405 -242 4408 -248 4414 -248C4422 -248 4425 -243 4433 -221L4787 723C4788 727 4790 732 4790 736C4790 744 4784 748 4780 748C4769 748 4765 730 4762 723L4409 -220C4405 -231 4405 -233 4405 -236Z" stroke="rgb(0,0,0)" stroke-opacity="1" stroke-width="8" fill="rgb(0,0,0)" fill-opacity="1"></path></g></g></g><g><g><g transform="matrix(1,0,0,1,249.00000762939453,225.38999938964844)"><path transform="matrix(0.015,0,0,-0.015,0,0)" d="M56 342C56 135 218 -22 404 -22C567 -22 665 117 665 233C665 243 665 250 652 250C641 250 641 244 640 234C632 91 525 9 416 9C355 9 159 43 159 341C159 640 354 674 415 674C524 674 613 583 633 437C635 423 635 420 649 420C665 420 665 423 665 444L665 681C665 698 665 705 654 705C650 705 646 705 638 693L588 619C551 655 500 705 404 705C217 705 56 546 56 342ZM755 0C788 1 841 3 866 3C891 3 940 1 977 0L977 31C910 31 899 31 899 76L899 694L755 683L755 652C825 652 833 645 833 596L833 76C833 31 822 31 755 31ZM1031 400C1109 400 1109 397 1109 308L1109 158C1109 80 1109 -11 1261 -11C1317 -11 1361 17 1390 79L1390 -11L1534 0L1534 31C1464 31 1456 38 1456 87L1456 442L1309 431L1309 400C1379 400 1387 393 1387 344L1387 166C1387 79 1339 11 1266 11C1182 11 1178 58 1178 110L1178 442L1031 431ZM1587 13C1587 -4 1587 -11 1598 -11C1603 -11 1604 -10 1623 9C1625 11 1625 13 1643 32C1687 -10 1732 -11 1753 -11C1868 -11 1914 56 1914 128C1914 181 1884 211 1872 223C1839 255 1800 263 1758 271C1702 282 1635 295 1635 353C1635 388 1661 429 1747 429C1857 429 1862 339 1864 308C1865 299 1874 299 1876 299C1889 299 1889 304 1889 323L1889 424C1889 441 1889 448 1878 448C1873 448 1871 448 1858 436C1855 432 1845 423 1841 420C1803 448 1762 448 1747 448C1625 448 1587 381 1587 325C1587 290 1603 262 1630 240C1662 214 1690 208 1762 194C1784 190 1866 174 1866 102C1866 51 1831 11 1753 11C1669 11 1633 68 1614 153C1611 166 1610 170 1600 170C1587 170 1587 163 1587 145ZM1967 400L2052 400L2052 124C2052 1 2145 -11 2181 -11C2252 -11 2280 60 2280 124L2280 181L2255 181L2255 126C2255 52 2225 14 2188 14C2121 14 2121 105 2121 122L2121 400L2264 400L2264 431L2121 431L2121 615L2096 615C2095 533 2065 426 1967 422ZM2364 220C2364 86 2469 -11 2584 -11C2706 -11 2751 100 2751 119C2751 129 2743 131 2738 131C2729 131 2727 125 2725 117C2690 14 2600 14 2590 14C2540 14 2500 44 2477 81C2447 129 2447 195 2447 231L2726 231C2748 231 2751 231 2751 252C2751 351 2697 448 2572 448C2456 448 2364 345 2364 220ZM2448 252C2454 401 2538 426 2572 426C2675 426 2685 291 2685 252ZM2808 0C2847 1 2894 3 2922 3C2962 3 3009 3 3049 0L3049 31L3028 31C2954 31 2952 42 2952 78L2952 232C2952 331 2994 420 3070 420C3077 420 3079 420 3081 419C3078 418 3058 406 3058 380C3058 352 3079 337 3101 337C3119 337 3144 349 3144 381C3144 413 3113 442 3070 442C2997 442 2961 375 2947 332L2947 442L2808 431L2808 400C2878 400 2886 393 2886 344L2886 76C2886 31 2875 31 2808 31ZM3246 616C3246 589 3268 563 3299 563C3327 563 3352 584 3352 616C3352 648 3327 669 3299 669C3268 669 3246 642 3246 616ZM3204 0C3236 1 3290 3 3314 3C3349 3 3384 1 3418 0L3418 31C3352 31 3348 36 3348 75L3348 442L3208 431L3208 400C3273 400 3282 394 3282 345L3282 76C3282 31 3271 31 3204 31ZM3480 0C3515 1 3566 3 3593 3C3619 3 3671 1 3705 0L3705 31C3638 31 3627 31 3627 76L3627 260C3627 364 3698 420 3762 420C3825 420 3836 366 3836 309L3836 76C3836 31 3825 31 3758 31L3758 0C3793 1 3844 3 3871 3C3897 3 3949 1 3983 0L3983 31C3931 31 3906 31 3905 61L3905 252C3905 338 3905 369 3874 405C3860 422 3827 442 3769 442C3696 442 3649 399 3621 337L3621 442L3480 431L3480 400C3550 400 3558 393 3558 344L3558 76C3558 31 3547 31 3480 31ZM4031 -79C4031 -151 4130 -206 4252 -206C4370 -206 4474 -155 4474 -77C4474 -42 4460 9 4409 37C4356 65 4298 65 4237 65C4212 65 4169 65 4162 66C4130 70 4109 101 4109 133C4109 137 4109 160 4126 180C4165 152 4206 149 4225 149C4318 149 4387 218 4387 295C4387 332 4371 369 4346 392C4382 426 4418 431 4436 431C4438 431 4443 431 4446 430C4435 426 4430 415 4430 403C4430 386 4443 374 4459 374C4469 374 4488 381 4488 404C4488 421 4476 453 4437 453C4417 453 4373 447 4331 406C4289 439 4247 442 4225 442C4132 442 4063 373 4063 296C4063 252 4085 214 4110 193C4097 178 4079 145 4079 110C4079 79 4092 41 4123 21C4063 4 4031 -39 4031 -79ZM4083 -79C4083 -33 4121 4 4165 7L4224 7C4310 7 4422 7 4422 -79C4422 -133 4351 -183 4253 -183C4152 -183 4083 -132 4083 -79ZM4138 295C4138 322 4139 354 4154 379C4162 391 4185 419 4225 419C4312 419 4312 319 4312 296C4312 269 4311 237 4296 212C4288 200 4265 172 4225 172C4138 172 4138 272 4138 295Z" stroke="rgb(0,0,0)" stroke-opacity="1" stroke-width="8" fill="rgb(0,0,0)" fill-opacity="1"></path></g></g></g></g><g><g><g><g><g><g><g transform="matrix(1,0,0,1,224.00000762939453,249.59000549316406)"><path transform="matrix(0.0136,0,0,-0.0136,0,0)" d="M371 664L374 692L350 692L260 689C244 689 226 689 183 690L119 692L116 664L163 662C187 661 198 653 198 635C198 621 195 592 189 559L116 125C99 33 98 32 58 28L17 25L13 -3L55 -2C103 -1 126 0 145 0L242 -3L268 -3L271 25L222 28C195 30 186 37 186 57C186 63 187 74 188 78L231 340C381 169 404 140 509 -3L578 0C614 -1 620 -2 646 -3L646 27L626 27C603 27 583 39 562 65L316 367L608 640C624 655 645 665 662 665L683 665L683 692L660 691C639 690 623 689 615 689C605 689 589 690 568 691L548 692L548 663C548 655 538 642 510 614C466 569 297 403 233 353L278 613C285 651 292 658 329 661Z" stroke="rgb(0,0,0)" stroke-opacity="1" stroke-width="8" fill="rgb(0,0,0)" fill-opacity="1"></path></g></g></g></g></g><g><g transform="matrix(1,0,0,1,233.06000518798828,249.27000427246094)"><path transform="matrix(0.012,0,0,-0.012,0,0)" d="M10 186L276 186L276 245L10 245ZM365 0C400 1 451 3 478 3C504 3 556 1 590 0L590 31C523 31 512 31 512 76L512 260C512 364 583 420 647 420C710 420 721 366 721 309L721 76C721 31 710 31 643 31L643 0C678 1 729 3 756 3C782 3 834 1 868 0L868 31C801 31 790 31 790 76L790 260C790 364 861 420 925 420C988 420 999 366 999 309L999 76C999 31 988 31 921 31L921 0C956 1 1007 3 1034 3C1060 3 1112 1 1146 0L1146 31C1094 31 1069 31 1068 61L1068 252C1068 338 1068 369 1037 405C1023 422 990 442 932 442C848 442 804 382 787 344C773 431 699 442 654 442C581 442 534 399 506 337L506 442L365 431L365 400C435 400 443 393 443 344L443 76C443 31 432 31 365 31ZM1194 220C1194 86 1299 -11 1414 -11C1536 -11 1581 100 1581 119C1581 129 1573 131 1568 131C1559 131 1557 125 1555 117C1520 14 1430 14 1420 14C1370 14 1330 44 1307 81C1277 129 1277 195 1277 231L1556 231C1578 231 1581 231 1581 252C1581 351 1527 448 1402 448C1286 448 1194 345 1194 220ZM1278 252C1284 401 1368 426 1402 426C1505 426 1515 291 1515 252ZM1652 95C1652 14 1749 -11 1812 -11C1878 -11 1924 29 1943 76C1947 36 1974 -6 2021 -6C2042 -6 2103 8 2103 89L2103 145L2078 145L2078 89C2078 31 2053 25 2042 25C2009 25 2005 70 2005 75L2005 275C2005 317 2005 356 1969 393C1930 432 1880 448 1832 448C1750 448 1681 401 1681 335C1681 305 1701 288 1727 288C1755 288 1773 308 1773 334C1773 346 1768 379 1722 380C1749 415 1798 426 1830 426C1879 426 1936 387 1936 298L1936 261C1885 258 1815 255 1752 225C1677 191 1652 139 1652 95ZM1729 96C1729 151 1771 234 1936 240L1936 140C1936 45 1864 11 1819 11C1770 11 1729 46 1729 96ZM2142 0C2177 1 2228 3 2255 3C2281 3 2333 1 2367 0L2367 31C2300 31 2289 31 2289 76L2289 260C2289 364 2360 420 2424 420C2487 420 2498 366 2498 309L2498 76C2498 31 2487 31 2420 31L2420 0C2455 1 2506 3 2533 3C2559 3 2611 1 2645 0L2645 31C2593 31 2568 31 2567 61L2567 252C2567 338 2567 369 2536 405C2522 422 2489 442 2431 442C2358 442 2311 399 2283 337L2283 442L2142 431L2142 400C2212 400 2220 393 2220 344L2220 76C2220 31 2209 31 2142 31Z" stroke="rgb(0,0,0)" stroke-opacity="1" stroke-width="8" fill="rgb(0,0,0)" fill-opacity="1"></path></g></g></g></g><g><g><g><g transform="matrix(1,0,0,1,265.00000762939453,275.62998962402344)"><path transform="matrix(0.012,0,0,-0.012,0,0)" d="M56 2C56 -15 56 -22 67 -22C74 -22 75 -20 82 -9C82 -8 85 -5 118 48C149 14 213 -22 302 -22C419 -22 499 76 499 186C499 286 433 368 349 388L221 419C159 434 120 488 120 546C120 616 174 677 252 677C419 677 441 513 447 468C448 462 448 456 459 456C472 456 472 461 472 480L472 681C472 698 472 705 461 705C454 705 453 704 446 692L411 635C381 664 340 705 251 705C140 705 56 617 56 511C56 428 109 355 187 328C198 324 249 312 319 295C346 288 376 281 404 244C425 218 435 185 435 152C435 81 385 9 301 9C272 9 196 14 143 63C85 117 82 181 81 217C80 227 72 227 69 227C56 227 56 220 56 202ZM574 652C639 652 658 652 672 614L904 0C911 -19 916 -22 929 -22C946 -22 948 -17 953 -3L1176 585C1190 622 1217 651 1285 652L1285 683C1254 681 1214 680 1188 680C1158 680 1100 682 1074 683L1074 652C1126 651 1147 625 1147 602C1147 594 1144 588 1142 582L959 100L768 605C762 619 762 621 762 623C762 652 819 652 844 652L844 683C808 680 739 680 701 680C653 680 610 682 574 683ZM1342 0C1377 1 1426 3 1459 3C1492 3 1541 1 1576 0L1576 31C1473 31 1473 78 1473 105L1473 644L1474 644L1715 22C1720 9 1725 0 1735 0C1746 0 1749 8 1753 19L1999 652L2000 652L2000 78C2000 42 1998 31 1921 31L1897 31L1897 0C1934 3 2002 3 2041 3C2080 3 2147 3 2184 0L2184 31L2160 31C2083 31 2081 42 2081 78L2081 605C2081 641 2083 652 2160 652L2184 652L2184 683L2015 683C1989 683 1989 682 1982 664L1763 101L1546 661C1537 683 1534 683 1511 683L1342 683L1342 652L1366 652C1443 652 1445 641 1445 605L1445 105C1445 78 1445 31 1342 31Z" stroke="rgb(0,0,0)" stroke-opacity="1" stroke-width="8" fill="rgb(0,0,0)" fill-opacity="1"></path></g></g></g></g><g><g><g><g transform="matrix(1,0,0,1,193.99500274658203,332.27000427246094)"><path transform="matrix(0.015,0,0,-0.015,0,0)" d="M32 0C67 1 118 3 145 3C171 3 223 1 257 0L257 31C190 31 179 31 179 76L179 260C179 364 250 420 314 420C377 420 388 366 388 309L388 76C388 31 377 31 310 31L310 0C345 1 396 3 423 3C449 3 501 1 535 0L535 31C468 31 457 31 457 76L457 260C457 364 528 420 592 420C655 420 666 366 666 309L666 76C666 31 655 31 588 31L588 0C623 1 674 3 701 3C727 3 779 1 813 0L813 31C761 31 736 31 735 61L735 252C735 338 735 369 704 405C690 422 657 442 599 442C515 442 471 382 454 344C440 431 366 442 321 442C248 442 201 399 173 337L173 442L32 431L32 400C102 400 110 393 110 344L110 76C110 31 99 31 32 31ZM861 220C861 86 966 -11 1081 -11C1203 -11 1248 100 1248 119C1248 129 1240 131 1235 131C1226 131 1224 125 1222 117C1187 14 1097 14 1087 14C1037 14 997 44 974 81C944 129 944 195 944 231L1223 231C1245 231 1248 231 1248 252C1248 351 1194 448 1069 448C953 448 861 345 861 220ZM945 252C951 401 1035 426 1069 426C1172 426 1182 291 1182 252ZM1296 400L1381 400L1381 124C1381 1 1474 -11 1510 -11C1581 -11 1609 60 1609 124L1609 181L1584 181L1584 126C1584 52 1554 14 1517 14C1450 14 1450 105 1450 122L1450 400L1593 400L1593 431L1450 431L1450 615L1425 615C1424 533 1394 426 1296 422ZM1707 95C1707 14 1804 -11 1867 -11C1933 -11 1979 29 1998 76C2002 36 2029 -6 2076 -6C2097 -6 2158 8 2158 89L2158 145L2133 145L2133 89C2133 31 2108 25 2097 25C2064 25 2060 70 2060 75L2060 275C2060 317 2060 356 2024 393C1985 432 1935 448 1887 448C1805 448 1736 401 1736 335C1736 305 1756 288 1782 288C1810 288 1828 308 1828 334C1828 346 1823 379 1777 380C1804 415 1853 426 1885 426C1934 426 1991 387 1991 298L1991 261C1940 258 1870 255 1807 225C1732 191 1707 139 1707 95ZM1784 96C1784 151 1826 234 1991 240L1991 140C1991 45 1919 11 1874 11C1825 11 1784 46 1784 96ZM2175 186L2441 186L2441 245L2175 245ZM2530 0C2565 1 2616 3 2643 3C2669 3 2721 1 2755 0L2755 31C2688 31 2677 31 2677 76L2677 260C2677 364 2748 420 2812 420C2875 420 2886 366 2886 309L2886 76C2886 31 2875 31 2808 31L2808 0C2843 1 2894 3 2921 3C2947 3 2999 1 3033 0L3033 31C2981 31 2956 31 2955 61L2955 252C2955 338 2955 369 2924 405C2910 422 2877 442 2819 442C2735 442 2691 382 2675 346L2674 346L2674 694L2530 683L2530 652C2600 652 2608 645 2608 596L2608 76C2608 31 2597 31 2530 31ZM3081 220C3081 86 3186 -11 3301 -11C3423 -11 3468 100 3468 119C3468 129 3460 131 3455 131C3446 131 3444 125 3442 117C3407 14 3317 14 3307 14C3257 14 3217 44 3194 81C3164 129 3164 195 3164 231L3443 231C3465 231 3468 231 3468 252C3468 351 3414 448 3289 448C3173 448 3081 345 3081 220ZM3165 252C3171 401 3255 426 3289 426C3392 426 3402 291 3402 252ZM3529 400C3607 400 3607 397 3607 308L3607 158C3607 80 3607 -11 3759 -11C3815 -11 3859 17 3888 79L3888 -11L4032 0L4032 31C3962 31 3954 38 3954 87L3954 442L3807 431L3807 400C3877 400 3885 393 3885 344L3885 166C3885 79 3837 11 3764 11C3680 11 3676 58 3676 110L3676 442L3529 431ZM4080 0C4119 1 4166 3 4194 3C4234 3 4281 3 4321 0L4321 31L4300 31C4226 31 4224 42 4224 78L4224 232C4224 331 4266 420 4342 420C4349 420 4351 420 4353 419C4350 418 4330 406 4330 380C4330 352 4351 337 4373 337C4391 337 4416 349 4416 381C4416 413 4385 442 4342 442C4269 442 4233 375 4219 332L4219 442L4080 431L4080 400C4150 400 4158 393 4158 344L4158 76C4158 31 4147 31 4080 31ZM4518 616C4518 589 4540 563 4571 563C4599 563 4624 584 4624 616C4624 648 4599 669 4571 669C4540 669 4518 642 4518 616ZM4476 0C4508 1 4562 3 4586 3C4621 3 4656 1 4690 0L4690 31C4624 31 4620 36 4620 75L4620 442L4480 431L4480 400C4545 400 4554 394 4554 345L4554 76C4554 31 4543 31 4476 31ZM4753 13C4753 -4 4753 -11 4764 -11C4769 -11 4770 -10 4789 9C4791 11 4791 13 4809 32C4853 -10 4898 -11 4919 -11C5034 -11 5080 56 5080 128C5080 181 5050 211 5038 223C5005 255 4966 263 4924 271C4868 282 4801 295 4801 353C4801 388 4827 429 4913 429C5023 429 5028 339 5030 308C5031 299 5040 299 5042 299C5055 299 5055 304 5055 323L5055 424C5055 441 5055 448 5044 448C5039 448 5037 448 5024 436C5021 432 5011 423 5007 420C4969 448 4928 448 4913 448C4791 448 4753 381 4753 325C4753 290 4769 262 4796 240C4828 214 4856 208 4928 194C4950 190 5032 174 5032 102C5032 51 4997 11 4919 11C4835 11 4799 68 4780 153C4777 166 4776 170 4766 170C4753 170 4753 163 4753 145ZM5133 400L5218 400L5218 124C5218 1 5311 -11 5347 -11C5418 -11 5446 60 5446 124L5446 181L5421 181L5421 126C5421 52 5391 14 5354 14C5287 14 5287 105 5287 122L5287 400L5430 400L5430 431L5287 431L5287 615L5262 615C5261 533 5231 426 5133 422ZM5577 616C5577 589 5599 563 5630 563C5658 563 5683 584 5683 616C5683 648 5658 669 5630 669C5599 669 5577 642 5577 616ZM5535 0C5567 1 5621 3 5645 3C5680 3 5715 1 5749 0L5749 31C5683 31 5679 36 5679 75L5679 442L5539 431L5539 400C5604 400 5613 394 5613 345L5613 76C5613 31 5602 31 5535 31ZM5813 216C5813 88 5912 -11 6028 -11C6162 -11 6194 109 6194 119C6194 129 6184 129 6181 129C6172 129 6170 125 6168 119C6139 26 6074 14 6037 14C5984 14 5896 57 5896 218C5896 381 5978 423 6031 423C6040 423 6103 422 6138 386C6097 383 6091 353 6091 340C6091 314 6109 294 6137 294C6163 294 6183 311 6183 341C6183 409 6107 448 6030 448C5905 448 5813 340 5813 216ZM6256 13C6256 -4 6256 -11 6267 -11C6272 -11 6273 -10 6292 9C6294 11 6294 13 6312 32C6356 -10 6401 -11 6422 -11C6537 -11 6583 56 6583 128C6583 181 6553 211 6541 223C6508 255 6469 263 6427 271C6371 282 6304 295 6304 353C6304 388 6330 429 6416 429C6526 429 6531 339 6533 308C6534 299 6543 299 6545 299C6558 299 6558 304 6558 323L6558 424C6558 441 6558 448 6547 448C6542 448 6540 448 6527 436C6524 432 6514 423 6510 420C6472 448 6431 448 6416 448C6294 448 6256 381 6256 325C6256 290 6272 262 6299 240C6331 214 6359 208 6431 194C6453 190 6535 174 6535 102C6535 51 6500 11 6422 11C6338 11 6302 68 6283 153C6280 166 6279 170 6269 170C6256 170 6256 163 6256 145Z" stroke="rgb(0,0,0)" stroke-opacity="1" stroke-width="8" fill="rgb(0,0,0)" fill-opacity="1"></path></g></g></g></g><g><g><g><g transform="matrix(1,0,0,1,266.00000762939453,352.13999938964844)"><path transform="matrix(0.0105,0,0,-0.0105,0,0)" d="M56 342C56 137 216 -22 406 -22C479 -22 559 4 593 63C606 41 646 1 657 1C666 1 666 9 666 24L666 198C666 237 670 242 735 242L735 273C698 272 643 270 613 270C573 270 488 270 452 273L452 242L484 242C574 242 577 231 577 194L577 130C577 18 450 9 422 9C357 9 159 44 159 342C159 641 356 674 416 674C523 674 614 584 634 437C636 423 636 420 650 420C666 420 666 423 666 444L666 681C666 698 666 705 655 705C651 705 647 705 639 693L589 619C557 651 503 705 404 705C218 705 56 547 56 342ZM816 0C839 1 882 3 918 3C949 3 1001 1 1033 0L1033 31C983 31 958 56 958 82C958 85 959 95 960 97L1006 228L1253 228L1306 75C1307 71 1309 65 1309 61C1309 31 1253 31 1226 31L1226 0C1262 3 1332 3 1370 3C1413 3 1459 2 1501 0L1501 31L1483 31C1423 31 1409 38 1398 71L1182 696C1177 709 1175 716 1159 716C1143 716 1140 710 1135 696L928 98C910 47 870 32 816 31ZM1017 259L1129 584L1242 259ZM1567 13C1567 -4 1567 -11 1578 -11C1583 -11 1584 -10 1603 9C1605 11 1605 13 1623 32C1667 -10 1712 -11 1733 -11C1848 -11 1894 56 1894 128C1894 181 1864 211 1852 223C1819 255 1780 263 1738 271C1682 282 1615 295 1615 353C1615 388 1641 429 1727 429C1837 429 1842 339 1844 308C1845 299 1854 299 1856 299C1869 299 1869 304 1869 323L1869 424C1869 441 1869 448 1858 448C1853 448 1851 448 1838 436C1835 432 1825 423 1821 420C1783 448 1742 448 1727 448C1605 448 1567 381 1567 325C1567 290 1583 262 1610 240C1642 214 1670 208 1742 194C1764 190 1846 174 1846 102C1846 51 1811 11 1733 11C1649 11 1613 68 1594 153C1591 166 1590 170 1580 170C1567 170 1567 163 1567 145Z" stroke="rgb(0,0,0)" stroke-opacity="1" stroke-width="8" fill="rgb(0,0,0)" fill-opacity="1"></path></g></g></g></g><g transform="matrix(0.9998157121216442,-0.01919744239969049,0.01919744239969049,0.9998157121216442,-7.091417512486743,4.5603061616145055)"><g><g><g transform="matrix(1,0,0,1,185.98499298095703,375.63999938964844)"><path transform="matrix(0.012,0,0,-0.012,0,0)" d="M33 13C33 -4 33 -11 44 -11C49 -11 50 -10 69 9C71 11 71 13 89 32C133 -10 178 -11 199 -11C314 -11 360 56 360 128C360 181 330 211 318 223C285 255 246 263 204 271C148 282 81 295 81 353C81 388 107 429 193 429C303 429 308 339 310 308C311 299 320 299 322 299C335 299 335 304 335 323L335 424C335 441 335 448 324 448C319 448 317 448 304 436C301 432 291 423 287 420C249 448 208 448 193 448C71 448 33 381 33 325C33 290 49 262 76 240C108 214 136 208 208 194C230 190 312 174 312 102C312 51 277 11 199 11C115 11 79 68 60 153C57 166 56 170 46 170C33 170 33 163 33 145ZM412 400C462 400 474 397 486 365L612 11C617 -3 620 -11 633 -11C646 -11 648 -5 653 9L754 292L856 8C860 -3 863 -11 876 -11C889 -11 892 -2 896 8L1013 336C1031 386 1062 399 1097 400L1097 431C1075 429 1046 428 1024 428C995 428 950 430 931 431L931 400C967 399 989 381 989 352C989 346 989 344 984 331L893 75L794 354C790 366 789 368 789 373C789 400 828 400 848 400L848 431C819 430 768 428 744 428C714 428 685 429 655 431L655 400C692 400 708 398 718 385C723 379 734 349 741 330L655 88L560 355C555 367 555 369 555 373C555 400 594 400 614 400L614 431C584 430 528 428 505 428C501 428 448 429 412 431ZM1130 95C1130 14 1227 -11 1290 -11C1356 -11 1402 29 1421 76C1425 36 1452 -6 1499 -6C1520 -6 1581 8 1581 89L1581 145L1556 145L1556 89C1556 31 1531 25 1520 25C1487 25 1483 70 1483 75L1483 275C1483 317 1483 356 1447 393C1408 432 1358 448 1310 448C1228 448 1159 401 1159 335C1159 305 1179 288 1205 288C1233 288 1251 308 1251 334C1251 346 1246 379 1200 380C1227 415 1276 426 1308 426C1357 426 1414 387 1414 298L1414 261C1363 258 1293 255 1230 225C1155 191 1130 139 1130 95ZM1207 96C1207 151 1249 234 1414 240L1414 140C1414 45 1342 11 1297 11C1248 11 1207 46 1207 96ZM1616 0C1655 1 1702 3 1730 3C1770 3 1817 3 1857 0L1857 31L1836 31C1762 31 1760 42 1760 78L1760 232C1760 331 1802 420 1878 420C1885 420 1887 420 1889 419C1886 418 1866 406 1866 380C1866 352 1887 337 1909 337C1927 337 1952 349 1952 381C1952 413 1921 442 1878 442C1805 442 1769 375 1755 332L1755 442L1616 431L1616 400C1686 400 1694 393 1694 344L1694 76C1694 31 1683 31 1616 31ZM2011 0C2046 1 2097 3 2124 3C2150 3 2202 1 2236 0L2236 31C2169 31 2158 31 2158 76L2158 260C2158 364 2229 420 2293 420C2356 420 2367 366 2367 309L2367 76C2367 31 2356 31 2289 31L2289 0C2324 1 2375 3 2402 3C2428 3 2480 1 2514 0L2514 31C2447 31 2436 31 2436 76L2436 260C2436 364 2507 420 2571 420C2634 420 2645 366 2645 309L2645 76C2645 31 2634 31 2567 31L2567 0C2602 1 2653 3 2680 3C2706 3 2758 1 2792 0L2792 31C2740 31 2715 31 2714 61L2714 252C2714 338 2714 369 2683 405C2669 422 2636 442 2578 442C2494 442 2450 382 2433 344C2419 431 2345 442 2300 442C2227 442 2180 399 2152 337L2152 442L2011 431L2011 400C2081 400 2089 393 2089 344L2089 76C2089 31 2078 31 2011 31ZM3220 616C3220 589 3242 563 3273 563C3301 563 3326 584 3326 616C3326 648 3301 669 3273 669C3242 669 3220 642 3220 616ZM3178 0C3210 1 3264 3 3288 3C3323 3 3358 1 3392 0L3392 31C3326 31 3322 36 3322 75L3322 442L3182 431L3182 400C3247 400 3256 394 3256 345L3256 76C3256 31 3245 31 3178 31ZM3454 0C3489 1 3540 3 3567 3C3593 3 3645 1 3679 0L3679 31C3612 31 3601 31 3601 76L3601 260C3601 364 3672 420 3736 420C3799 420 3810 366 3810 309L3810 76C3810 31 3799 31 3732 31L3732 0C3767 1 3818 3 3845 3C3871 3 3923 1 3957 0L3957 31C3905 31 3880 31 3879 61L3879 252C3879 338 3879 369 3848 405C3834 422 3801 442 3743 442C3670 442 3623 399 3595 337L3595 442L3454 431L3454 400C3524 400 3532 393 3532 344L3532 76C3532 31 3521 31 3454 31ZM3968 400L4053 400L4053 124C4053 1 4146 -11 4182 -11C4253 -11 4281 60 4281 124L4281 181L4256 181L4256 126C4256 52 4226 14 4189 14C4122 14 4122 105 4122 122L4122 400L4265 400L4265 431L4122 431L4122 615L4097 615C4096 533 4066 426 3968 422ZM4365 220C4365 86 4470 -11 4585 -11C4707 -11 4752 100 4752 119C4752 129 4744 131 4739 131C4730 131 4728 125 4726 117C4691 14 4601 14 4591 14C4541 14 4501 44 4478 81C4448 129 4448 195 4448 231L4727 231C4749 231 4752 231 4752 252C4752 351 4698 448 4573 448C4457 448 4365 345 4365 220ZM4449 252C4455 401 4539 426 4573 426C4676 426 4686 291 4686 252ZM4814 0C4847 1 4900 3 4925 3C4950 3 4999 1 5036 0L5036 31C4969 31 4958 31 4958 76L4958 694L4814 683L4814 652C4884 652 4892 645 4892 596L4892 76C4892 31 4881 31 4814 31ZM5091 0C5124 1 5177 3 5202 3C5227 3 5276 1 5313 0L5313 31C5246 31 5235 31 5235 76L5235 694L5091 683L5091 652C5161 652 5169 645 5169 596L5169 76C5169 31 5158 31 5091 31ZM5410 616C5410 589 5432 563 5463 563C5491 563 5516 584 5516 616C5516 648 5491 669 5463 669C5432 669 5410 642 5410 616ZM5368 0C5400 1 5454 3 5478 3C5513 3 5548 1 5582 0L5582 31C5516 31 5512 36 5512 75L5512 442L5372 431L5372 400C5437 400 5446 394 5446 345L5446 76C5446 31 5435 31 5368 31ZM5640 -79C5640 -151 5739 -206 5861 -206C5979 -206 6083 -155 6083 -77C6083 -42 6069 9 6018 37C5965 65 5907 65 5846 65C5821 65 5778 65 5771 66C5739 70 5718 101 5718 133C5718 137 5718 160 5735 180C5774 152 5815 149 5834 149C5927 149 5996 218 5996 295C5996 332 5980 369 5955 392C5991 426 6027 431 6045 431C6047 431 6052 431 6055 430C6044 426 6039 415 6039 403C6039 386 6052 374 6068 374C6078 374 6097 381 6097 404C6097 421 6085 453 6046 453C6026 453 5982 447 5940 406C5898 439 5856 442 5834 442C5741 442 5672 373 5672 296C5672 252 5694 214 5719 193C5706 178 5688 145 5688 110C5688 79 5701 41 5732 21C5672 4 5640 -39 5640 -79ZM5692 -79C5692 -33 5730 4 5774 7L5833 7C5919 7 6031 7 6031 -79C6031 -133 5960 -183 5862 -183C5761 -183 5692 -132 5692 -79ZM5747 295C5747 322 5748 354 5763 379C5771 391 5794 419 5834 419C5921 419 5921 319 5921 296C5921 269 5920 237 5905 212C5897 200 5874 172 5834 172C5747 172 5747 272 5747 295ZM6140 220C6140 86 6245 -11 6360 -11C6482 -11 6527 100 6527 119C6527 129 6519 131 6514 131C6505 131 6503 125 6501 117C6466 14 6376 14 6366 14C6316 14 6276 44 6253 81C6223 129 6223 195 6223 231L6502 231C6524 231 6527 231 6527 252C6527 351 6473 448 6348 448C6232 448 6140 345 6140 220ZM6224 252C6230 401 6314 426 6348 426C6451 426 6461 291 6461 252ZM6588 0C6623 1 6674 3 6701 3C6727 3 6779 1 6813 0L6813 31C6746 31 6735 31 6735 76L6735 260C6735 364 6806 420 6870 420C6933 420 6944 366 6944 309L6944 76C6944 31 6933 31 6866 31L6866 0C6901 1 6952 3 6979 3C7005 3 7057 1 7091 0L7091 31C7039 31 7014 31 7013 61L7013 252C7013 338 7013 369 6982 405C6968 422 6935 442 6877 442C6804 442 6757 399 6729 337L6729 442L6588 431L6588 400C6658 400 6666 393 6666 344L6666 76C6666 31 6655 31 6588 31ZM7145 216C7145 88 7244 -11 7360 -11C7494 -11 7526 109 7526 119C7526 129 7516 129 7513 129C7504 129 7502 125 7500 119C7471 26 7406 14 7369 14C7316 14 7228 57 7228 218C7228 381 7310 423 7363 423C7372 423 7435 422 7470 386C7429 383 7423 353 7423 340C7423 314 7441 294 7469 294C7495 294 7515 311 7515 341C7515 409 7439 448 7362 448C7237 448 7145 340 7145 216ZM7583 220C7583 86 7688 -11 7803 -11C7925 -11 7970 100 7970 119C7970 129 7962 131 7957 131C7948 131 7946 125 7944 117C7909 14 7819 14 7809 14C7759 14 7719 44 7696 81C7666 129 7666 195 7666 231L7945 231C7967 231 7970 231 7970 252C7970 351 7916 448 7791 448C7675 448 7583 345 7583 220ZM7667 252C7673 401 7757 426 7791 426C7894 426 7904 291 7904 252Z" stroke="rgb(0,0,0)" stroke-opacity="1" stroke-width="8" fill="rgb(0,0,0)" fill-opacity="1"></path></g></g></g></g><g><g><g><g transform="matrix(1,0,0,1,154.99999237060547,298.12998962402344)"><path transform="matrix(0.0075,0,0,-0.0075,0,0)" d="M35 0C70 3 144 3 182 3C220 3 295 3 330 0L330 31L306 31C229 31 227 42 227 78L227 316L396 316C516 316 624 397 624 497C624 595 525 683 388 683L35 683L35 652L59 652C136 652 138 641 138 605L138 78C138 42 136 31 59 31L35 31ZM224 342L224 612C224 645 226 652 273 652L362 652C521 652 521 546 521 497C521 450 521 342 362 342ZM736 342C736 135 898 -22 1084 -22C1247 -22 1345 117 1345 233C1345 243 1345 250 1332 250C1321 250 1321 244 1320 234C1312 91 1205 9 1096 9C1035 9 839 43 839 341C839 640 1034 674 1095 674C1204 674 1293 583 1313 437C1315 423 1315 420 1329 420C1345 420 1345 423 1345 444L1345 681C1345 698 1345 705 1334 705C1330 705 1326 705 1318 693L1268 619C1231 655 1180 705 1084 705C897 705 736 546 736 342ZM1434 0C1457 1 1500 3 1536 3C1567 3 1619 1 1651 0L1651 31C1601 31 1576 56 1576 82C1576 85 1577 95 1578 97L1624 228L1871 228L1924 75C1925 71 1927 65 1927 61C1927 31 1871 31 1844 31L1844 0C1880 3 1950 3 1988 3C2031 3 2077 2 2119 0L2119 31L2101 31C2041 31 2027 38 2016 71L1800 696C1795 709 1793 716 1777 716C1761 716 1758 710 1753 696L1546 98C1528 47 1488 32 1434 31ZM1635 259L1747 584L1860 259ZM2238 53C2238 27 2255 0 2291 0C2307 0 2319 6 2329 14L2331 16C2332 16 2333 15 2333 1C2333 -63 2305 -124 2261 -171C2255 -177 2254 -178 2254 -182C2254 -189 2259 -193 2264 -193C2276 -193 2355 -114 2355 1C2355 65 2331 106 2291 106C2256 106 2238 79 2238 53ZM2781 400L2866 400L2866 124C2866 1 2959 -11 2995 -11C3066 -11 3094 60 3094 124L3094 181L3069 181L3069 126C3069 52 3039 14 3002 14C2935 14 2935 105 2935 122L2935 400L3078 400L3078 431L2935 431L2935 615L2910 615C2909 533 2879 426 2781 422ZM3160 186L3426 186L3426 245L3160 245ZM3539 2C3539 -15 3539 -22 3550 -22C3557 -22 3558 -20 3565 -9C3565 -8 3568 -5 3601 48C3632 14 3696 -22 3785 -22C3902 -22 3982 76 3982 186C3982 286 3916 368 3832 388L3704 419C3642 434 3603 488 3603 546C3603 616 3657 677 3735 677C3902 677 3924 513 3930 468C3931 462 3931 456 3942 456C3955 456 3955 461 3955 480L3955 681C3955 698 3955 705 3944 705C3937 705 3936 704 3929 692L3894 635C3864 664 3823 705 3734 705C3623 705 3539 617 3539 511C3539 428 3592 355 3670 328C3681 324 3732 312 3802 295C3829 288 3859 281 3887 244C3908 218 3918 185 3918 152C3918 81 3868 9 3784 9C3755 9 3679 14 3626 63C3568 117 3565 181 3564 217C3563 227 3555 227 3552 227C3539 227 3539 220 3539 202ZM4071 0C4106 1 4155 3 4188 3C4221 3 4270 1 4305 0L4305 31C4202 31 4202 78 4202 105L4202 625C4207 620 4208 619 4212 613L4620 13C4629 1 4630 0 4637 0C4651 0 4651 7 4651 26L4651 578C4651 605 4651 652 4754 652L4754 683C4719 682 4670 680 4637 680C4604 680 4555 682 4520 683L4520 652C4623 652 4623 605 4623 578L4623 151L4270 670C4261 682 4260 683 4241 683L4071 683L4071 652L4100 652C4115 652 4135 651 4150 650C4173 647 4174 646 4174 627L4174 105C4174 78 4174 31 4071 31ZM4821 0L5398 0L5440 258L5415 258C5390 104 5367 31 5195 31L5062 31C5015 31 5013 38 5013 71L5013 338L5103 338C5200 338 5211 306 5211 221L5236 221L5236 486L5211 486C5211 400 5200 369 5103 369L5013 369L5013 609C5013 642 5015 649 5062 649L5191 649C5344 649 5371 594 5387 455L5412 455L5384 680L4821 680L4821 649L4845 649C4922 649 4924 638 4924 602L4924 78C4924 42 4922 31 4845 31L4821 31Z" stroke="rgb(0,0,0)" stroke-opacity="1" stroke-width="8" fill="rgb(0,0,0)" fill-opacity="1"></path></g></g></g></g><g><g><g><g transform="matrix(1,0,0,1,394.99500274658203,161.27000427246094)"><path transform="matrix(0.018,0,0,-0.018,0,0)" d="M32 0C55 1 98 3 134 3C165 3 217 1 249 0L249 31C199 31 174 56 174 82C174 85 175 95 176 97L222 228L469 228L522 75C523 71 525 65 525 61C525 31 469 31 442 31L442 0C478 3 548 3 586 3C629 3 675 2 717 0L717 31L699 31C639 31 625 38 614 71L398 696C393 709 391 716 375 716C359 716 356 710 351 696L144 98C126 47 86 32 32 31ZM233 259L345 584L458 259ZM783 0C818 1 867 3 900 3C933 3 982 1 1017 0L1017 31C914 31 914 78 914 105L914 625C919 620 920 619 924 613L1332 13C1341 1 1342 0 1349 0C1363 0 1363 7 1363 26L1363 578C1363 605 1363 652 1466 652L1466 683C1431 682 1382 680 1349 680C1316 680 1267 682 1232 683L1232 652C1335 652 1335 605 1335 578L1335 151L982 670C973 682 972 683 953 683L783 683L783 652L812 652C827 652 847 651 862 650C885 647 886 646 886 627L886 105C886 78 886 31 783 31ZM1533 0C1568 1 1617 3 1650 3C1683 3 1732 1 1767 0L1767 31C1664 31 1664 78 1664 105L1664 625C1669 620 1670 619 1674 613L2082 13C2091 1 2092 0 2099 0C2113 0 2113 7 2113 26L2113 578C2113 605 2113 652 2216 652L2216 683C2181 682 2132 680 2099 680C2066 680 2017 682 1982 683L1982 652C2085 652 2085 605 2085 578L2085 151L1732 670C1723 682 1722 683 1703 683L1533 683L1533 652L1562 652C1577 652 1597 651 1612 650C1635 647 1636 646 1636 627L1636 105C1636 78 1636 31 1533 31ZM2306 2C2306 -15 2306 -22 2317 -22C2324 -22 2325 -20 2332 -9C2332 -8 2335 -5 2368 48C2399 14 2463 -22 2552 -22C2669 -22 2749 76 2749 186C2749 286 2683 368 2599 388L2471 419C2409 434 2370 488 2370 546C2370 616 2424 677 2502 677C2669 677 2691 513 2697 468C2698 462 2698 456 2709 456C2722 456 2722 461 2722 480L2722 681C2722 698 2722 705 2711 705C2704 705 2703 704 2696 692L2661 635C2631 664 2590 705 2501 705C2390 705 2306 617 2306 511C2306 428 2359 355 2437 328C2448 324 2499 312 2569 295C2596 288 2626 281 2654 244C2675 218 2685 185 2685 152C2685 81 2635 9 2551 9C2522 9 2446 14 2393 63C2335 117 2332 181 2331 217C2330 227 2322 227 2319 227C2306 227 2306 220 2306 202Z" stroke="rgb(0,0,0)" stroke-opacity="1" stroke-width="8" fill="rgb(0,0,0)" fill-opacity="1"></path></g></g></g></g><g><g><g><g transform="matrix(1,0,0,1,375.99500274658203,192.27000427246094)"><path transform="matrix(0.015,0,0,-0.015,0,0)" d="M56 2C56 -15 56 -22 67 -22C74 -22 75 -20 82 -9C82 -8 85 -5 118 48C149 14 213 -22 302 -22C419 -22 499 76 499 186C499 286 433 368 349 388L221 419C159 434 120 488 120 546C120 616 174 677 252 677C419 677 441 513 447 468C448 462 448 456 459 456C472 456 472 461 472 480L472 681C472 698 472 705 461 705C454 705 453 704 446 692L411 635C381 664 340 705 251 705C140 705 56 617 56 511C56 428 109 355 187 328C198 324 249 312 319 295C346 288 376 281 404 244C425 218 435 185 435 152C435 81 385 9 301 9C272 9 196 14 143 63C85 117 82 181 81 217C80 227 72 227 69 227C56 227 56 220 56 202ZM611 339C611 134 765 -22 943 -22C1125 -22 1276 137 1276 339C1276 543 1125 705 943 705C764 705 611 545 611 339ZM714 353C714 612 860 680 943 680C1030 680 1173 609 1173 353C1173 88 1036 4 944 4C848 4 714 92 714 353ZM1369 0C1404 1 1453 3 1486 3C1519 3 1568 1 1603 0L1603 31C1500 31 1500 78 1500 105L1500 644L1501 644L1742 22C1747 9 1752 0 1762 0C1773 0 1776 8 1780 19L2026 652L2027 652L2027 78C2027 42 2025 31 1948 31L1924 31L1924 0C1961 3 2029 3 2068 3C2107 3 2174 3 2211 0L2211 31L2187 31C2110 31 2108 42 2108 78L2108 605C2108 641 2110 652 2187 652L2211 652L2211 683L2042 683C2016 683 2016 682 2009 664L1790 101L1573 661C1564 683 1561 683 1538 683L1369 683L1369 652L1393 652C1470 652 1472 641 1472 605L1472 105C1472 78 1472 31 1369 31Z" stroke="rgb(0,0,0)" stroke-opacity="1" stroke-width="8" fill="rgb(0,0,0)" fill-opacity="1"></path></g></g></g></g><g><g><g><g transform="matrix(1,0,0,1,442.99500274658203,193.27000427246094)"><path transform="matrix(0.015,0,0,-0.015,0,0)" d="M37 0C72 1 121 3 154 3C187 3 236 1 271 0L271 31C168 31 168 78 168 105L168 644L169 644L410 22C415 9 420 0 430 0C441 0 444 8 448 19L694 652L695 652L695 78C695 42 693 31 616 31L592 31L592 0C629 3 697 3 736 3C775 3 842 3 879 0L879 31L855 31C778 31 776 42 776 78L776 605C776 641 778 652 855 652L879 652L879 683L710 683C684 683 684 682 677 664L458 101L241 661C232 683 229 683 206 683L37 683L37 652L61 652C138 652 140 641 140 605L140 105C140 78 140 31 37 31ZM949 0L1470 0L1498 258L1473 258C1462 156 1448 31 1272 31L1190 31C1143 31 1141 38 1141 71L1141 604C1141 638 1141 652 1236 652L1269 652L1269 683C1233 680 1142 680 1101 680C1062 680 984 680 949 683L949 652L973 652C1050 652 1052 641 1052 605L1052 78C1052 42 1050 31 973 31L949 31ZM1576 0C1611 3 1685 3 1723 3C1761 3 1836 3 1871 0L1871 31L1847 31C1770 31 1768 42 1768 78L1768 316L1937 316C2057 316 2165 397 2165 497C2165 595 2066 683 1929 683L1576 683L1576 652L1600 652C1677 652 1679 641 1679 605L1679 78C1679 42 1677 31 1600 31L1576 31ZM1765 342L1765 612C1765 645 1767 652 1814 652L1903 652C2062 652 2062 546 2062 497C2062 450 2062 342 1903 342Z" stroke="rgb(0,0,0)" stroke-opacity="1" stroke-width="8" fill="rgb(0,0,0)" fill-opacity="1"></path></g></g></g></g><g><g><g><g transform="matrix(1,0,0,1,535.995002746582,195.8599884033203)"><path transform="matrix(0.02595,0,0,-0.02595,0,0)" d="M100 0L178 0L178 624C187 580 211 517 250 411L400 22L472 22L626 423L686 587L696 624L697 592L697 0L775 0L775 694L660 694L506 292C457 164 441 114 438 92L437 92C433 115 409 182 368 293L214 694L100 694ZM919 113C919 67 949 -11 1033 -11C1143 -11 1198 34 1199 35L1199 0L1275 0L1275 305C1270 389 1204 461 1109 461C1046 461 1000 445 952 417L958 350C991 373 1033 401 1108 401C1121 401 1147 400 1171 371C1196 341 1196 307 1197 279L1197 245C1094 244 919 219 919 113ZM992 114C992 177 1125 192 1197 193L1197 130C1197 65 1128 51 1085 51C1031 51 992 78 992 114ZM1390 223C1390 95 1484 -11 1607 -11C1676 -11 1725 11 1770 40L1765 107C1733 85 1686 53 1608 53C1524 53 1468 126 1468 223C1468 310 1512 397 1609 397C1688 397 1714 376 1753 351L1765 417C1704 452 1672 461 1610 461C1470 461 1390 339 1390 223ZM1879 0L1957 0L1957 240C1957 314 1982 394 2059 394C2157 394 2157 319 2157 281L2157 0L2235 0L2235 288C2235 349 2231 455 2098 455C2029 455 1986 422 1954 384L1954 722L1879 722ZM2397 0L2472 0L2472 445L2397 445ZM2390 590L2480 590L2480 679L2390 679ZM2635 0L2713 0L2713 240C2713 314 2738 394 2815 394C2913 394 2913 319 2913 281L2913 0L2991 0L2991 288C2991 358 2982 455 2854 455C2766 455 2722 398 2708 380L2708 450L2635 450ZM3106 226C3106 102 3193 -11 3324 -11C3387 -11 3439 11 3482 40L3476 106C3432 74 3387 51 3324 51C3248 51 3180 117 3176 220L3486 220L3486 249C3477 420 3379 461 3308 461C3202 461 3106 360 3106 226ZM3181 275C3192 324 3232 399 3308 399C3337 399 3412 386 3429 275Z" stroke="rgb(208,2,27)" stroke-opacity="1" stroke-width="8" fill="rgb(208,2,27)" fill-opacity="1"></path></g></g></g><g><g><g transform="matrix(1,0,0,1,535.995002746582,232.9799835205078)"><path transform="matrix(0.02595,0,0,-0.02595,0,0)" d="M94 0L499 0L499 66L379 65L184 65L184 694L94 694ZM576 226C576 102 663 -11 794 -11C857 -11 909 11 952 40L946 106C902 74 857 51 794 51C718 51 650 117 646 220L956 220L956 249C947 420 849 461 778 461C672 461 576 360 576 226ZM651 275C662 324 702 399 778 399C807 399 882 386 899 275ZM1030 113C1030 67 1060 -11 1144 -11C1254 -11 1309 34 1310 35L1310 0L1386 0L1386 305C1381 389 1315 461 1220 461C1157 461 1111 445 1063 417L1069 350C1102 373 1144 401 1219 401C1232 401 1258 400 1282 371C1307 341 1307 307 1308 279L1308 245C1205 244 1030 219 1030 113ZM1103 114C1103 177 1236 192 1308 193L1308 130C1308 65 1239 51 1196 51C1142 51 1103 78 1103 114ZM1519 0L1594 0L1594 206C1594 352 1705 386 1764 388L1764 455C1658 453 1605 385 1589 360L1589 450L1519 450ZM1860 0L1938 0L1938 240C1938 314 1963 394 2040 394C2138 394 2138 319 2138 281L2138 0L2216 0L2216 288C2216 358 2207 455 2079 455C1991 455 1947 398 1933 380L1933 450L1860 450ZM2378 0L2453 0L2453 445L2378 445ZM2371 590L2461 590L2461 679L2371 679ZM2616 0L2694 0L2694 240C2694 314 2719 394 2796 394C2894 394 2894 319 2894 281L2894 0L2972 0L2972 288C2972 358 2963 455 2835 455C2747 455 2703 398 2689 380L2689 450L2616 450ZM3080 -71C3080 -148 3179 -206 3302 -206C3424 -206 3524 -148 3524 -70C3524 -58 3522 -45 3519 -33C3491 67 3369 69 3303 69L3228 69C3180 69 3172 103 3172 122C3172 129 3173 139 3183 159C3205 145 3230 129 3274 129C3367 129 3434 207 3434 292C3434 335 3421 364 3395 399L3404 391C3422 392 3453 395 3479 395C3499 395 3518 394 3538 392L3527 455C3473 455 3420 445 3370 424L3372 422C3339 445 3311 455 3274 455C3192 455 3115 389 3115 292C3115 272 3118 232 3148 193L3148 192C3130 168 3119 141 3119 108C3119 76 3128 55 3144 32C3105 9 3080 -30 3080 -71ZM3150 -71C3150 -42 3172 -8 3213 -4L3242 -3L3305 -3C3413 -3 3454 -31 3454 -72C3454 -118 3382 -149 3301 -149C3246 -149 3150 -127 3150 -71ZM3185 292C3185 377 3238 398 3274 398C3328 398 3364 358 3364 293C3364 208 3311 187 3275 187C3221 187 3185 227 3185 292Z" stroke="rgb(208,2,27)" stroke-opacity="1" stroke-width="8" fill="rgb(208,2,27)" fill-opacity="1"></path></g></g></g></g></svg>
</svg>
