<svg xmlns="http://www.w3.org/2000/svg" xmlns:xlink="http://www.w3.org/1999/xlink" x="0" y="0" width="662" height="475" style="
        width:662px;
        height:475px;
        background: transparent;
        fill: none;
">
        
        
        <svg xmlns="http://www.w3.org/2000/svg" class="role-diagram-draw-area"><g class="shapes-region" style="stroke: black; fill: none;"><g class="composite-shape"><path class="real" d=" M157,99 L227,99 L227,108.52 L157,108.52 Z" style="stroke-width: 1; stroke: rgb(0, 0, 0); fill: none; fill-opacity: 1;"/></g><g class="composite-shape"><path class="real" d=" M157,116 L227,116 L227,125.52 L157,125.52 Z" style="stroke-width: 1; stroke: rgb(0, 0, 0); fill: none; fill-opacity: 1;"/></g><g class="composite-shape"><path class="real" d=" M157,178 L227,178 L227,187.52 L157,187.52 Z" style="stroke-width: 1; stroke: rgb(0, 0, 0); fill: none; fill-opacity: 1;"/></g><g class="arrow-line"><path class="connection real" stroke-dasharray="" d="  M107.5,147 L144,147" style="stroke: rgb(0, 0, 0); stroke-width: 1; fill: none; fill-opacity: 1;"/><g stroke="none" transform="matrix(-1,1.2246467991473532e-16,-1.2246467991473532e-16,-1,146.99999999999997,147.00000000000003)" style="stroke: none; stroke-width: 1; fill: rgb(0, 0, 0);" fill="#000"><path d=" M8.93,-4.29 L0,0 L8.93,4.29 Z"/></g></g><g class="arrow-line"><path class="connection real" stroke-dasharray="" d="  M243.5,146 L285.5,146" style="stroke: rgb(0, 0, 0); stroke-width: 1; fill: none; fill-opacity: 1;"/><g stroke="none" fill="#000" transform="matrix(-1,1.2246467991473532e-16,-1.2246467991473532e-16,-1,288.5,146.00000000000003)" style="stroke: none; fill: rgb(0, 0, 0); stroke-width: 1;"><path d=" M8.93,-4.29 L0,0 L8.93,4.29 Z"/></g></g><g class="composite-shape"><path class="real" d=" M300,88 L313.5,88 L313.5,194.52 L300,194.52 Z" style="stroke-width: 1; stroke: rgb(0, 0, 0); fill: none; fill-opacity: 1;"/></g><g class="arrow-line"><path class="connection real" stroke-dasharray="" d="  M323.5,149 L383.5,149" style="stroke: rgb(0, 0, 0); stroke-width: 1; fill: none; fill-opacity: 1;"/><g stroke="none" fill="#000" transform="matrix(-1,1.2246467991473532e-16,-1.2246467991473532e-16,-1,386.5,149)" style="stroke: none; fill: rgb(0, 0, 0); stroke-width: 1;"><path d=" M8.93,-4.29 L0,0 L8.93,4.29 Z"/></g></g><g class="composite-shape"><path class="real" d=" M394.5,117 L401.5,117 L401.5,179.52 L394.5,179.52 Z" style="stroke-width: 1; stroke: rgb(0, 0, 0); fill: none; fill-opacity: 1;"/></g><g class="arrow-line"><path class="connection real" stroke-dasharray="" d="  M412.5,154 L472.5,154" style="stroke: rgb(0, 0, 0); stroke-width: 1; fill: none; fill-opacity: 1;"/><g stroke="none" fill="#000" transform="matrix(-1,1.2246467991473532e-16,-1.2246467991473532e-16,-1,475.5,154)" style="stroke: none; fill: rgb(0, 0, 0); stroke-width: 1;"><path d=" M8.93,-4.29 L0,0 L8.93,4.29 Z"/></g></g><g class="composite-shape"><path class="real" d=" M508.5,165.52 C506.06,163.08 501.71,163.92 498.5,163.52 C482.28,161.49 468.38,162.99 451.5,163.52 C437.41,163.96 425.77,157.25 416.5,166.52 C388.96,194.06 393.84,244.99 352.5,261.52 C317.22,275.63 277.7,258.8 244.5,245.52 C239.77,243.63 234.45,243.76 229.5,242.52 C221.63,240.55 214.35,236.59 206.5,234.52 C195.41,231.6 185.35,229.49 174.5,227.52 C159.68,224.83 141.32,205.9 137.5,192.52 C135.06,183.97 135.06,174.47 132.5,165.52 C128.59,151.84 122.66,136.28 124.5,121.52 C126.28,107.26 129.5,104.42 138.5,94.52 C167.12,63.04 212.12,73.09 252.5,73.52 C277.55,73.79 302.52,75.43 327.5,76.52 C370.78,78.4 417.27,77.85 459.5,90.52 C489,99.37 515.84,109.68 531.5,137.52 C537.26,147.76 527.38,160.23 520.5,162.52 C517.8,163.42 515.94,165.03 513.5,165.52 C512.52,165.72 509.5,165.52 510.5,165.52" style="stroke-width: 3; stroke: rgb(0, 0, 0); stroke-opacity: 1; stroke-linejoin: round; stroke-linecap: round;"/></g><g/></g><g/><g/><g/></svg>
        <svg xmlns="http://www.w3.org/2000/svg" xmlns:xlink="http://www.w3.org/1999/xlink" width="660" height="473" style="width:660px;height:473px;font-family:Asana-Math, Asana;background:transparent;"><g><g><g><g transform="matrix(1,0,0,1,67,152.27000427246094)"><path transform="matrix(0.015,0,0,-0.015,0,0)" d="M95 0L343 0C359 0 375 0 391 2C532 18 666 149 666 342C666 462 612 582 513 647C449 689 395 694 341 694L95 694ZM182 56L182 638L325 638C493 638 579 502 579 341C579 272 562 203 520 148C451 57 357 56 325 56ZM766 113C766 67 796 -11 880 -11C990 -11 1045 34 1046 35L1046 0L1122 0L1122 305C1117 389 1051 461 956 461C893 461 847 445 799 417L805 350C838 373 880 401 955 401C968 401 994 400 1018 371C1043 341 1043 307 1044 279L1044 245C941 244 766 219 766 113ZM839 114C839 177 972 192 1044 193L1044 130C1044 65 975 51 932 51C878 51 839 78 839 114ZM1220 386L1304 386L1304 117C1304 7 1353 -11 1386 -11C1431 -11 1482 -1 1534 27L1518 86C1504 76 1473 53 1430 53C1378 53 1376 112 1376 140L1376 386L1517 386L1517 445L1376 445L1376 571L1306 571L1306 445L1220 445ZM1607 113C1607 67 1637 -11 1721 -11C1831 -11 1886 34 1887 35L1887 0L1963 0L1963 305C1958 389 1892 461 1797 461C1734 461 1688 445 1640 417L1646 350C1679 373 1721 401 1796 401C1809 401 1835 400 1859 371C1884 341 1884 307 1885 279L1885 245C1782 244 1607 219 1607 113ZM1680 114C1680 177 1813 192 1885 193L1885 130C1885 65 1816 51 1773 51C1719 51 1680 78 1680 114Z" stroke="rgb(0,0,0)" stroke-opacity="1" stroke-width="8" fill="rgb(0,0,0)" fill-opacity="1"></path></g></g></g></g><g><g><g><g><g><g><g transform="matrix(1,0,0,1,189.10000610351562,155.34999084472656)"><path transform="matrix(0.017,0,0,-0.017,0,0)" d="M124 674C94 674 67 646 67 616C67 586 94 558 123 558C155 558 183 585 183 616C183 646 155 674 124 674ZM124 329C94 329 67 301 67 271C67 241 94 213 123 213C155 213 183 240 183 271C183 301 155 329 124 329ZM124 -26C94 -26 67 -54 67 -84C67 -114 94 -142 123 -142C155 -142 183 -115 183 -84C183 -54 155 -26 124 -26Z" stroke="rgb(0,0,0)" stroke-opacity="1" stroke-width="8" fill="rgb(0,0,0)" fill-opacity="1"></path></g></g></g></g></g></g></g><g><g><g><g transform="matrix(1,0,0,1,244,136.27000427246094)"><path transform="matrix(0.015,0,0,-0.015,0,0)" d="M34 226C34 102 121 -11 252 -11C315 -11 367 11 410 40L404 106C360 74 315 51 252 51C176 51 108 117 104 220L414 220L414 249C405 420 307 461 236 461C130 461 34 360 34 226ZM109 275C120 324 160 399 236 399C265 399 340 386 357 275ZM524 0L602 0L602 240C602 314 627 394 704 394C802 394 802 319 802 281L802 0L880 0L880 288C880 358 871 455 743 455C655 455 611 398 597 380L597 450L524 450ZM996 223C996 95 1090 -11 1213 -11C1282 -11 1331 11 1376 40L1371 107C1339 85 1292 53 1214 53C1130 53 1074 126 1074 223C1074 310 1118 397 1215 397C1294 397 1320 376 1359 351L1371 417C1310 452 1278 461 1216 461C1076 461 996 339 996 223ZM1435 221C1435 85 1540 -11 1654 -11C1768 -11 1874 84 1874 220C1874 345 1782 461 1654 461C1536 461 1435 357 1435 221ZM1513 231C1513 352 1590 399 1654 399C1718 399 1795 353 1795 231C1795 106 1721 53 1654 53C1588 53 1513 105 1513 231ZM1968 221C1968 102 2038 -11 2140 -11C2206 -11 2254 19 2288 52L2288 0L2367 0L2367 722L2291 722L2291 401C2256 429 2209 456 2146 456C2047 456 1968 353 1968 221ZM2046 222C2046 353 2133 394 2191 394L2193 394C2204 394 2236 393 2267 364C2285 347 2288 341 2288 325L2288 134C2288 103 2241 51 2181 51C2127 51 2046 90 2046 222ZM2484 226C2484 102 2571 -11 2702 -11C2765 -11 2817 11 2860 40L2854 106C2810 74 2765 51 2702 51C2626 51 2558 117 2554 220L2864 220L2864 249C2855 420 2757 461 2686 461C2580 461 2484 360 2484 226ZM2559 275C2570 324 2610 399 2686 399C2715 399 2790 386 2807 275Z" stroke="rgb(0,0,0)" stroke-opacity="1" stroke-width="8" fill="rgb(0,0,0)" fill-opacity="1"></path></g></g></g></g><g><g><g><g transform="matrix(1,0,0,1,246,169.27000427246094)"><path transform="matrix(0.015,0,0,-0.015,0,0)" d="M94 0L184 0L184 315L485 315L485 376L184 376L184 627L216 626L448 626L472 625L527 625L527 691L94 691ZM650 0L725 0L725 445L650 445ZM643 590L733 590L733 679L643 679ZM835 34C910 -7 971 -11 1005 -11C1139 -11 1168 72 1168 127C1168 192 1122 234 1081 252C1019 280 912 267 912 340C912 365 927 401 996 401C1068 401 1100 383 1140 364L1151 430C1096 453 1061 461 1005 461C869 461 841 382 841 329C841 259 901 220 945 206C976 196 1019 191 1041 184C1061 178 1097 158 1097 120C1097 93 1079 52 1004 52C923 52 875 86 847 102ZM1271 0L1349 0L1349 240C1349 314 1374 394 1451 394C1549 394 1549 319 1549 281L1549 0L1627 0L1627 288C1627 349 1623 455 1490 455C1421 455 1378 422 1346 384L1346 722L1271 722ZM1742 226C1742 102 1829 -11 1960 -11C2023 -11 2075 11 2118 40L2112 106C2068 74 2023 51 1960 51C1884 51 1816 117 1812 220L2122 220L2122 249C2113 420 2015 461 1944 461C1838 461 1742 360 1742 226ZM1817 275C1828 324 1868 399 1944 399C1973 399 2048 386 2065 275ZM2233 0L2308 0L2308 206C2308 352 2419 386 2478 388L2478 455C2372 453 2319 385 2303 360L2303 450L2233 450Z" stroke="rgb(208,2,27)" stroke-opacity="1" stroke-width="8" fill="rgb(208,2,27)" fill-opacity="1"></path></g></g></g><g><g><g transform="matrix(1,0,0,1,246,190.38999938964844)"><path transform="matrix(0.015,0,0,-0.015,0,0)" d="M14 694L287 0L379 0L652 694L574 694L419 295C363 150 345 95 341 70C330 117 311 163 260 300L107 694ZM673 226C673 102 760 -11 891 -11C954 -11 1006 11 1049 40L1043 106C999 74 954 51 891 51C815 51 747 117 743 220L1053 220L1053 249C1044 420 946 461 875 461C769 461 673 360 673 226ZM748 275C759 324 799 399 875 399C904 399 979 386 996 275ZM1118 223C1118 95 1212 -11 1335 -11C1404 -11 1453 11 1498 40L1493 107C1461 85 1414 53 1336 53C1252 53 1196 126 1196 223C1196 310 1240 397 1337 397C1416 397 1442 376 1481 351L1493 417C1432 452 1400 461 1338 461C1198 461 1118 339 1118 223ZM1545 386L1629 386L1629 117C1629 7 1678 -11 1711 -11C1756 -11 1807 -1 1859 27L1843 86C1829 76 1798 53 1755 53C1703 53 1701 112 1701 140L1701 386L1842 386L1842 445L1701 445L1701 571L1631 571L1631 445L1545 445ZM1918 221C1918 85 2023 -11 2137 -11C2251 -11 2357 84 2357 220C2357 345 2265 461 2137 461C2019 461 1918 357 1918 221ZM1996 231C1996 352 2073 399 2137 399C2201 399 2278 353 2278 231C2278 106 2204 53 2137 53C2071 53 1996 105 1996 231ZM2441 0L2516 0L2516 206C2516 352 2627 386 2686 388L2686 455C2580 453 2527 385 2511 360L2511 450L2441 450Z" stroke="rgb(208,2,27)" stroke-opacity="1" stroke-width="8" fill="rgb(208,2,27)" fill-opacity="1"></path></g></g></g></g><g><g><g><g transform="matrix(1,0,0,1,324,139.27000427246094)"><path transform="matrix(0.015,0,0,-0.015,0,0)" d="M81 0L156 0L156 206C156 352 267 386 326 388L326 455C220 453 167 385 151 360L151 450L81 450ZM376 226C376 102 463 -11 594 -11C657 -11 709 11 752 40L746 106C702 74 657 51 594 51C518 51 450 117 446 220L756 220L756 249C747 420 649 461 578 461C472 461 376 360 376 226ZM451 275C462 324 502 399 578 399C607 399 682 386 699 275ZM821 221C821 102 891 -11 993 -11C1059 -11 1107 19 1141 52L1141 0L1220 0L1220 722L1144 722L1144 401C1109 429 1062 456 999 456C900 456 821 353 821 221ZM899 222C899 353 986 394 1044 394L1046 394C1057 394 1089 393 1120 364C1138 347 1141 341 1141 325L1141 134C1141 103 1094 51 1034 51C980 51 899 90 899 222ZM1383 122C1383 70 1383 -11 1488 -11C1543 -11 1611 3 1663 48L1663 0L1739 0L1739 445L1661 445L1661 165C1661 155 1661 146 1660 136C1655 93 1616 45 1541 45C1473 45 1462 67 1461 110L1461 445L1383 445ZM1855 223C1855 95 1949 -11 2072 -11C2141 -11 2190 11 2235 40L2230 107C2198 85 2151 53 2073 53C1989 53 1933 126 1933 223C1933 310 1977 397 2074 397C2153 397 2179 376 2218 351L2230 417C2169 452 2137 461 2075 461C1935 461 1855 339 1855 223ZM2282 386L2366 386L2366 117C2366 7 2415 -11 2448 -11C2493 -11 2544 -1 2596 27L2580 86C2566 76 2535 53 2492 53C2440 53 2438 112 2438 140L2438 386L2579 386L2579 445L2438 445L2438 571L2368 571L2368 445L2282 445ZM2706 0L2781 0L2781 445L2706 445ZM2699 590L2789 590L2789 679L2699 679ZM2894 221C2894 85 2999 -11 3113 -11C3227 -11 3333 84 3333 220C3333 345 3241 461 3113 461C2995 461 2894 357 2894 221ZM2972 231C2972 352 3049 399 3113 399C3177 399 3254 353 3254 231C3254 106 3180 53 3113 53C3047 53 2972 105 2972 231ZM3444 0L3522 0L3522 240C3522 314 3547 394 3624 394C3722 394 3722 319 3722 281L3722 0L3800 0L3800 288C3800 358 3791 455 3663 455C3575 455 3531 398 3517 380L3517 450L3444 450Z" stroke="rgb(0,0,0)" stroke-opacity="1" stroke-width="8" fill="rgb(0,0,0)" fill-opacity="1"></path></g></g></g></g><g><g><g><g transform="matrix(1,0,0,1,336,170.27000427246094)"><path transform="matrix(0.015,0,0,-0.015,0,0)" d="M95 0L185 0L185 289L302 289C313 289 324 288 335 288C505 288 582 401 582 493C582 558 546 617 485 655C434 687 385 694 331 694L95 694ZM182 347L182 638L315 638C470 638 501 544 501 493C501 435 463 347 315 347ZM705 347C705 155 836 -22 1033 -22C1117 -22 1157 -9 1227 33L1221 103C1171 71 1137 42 1034 42C897 42 795 178 795 347C795 515 897 652 1031 652C1110 652 1152 629 1201 599L1216 682C1127 715 1082 716 1018 716C875 716 705 574 705 347ZM1305 0L1380 0L1456 204L1746 204L1823 0L1915 0L1655 694L1566 694ZM1477 260C1556 476 1593 587 1601 624C1607 587 1634 512 1725 260Z" stroke="rgb(208,2,27)" stroke-opacity="1" stroke-width="8" fill="rgb(208,2,27)" fill-opacity="1"></path></g></g></g><g><g><g transform="matrix(1,0,0,1,336,191.38999938964844)"><path transform="matrix(0.015,0,0,-0.015,0,0)" d="M94 0L499 0L499 66L379 65L184 65L184 694L94 694ZM637 0L885 0C901 0 917 0 933 2C1074 18 1208 149 1208 342C1208 462 1154 582 1055 647C991 689 937 694 883 694L637 694ZM724 56L724 638L867 638C1035 638 1121 502 1121 341C1121 272 1104 203 1062 148C993 57 899 56 867 56ZM1263 0L1338 0L1414 204L1704 204L1781 0L1873 0L1613 694L1524 694ZM1435 260C1514 476 1551 587 1559 624C1565 587 1592 512 1683 260Z" stroke="rgb(208,2,27)" stroke-opacity="1" stroke-width="8" fill="rgb(208,2,27)" fill-opacity="1"></path></g></g></g><g><g><g transform="matrix(1,0,0,1,336,212.50999450683594)"><path transform="matrix(0.015,0,0,-0.015,0,0)" d="M18 386L102 386L102 117C102 7 151 -11 184 -11C229 -11 280 -1 332 27L316 86C302 76 271 53 228 53C176 53 174 112 174 140L174 386L315 386L315 445L174 445L174 571L104 571L104 445L18 445ZM371 193L637 193L637 252L371 252ZM738 47C801 7 875 -22 967 -22C1104 -22 1193 81 1193 189C1193 289 1123 355 1059 382C1023 397 938 412 909 424C865 442 829 482 829 531C829 590 883 649 974 649C1056 649 1098 621 1144 585L1158 668C1106 696 1056 716 975 716C834 716 749 616 749 519C749 415 832 351 903 332C990 309 1003 308 1027 299C1078 278 1113 232 1113 179C1113 114 1058 47 967 47C868 47 801 92 753 130ZM1344 0L1422 0L1422 624L1461 544L1735 0L1860 0L1860 694L1782 694L1782 70L1743 150L1469 694L1344 694ZM2051 0L2512 0L2512 72L2466 72L2444 71L2250 71L2226 70L2141 70L2141 329L2471 329L2471 390L2141 390L2141 627L2176 626L2416 626L2441 625L2498 625L2498 691L2051 691Z" stroke="rgb(208,2,27)" stroke-opacity="1" stroke-width="8" fill="rgb(208,2,27)" fill-opacity="1"></path></g></g></g></g><g><g><g><g transform="matrix(1,0,0,1,417,144.27000427246094)"><path transform="matrix(0.015,0,0,-0.015,0,0)" d="M35 223C35 95 129 -11 252 -11C321 -11 370 11 415 40L410 107C378 85 331 53 253 53C169 53 113 126 113 223C113 310 157 397 254 397C333 397 359 376 398 351L410 417C349 452 317 461 255 461C115 461 35 339 35 223ZM525 0L600 0L600 722L525 722ZM727 113C727 67 757 -11 841 -11C951 -11 1006 34 1007 35L1007 0L1083 0L1083 305C1078 389 1012 461 917 461C854 461 808 445 760 417L766 350C799 373 841 401 916 401C929 401 955 400 979 371C1004 341 1004 307 1005 279L1005 245C902 244 727 219 727 113ZM800 114C800 177 933 192 1005 193L1005 130C1005 65 936 51 893 51C839 51 800 78 800 114ZM1190 34C1265 -7 1326 -11 1360 -11C1494 -11 1523 72 1523 127C1523 192 1477 234 1436 252C1374 280 1267 267 1267 340C1267 365 1282 401 1351 401C1423 401 1455 383 1495 364L1506 430C1451 453 1416 461 1360 461C1224 461 1196 382 1196 329C1196 259 1256 220 1300 206C1331 196 1374 191 1396 184C1416 178 1452 158 1452 120C1452 93 1434 52 1359 52C1278 52 1230 86 1202 102ZM1573 34C1648 -7 1709 -11 1743 -11C1877 -11 1906 72 1906 127C1906 192 1860 234 1819 252C1757 280 1650 267 1650 340C1650 365 1665 401 1734 401C1806 401 1838 383 1878 364L1889 430C1834 453 1799 461 1743 461C1607 461 1579 382 1579 329C1579 259 1639 220 1683 206C1714 196 1757 191 1779 184C1799 178 1835 158 1835 120C1835 93 1817 52 1742 52C1661 52 1613 86 1585 102ZM2010 0L2085 0L2085 445L2010 445ZM2003 590L2093 590L2093 679L2003 679ZM2195 386L2269 386L2269 0L2344 0L2344 386L2462 386L2462 445L2341 445L2341 581C2341 656 2378 672 2403 672C2428 672 2445 663 2462 654L2462 722C2439 729 2427 733 2403 733C2349 733 2269 686 2269 544L2269 445L2195 445ZM2546 0L2621 0L2621 445L2546 445ZM2542 639L2626 639L2626 723L2542 723ZM2738 226C2738 102 2825 -11 2956 -11C3019 -11 3071 11 3114 40L3108 106C3064 74 3019 51 2956 51C2880 51 2812 117 2808 220L3118 220L3118 249C3109 420 3011 461 2940 461C2834 461 2738 360 2738 226ZM2813 275C2824 324 2864 399 2940 399C2969 399 3044 386 3061 275ZM3229 0L3304 0L3304 206C3304 352 3415 386 3474 388L3474 455C3368 453 3315 385 3299 360L3299 450L3229 450Z" stroke="rgb(0,0,0)" stroke-opacity="1" stroke-width="8" fill="rgb(0,0,0)" fill-opacity="1"></path></g></g></g></g><g><g><g><g transform="matrix(1,0,0,1,419,179.27000427246094)"><path transform="matrix(0.015,0,0,-0.015,0,0)" d="M27 0L102 0L178 204L468 204L545 0L637 0L377 694L288 694ZM199 260C278 476 315 587 323 624C329 587 356 512 447 260ZM762 0L840 0L840 624L879 544L1153 0L1278 0L1278 694L1200 694L1200 70L1161 150L887 694L762 694ZM1470 0L1548 0L1548 624L1587 544L1861 0L1986 0L1986 694L1908 694L1908 70L1869 150L1595 694L1470 694ZM2110 34C2185 -7 2246 -11 2280 -11C2414 -11 2443 72 2443 127C2443 192 2397 234 2356 252C2294 280 2187 267 2187 340C2187 365 2202 401 2271 401C2343 401 2375 383 2415 364L2426 430C2371 453 2336 461 2280 461C2144 461 2116 382 2116 329C2116 259 2176 220 2220 206C2251 196 2294 191 2316 184C2336 178 2372 158 2372 120C2372 93 2354 52 2279 52C2198 52 2150 86 2122 102Z" stroke="rgb(208,2,27)" stroke-opacity="1" stroke-width="8" fill="rgb(208,2,27)" fill-opacity="1"></path></g></g></g><g><g><g transform="matrix(1,0,0,1,419,200.38999938964844)"><path transform="matrix(0.015,0,0,-0.015,0,0)" d="M44 47C107 7 181 -22 273 -22C410 -22 499 81 499 189C499 289 429 355 365 382C329 397 244 412 215 424C171 442 135 482 135 531C135 590 189 649 280 649C362 649 404 621 450 585L464 668C412 696 362 716 281 716C140 716 55 616 55 519C55 415 138 351 209 332C296 309 309 308 333 299C384 278 419 232 419 179C419 114 364 47 273 47C174 47 107 92 59 130ZM569 694L842 0L934 0L1207 694L1129 694L974 295C918 150 900 95 896 70C885 117 866 163 815 300L662 694ZM1322 0L1400 0L1400 624C1409 580 1433 517 1472 411L1622 22L1694 22L1848 423L1908 587L1918 624L1919 592L1919 0L1997 0L1997 694L1882 694L1728 292C1679 164 1663 114 1660 92L1659 92C1655 115 1631 182 1590 293L1436 694L1322 694Z" stroke="rgb(208,2,27)" stroke-opacity="1" stroke-width="8" fill="rgb(208,2,27)" fill-opacity="1"></path></g></g></g><g><g><g transform="matrix(1,0,0,1,419,221.50999450683594)"><path transform="matrix(0.015,0,0,-0.015,0,0)" d="M95 0L181 0L181 228L314 363L557 0L651 0L369 419L369 420L637 694L544 694L181 323L181 694L95 694ZM704 193L970 193L970 252L704 252ZM1107 0L1185 0L1185 240C1185 314 1210 394 1287 394C1385 394 1385 319 1385 281L1385 0L1463 0L1463 240C1463 314 1488 394 1565 394C1663 394 1662 281 1662 281L1662 0L1741 0L1741 288C1741 346 1738 455 1604 455C1513 455 1468 394 1453 374C1439 412 1409 455 1326 455C1238 455 1194 398 1180 380L1180 450L1107 450ZM1855 226C1855 102 1942 -11 2073 -11C2136 -11 2188 11 2231 40L2225 106C2181 74 2136 51 2073 51C1997 51 1929 117 1925 220L2235 220L2235 249C2226 420 2128 461 2057 461C1951 461 1855 360 1855 226ZM1930 275C1941 324 1981 399 2057 399C2086 399 2161 386 2178 275ZM2309 113C2309 67 2339 -11 2423 -11C2533 -11 2588 34 2589 35L2589 0L2665 0L2665 305C2660 389 2594 461 2499 461C2436 461 2390 445 2342 417L2348 350C2381 373 2423 401 2498 401C2511 401 2537 400 2561 371C2586 341 2586 307 2587 279L2587 245C2484 244 2309 219 2309 113ZM2382 114C2382 177 2515 192 2587 193L2587 130C2587 65 2518 51 2475 51C2421 51 2382 78 2382 114ZM2825 0L2903 0L2903 240C2903 314 2928 394 3005 394C3103 394 3103 319 3103 281L3103 0L3181 0L3181 288C3181 358 3172 455 3044 455C2956 455 2912 398 2898 380L2898 450L2825 450ZM3289 34C3364 -7 3425 -11 3459 -11C3593 -11 3622 72 3622 127C3622 192 3576 234 3535 252C3473 280 3366 267 3366 340C3366 365 3381 401 3450 401C3522 401 3554 383 3594 364L3605 430C3550 453 3515 461 3459 461C3323 461 3295 382 3295 329C3295 259 3355 220 3399 206C3430 196 3473 191 3495 184C3515 178 3551 158 3551 120C3551 93 3533 52 3458 52C3377 52 3329 86 3301 102Z" stroke="rgb(208,2,27)" stroke-opacity="1" stroke-width="8" fill="rgb(208,2,27)" fill-opacity="1"></path></g></g></g></g><g><g><g><g transform="matrix(1,0,0,1,274,285.27000427246094)"><path transform="matrix(0.015,0,0,-0.015,0,0)" d="M95 0L343 0C359 0 375 0 391 2C532 18 666 149 666 342C666 462 612 582 513 647C449 689 395 694 341 694L95 694ZM182 56L182 638L325 638C493 638 579 502 579 341C579 272 562 203 520 148C451 57 357 56 325 56ZM756 226C756 102 843 -11 974 -11C1037 -11 1089 11 1132 40L1126 106C1082 74 1037 51 974 51C898 51 830 117 826 220L1136 220L1136 249C1127 420 1029 461 958 461C852 461 756 360 756 226ZM831 275C842 324 882 399 958 399C987 399 1062 386 1079 275ZM1200 226C1200 102 1287 -11 1418 -11C1481 -11 1533 11 1576 40L1570 106C1526 74 1481 51 1418 51C1342 51 1274 117 1270 220L1580 220L1580 249C1571 420 1473 461 1402 461C1296 461 1200 360 1200 226ZM1275 275C1286 324 1326 399 1402 399C1431 399 1506 386 1523 275ZM1691 -195L1769 -195L1769 46C1802 15 1845 -11 1904 -11C2001 -11 2090 83 2090 224C2090 343 2027 455 1932 455C1898 455 1830 448 1766 396L1766 445L1691 445ZM1769 126L1769 334C1775 341 1809 391 1875 391C1957 391 2011 310 2011 222C2011 116 1936 50 1866 50C1807 50 1769 102 1769 126ZM2555 0L2633 0L2633 624L2672 544L2946 0L3071 0L3071 694L2993 694L2993 70L2954 150L2680 694L2555 694ZM3202 226C3202 102 3289 -11 3420 -11C3483 -11 3535 11 3578 40L3572 106C3528 74 3483 51 3420 51C3344 51 3276 117 3272 220L3582 220L3582 249C3573 420 3475 461 3404 461C3298 461 3202 360 3202 226ZM3277 275C3288 324 3328 399 3404 399C3433 399 3508 386 3525 275ZM3630 386L3714 386L3714 117C3714 7 3763 -11 3796 -11C3841 -11 3892 -1 3944 27L3928 86C3914 76 3883 53 3840 53C3788 53 3786 112 3786 140L3786 386L3927 386L3927 445L3786 445L3786 571L3716 571L3716 445L3630 445ZM4000 34C4075 -7 4136 -11 4170 -11C4304 -11 4333 72 4333 127C4333 192 4287 234 4246 252C4184 280 4077 267 4077 340C4077 365 4092 401 4161 401C4233 401 4265 383 4305 364L4316 430C4261 453 4226 461 4170 461C4034 461 4006 382 4006 329C4006 259 4066 220 4110 206C4141 196 4184 191 4206 184C4226 178 4262 158 4262 120C4262 93 4244 52 4169 52C4088 52 4040 86 4012 102Z" stroke="rgb(0,0,0)" stroke-opacity="1" stroke-width="8" fill="rgb(0,0,0)" fill-opacity="1"></path></g></g></g></g></svg>
</svg>
