<svg xmlns="http://www.w3.org/2000/svg" xmlns:xlink="http://www.w3.org/1999/xlink" x="0" y="0" width="662" height="475" style="
        width:662px;
        height:475px;
        background: transparent;
        fill: none;
">
        
        
        <svg xmlns="http://www.w3.org/2000/svg" class="role-diagram-draw-area"><g class="shapes-region" style="stroke: black; fill: none;"><g class="arrow-line"><path class="connection real" stroke-dasharray="" d="  M214,56 L214,280.52" style="stroke: rgb(0, 0, 0); stroke-width: 1; fill: none; fill-opacity: 1;"/></g><g class="arrow-line"><path class="connection real" stroke-dasharray="" d="  M214,168.26 L361.18,168.26" style="stroke: rgb(0, 0, 0); stroke-width: 1; fill: none; fill-opacity: 1;"/></g><g/></g><g><g class="connection-group"><g class="arrow-line"><path class="connection real" stroke-dasharray="" d="  M134,163.99 L235.87,133.85" style="stroke: rgb(0, 0, 0); stroke-width: 1; fill: none; fill-opacity: 1;"/><g stroke="none" transform="matrix(-0.958918816509367,0.28368063618138456,-0.28368063618138456,-0.958918816509367,238.75,133)" style="stroke: none; stroke-width: 1; fill: rgb(0, 0, 0);" fill="#000"><path d=" M8.93,-4.29 L0,0 L8.93,4.29 Z"/></g></g></g><g class="connection-group"><g class="arrow-line"><path class="connection real" stroke-dasharray="" d="  M134,177.44 L237.52,210.1" style="stroke: rgb(0, 0, 0); stroke-width: 1; fill: none; fill-opacity: 1;"/><g stroke="none" transform="matrix(-0.9536644531597418,-0.3008722499326427,0.3008722499326427,-0.9536644531597418,240.37735849056608,211)" style="stroke: none; stroke-width: 1; fill: rgb(0, 0, 0);" fill="#000"><path d=" M8.93,-4.29 L0,0 L8.93,4.29 Z"/></g></g></g></g><g><g><rect rx="0" ry="0" x="237" y="211" width="86" height="25" style="stroke: rgb(0, 0, 0); stroke-width: 1; fill: none; fill-opacity: 1;"/></g><g><rect rx="0" ry="0" x="230" y="108" width="102" height="25" style="stroke: rgb(0, 0, 0); stroke-width: 1; fill: none; fill-opacity: 1;"/></g></g><g/></svg>
        <svg xmlns="http://www.w3.org/2000/svg" xmlns:xlink="http://www.w3.org/1999/xlink" width="660" height="473" style="width:660px;height:473px;font-family:Asana-Math, Asana;background:transparent;"><g><g><g><g transform="matrix(1,0,0,1,240.99500274658203,229.27000427246094)"><path transform="matrix(0.015,0,0,-0.015,0,0)" d="M27 0L102 0L178 204L468 204L545 0L637 0L377 694L288 694ZM199 260C278 476 315 587 323 624C329 587 356 512 447 260ZM761 0L851 0L851 694L761 694ZM1313 223C1313 95 1407 -11 1530 -11C1599 -11 1648 11 1693 40L1688 107C1656 85 1609 53 1531 53C1447 53 1391 126 1391 223C1391 310 1435 397 1532 397C1611 397 1637 376 1676 351L1688 417C1627 452 1595 461 1533 461C1393 461 1313 339 1313 223ZM1752 221C1752 85 1857 -11 1971 -11C2085 -11 2191 84 2191 220C2191 345 2099 461 1971 461C1853 461 1752 357 1752 221ZM1830 231C1830 352 1907 399 1971 399C2035 399 2112 353 2112 231C2112 106 2038 53 1971 53C1905 53 1830 105 1830 231ZM2302 0L2380 0L2380 240C2380 314 2405 394 2482 394C2580 394 2580 319 2580 281L2580 0L2658 0L2658 240C2658 314 2683 394 2760 394C2858 394 2857 281 2857 281L2857 0L2936 0L2936 288C2936 346 2933 455 2799 455C2708 455 2663 394 2648 374C2634 412 2604 455 2521 455C2433 455 2389 398 2375 380L2375 450L2302 450ZM3097 -195L3175 -195L3175 46C3208 15 3251 -11 3310 -11C3407 -11 3496 83 3496 224C3496 343 3433 455 3338 455C3304 455 3236 448 3172 396L3172 445L3097 445ZM3175 126L3175 334C3181 341 3215 391 3281 391C3363 391 3417 310 3417 222C3417 116 3342 50 3272 50C3213 50 3175 102 3175 126ZM3613 122C3613 70 3613 -11 3718 -11C3773 -11 3841 3 3893 48L3893 0L3969 0L3969 445L3891 445L3891 165C3891 155 3891 146 3890 136C3885 93 3846 45 3771 45C3703 45 3692 67 3691 110L3691 445L3613 445ZM4068 386L4152 386L4152 117C4152 7 4201 -11 4234 -11C4279 -11 4330 -1 4382 27L4366 86C4352 76 4321 53 4278 53C4226 53 4224 112 4224 140L4224 386L4365 386L4365 445L4224 445L4224 571L4154 571L4154 445L4068 445ZM4445 226C4445 102 4532 -11 4663 -11C4726 -11 4778 11 4821 40L4815 106C4771 74 4726 51 4663 51C4587 51 4519 117 4515 220L4825 220L4825 249C4816 420 4718 461 4647 461C4541 461 4445 360 4445 226ZM4520 275C4531 324 4571 399 4647 399C4676 399 4751 386 4768 275ZM4936 0L5011 0L5011 206C5011 352 5122 386 5181 388L5181 455C5075 453 5022 385 5006 360L5006 450L4936 450Z" stroke="rgb(0,0,0)" stroke-opacity="1" stroke-width="8" fill="rgb(0,0,0)" fill-opacity="1"></path></g></g></g></g><g><g><g><g transform="matrix(1,0,0,1,234.00000762939453,126.27000427246094)"><path transform="matrix(0.015,0,0,-0.015,0,0)" d="M44 113C44 67 74 -11 158 -11C268 -11 323 34 324 35L324 0L400 0L400 305C395 389 329 461 234 461C171 461 125 445 77 417L83 350C116 373 158 401 233 401C246 401 272 400 296 371C321 341 321 307 322 279L322 245C219 244 44 219 44 113ZM117 114C117 177 250 192 322 193L322 130C322 65 253 51 210 51C156 51 117 78 117 114ZM560 0L638 0L638 240C638 314 663 394 740 394C838 394 838 319 838 281L838 0L916 0L916 288C916 358 907 455 779 455C691 455 647 398 633 380L633 450L560 450ZM1027 221C1027 85 1132 -11 1246 -11C1360 -11 1466 84 1466 220C1466 345 1374 461 1246 461C1128 461 1027 357 1027 221ZM1105 231C1105 352 1182 399 1246 399C1310 399 1387 353 1387 231C1387 106 1313 53 1246 53C1180 53 1105 105 1105 231ZM1515 386L1599 386L1599 117C1599 7 1648 -11 1681 -11C1726 -11 1777 -1 1829 27L1813 86C1799 76 1768 53 1725 53C1673 53 1671 112 1671 140L1671 386L1812 386L1812 445L1671 445L1671 571L1601 571L1601 445L1515 445ZM1938 0L2016 0L2016 240C2016 314 2041 394 2118 394C2216 394 2216 319 2216 281L2216 0L2294 0L2294 288C2294 349 2290 455 2157 455C2088 455 2045 422 2013 384L2013 722L1938 722ZM2409 226C2409 102 2496 -11 2627 -11C2690 -11 2742 11 2785 40L2779 106C2735 74 2690 51 2627 51C2551 51 2483 117 2479 220L2789 220L2789 249C2780 420 2682 461 2611 461C2505 461 2409 360 2409 226ZM2484 275C2495 324 2535 399 2611 399C2640 399 2715 386 2732 275ZM2900 0L2975 0L2975 206C2975 352 3086 386 3145 388L3145 455C3039 453 2986 385 2970 360L2970 450L2900 450ZM3574 0L3652 0L3652 240C3652 314 3677 394 3754 394C3852 394 3852 319 3852 281L3852 0L3930 0L3930 288C3930 349 3926 455 3793 455C3724 455 3681 422 3649 384L3649 722L3574 722ZM4091 122C4091 70 4091 -11 4196 -11C4251 -11 4319 3 4371 48L4371 0L4447 0L4447 445L4369 445L4369 165C4369 155 4369 146 4368 136C4363 93 4324 45 4249 45C4181 45 4170 67 4169 110L4169 445L4091 445ZM4608 0L4686 0L4686 240C4686 314 4711 394 4788 394C4886 394 4886 319 4886 281L4886 0L4964 0L4964 240C4964 314 4989 394 5066 394C5164 394 5163 281 5163 281L5163 0L5242 0L5242 288C5242 346 5239 455 5105 455C5014 455 4969 394 4954 374C4940 412 4910 455 4827 455C4739 455 4695 398 4681 380L4681 450L4608 450ZM5366 113C5366 67 5396 -11 5480 -11C5590 -11 5645 34 5646 35L5646 0L5722 0L5722 305C5717 389 5651 461 5556 461C5493 461 5447 445 5399 417L5405 350C5438 373 5480 401 5555 401C5568 401 5594 400 5618 371C5643 341 5643 307 5644 279L5644 245C5541 244 5366 219 5366 113ZM5439 114C5439 177 5572 192 5644 193L5644 130C5644 65 5575 51 5532 51C5478 51 5439 78 5439 114ZM5882 0L5960 0L5960 240C5960 314 5985 394 6062 394C6160 394 6160 319 6160 281L6160 0L6238 0L6238 288C6238 358 6229 455 6101 455C6013 455 5969 398 5955 380L5955 450L5882 450Z" stroke="rgb(0,0,0)" stroke-opacity="1" stroke-width="8" fill="rgb(0,0,0)" fill-opacity="1"></path></g></g></g></g><g><g><g><g transform="matrix(1,0,0,1,93.98999786376953,176.27000427246094)"><path transform="matrix(0.015,0,0,-0.015,0,0)" d="M41 20C102 -11 161 -22 212 -22C293 -22 388 13 388 155L388 694L301 694L301 157C301 63 239 40 183 40C110 40 72 79 54 95ZM552 122C552 70 552 -11 657 -11C712 -11 780 3 832 48L832 0L908 0L908 445L830 445L830 165C830 155 830 146 829 136C824 93 785 45 710 45C642 45 631 67 630 110L630 445L552 445ZM1024 221C1024 102 1094 -11 1196 -11C1262 -11 1310 19 1344 52L1344 0L1423 0L1423 722L1347 722L1347 401C1312 429 1265 456 1202 456C1103 456 1024 353 1024 221ZM1102 222C1102 353 1189 394 1247 394L1249 394C1260 394 1292 393 1323 364C1341 347 1344 341 1344 325L1344 134C1344 103 1297 51 1237 51C1183 51 1102 90 1102 222ZM1533 -71C1533 -148 1632 -206 1755 -206C1877 -206 1977 -148 1977 -70C1977 -58 1975 -45 1972 -33C1944 67 1822 69 1756 69L1681 69C1633 69 1625 103 1625 122C1625 129 1626 139 1636 159C1658 145 1683 129 1727 129C1820 129 1887 207 1887 292C1887 335 1874 364 1848 399L1857 391C1875 392 1906 395 1932 395C1952 395 1971 394 1991 392L1980 455C1926 455 1873 445 1823 424L1825 422C1792 445 1764 455 1727 455C1645 455 1568 389 1568 292C1568 272 1571 232 1601 193L1601 192C1583 168 1572 141 1572 108C1572 76 1581 55 1597 32C1558 9 1533 -30 1533 -71ZM1603 -71C1603 -42 1625 -8 1666 -4L1695 -3L1758 -3C1866 -3 1907 -31 1907 -72C1907 -118 1835 -149 1754 -149C1699 -149 1603 -127 1603 -71ZM1638 292C1638 377 1691 398 1727 398C1781 398 1817 358 1817 293C1817 208 1764 187 1728 187C1674 187 1638 227 1638 292ZM2040 226C2040 102 2127 -11 2258 -11C2321 -11 2373 11 2416 40L2410 106C2366 74 2321 51 2258 51C2182 51 2114 117 2110 220L2420 220L2420 249C2411 420 2313 461 2242 461C2136 461 2040 360 2040 226ZM2115 275C2126 324 2166 399 2242 399C2271 399 2346 386 2363 275Z" stroke="rgb(0,0,0)" stroke-opacity="1" stroke-width="8" fill="rgb(0,0,0)" fill-opacity="1"></path></g></g></g></g><g><g><g><g transform="matrix(1,0,0,1,55.98999786376953,70.86999816894532)"><path transform="matrix(0.02595,0,0,-0.02595,0,0)" d="M27 0L102 0L178 204L468 204L545 0L637 0L377 694L288 694ZM199 260C278 476 315 587 323 624C329 587 356 512 447 260ZM748 0L823 0L823 722L748 722ZM950 113C950 67 980 -11 1064 -11C1174 -11 1229 34 1230 35L1230 0L1306 0L1306 305C1301 389 1235 461 1140 461C1077 461 1031 445 983 417L989 350C1022 373 1064 401 1139 401C1152 401 1178 400 1202 371C1227 341 1227 307 1228 279L1228 245C1125 244 950 219 950 113ZM1023 114C1023 177 1156 192 1228 193L1228 130C1228 65 1159 51 1116 51C1062 51 1023 78 1023 114ZM1466 0L1544 0L1544 240C1544 314 1569 394 1646 394C1744 394 1744 319 1744 281L1744 0L1822 0L1822 288C1822 358 1813 455 1685 455C1597 455 1553 398 1539 380L1539 450L1466 450ZM2271 623L2413 623L2531 624L2531 0L2620 0L2620 624L2737 623L2879 623L2879 689L2271 689ZM2913 122C2913 70 2913 -11 3018 -11C3073 -11 3141 3 3193 48L3193 0L3269 0L3269 445L3191 445L3191 165C3191 155 3191 146 3190 136C3185 93 3146 45 3071 45C3003 45 2992 67 2991 110L2991 445L2913 445ZM3431 0L3506 0L3506 206C3506 352 3617 386 3676 388L3676 455C3570 453 3517 385 3501 360L3501 450L3431 450ZM3773 0L3848 0L3848 445L3773 445ZM3766 590L3856 590L3856 679L3766 679ZM4011 0L4089 0L4089 240C4089 314 4114 394 4191 394C4289 394 4289 319 4289 281L4289 0L4367 0L4367 288C4367 358 4358 455 4230 455C4142 455 4098 398 4084 380L4084 450L4011 450ZM4475 -71C4475 -148 4574 -206 4697 -206C4819 -206 4919 -148 4919 -70C4919 -58 4917 -45 4914 -33C4886 67 4764 69 4698 69L4623 69C4575 69 4567 103 4567 122C4567 129 4568 139 4578 159C4600 145 4625 129 4669 129C4762 129 4829 207 4829 292C4829 335 4816 364 4790 399L4799 391C4817 392 4848 395 4874 395C4894 395 4913 394 4933 392L4922 455C4868 455 4815 445 4765 424L4767 422C4734 445 4706 455 4669 455C4587 455 4510 389 4510 292C4510 272 4513 232 4543 193L4543 192C4525 168 4514 141 4514 108C4514 76 4523 55 4539 32C4500 9 4475 -30 4475 -71ZM4545 -71C4545 -42 4567 -8 4608 -4L4637 -3L4700 -3C4808 -3 4849 -31 4849 -72C4849 -118 4777 -149 4696 -149C4641 -149 4545 -127 4545 -71ZM4580 292C4580 377 4633 398 4669 398C4723 398 4759 358 4759 293C4759 208 4706 187 4670 187C4616 187 4580 227 4580 292Z" stroke="rgb(208,2,27)" stroke-opacity="1" stroke-width="8" fill="rgb(208,2,27)" fill-opacity="1"></path></g></g></g></g><g><g><g><g transform="matrix(1,0,0,1,111.99500274658203,304.9149932861328)"><path transform="matrix(0.015,0,0,-0.015,0,0)" d="M100 0L178 0L178 624C187 580 211 517 250 411L400 22L472 22L626 423L686 587L696 624L697 592L697 0L775 0L775 694L660 694L506 292C457 164 441 114 438 92L437 92C433 115 409 182 368 293L214 694L100 694ZM969 0L1059 0L1059 694L969 694ZM1208 345C1208 137 1352 -22 1520 -22C1564 -22 1588 -14 1616 -5L1700 -125L1805 -125L1686 33C1726 65 1833 158 1833 345C1833 554 1688 716 1520 716C1358 716 1208 562 1208 345ZM1295 344C1295 516 1388 649 1518 652L1519 652C1645 652 1746 524 1746 344C1746 191 1676 119 1644 90L1643 90L1565 195L1476 195L1577 51C1555 46 1543 42 1521 42C1393 42 1295 172 1295 344Z" stroke="rgb(0,0,0)" stroke-opacity="1" stroke-width="8" fill="rgb(0,0,0)" fill-opacity="1"></path></g></g><g><g><g><g><g transform="matrix(1,0,0,1,150.41500091552734,304.35499572753906)"><path transform="matrix(0.017,0,0,-0.017,0,0)" d="M610 344L590 354C572 293 540 240 470 240C388 240 318 355 224 355C132 355 82 300 58 216L80 207C104 261 142 300 204 300C286 300 346 186 448 186C550 186 596 251 610 344Z" stroke="rgb(0,0,0)" stroke-opacity="1" stroke-width="8" fill="rgb(0,0,0)" fill-opacity="1"></path></g></g><g><g transform="matrix(1,0,0,1,166.87499237060547,304.35499572753906)"><path transform="matrix(0.017,0,0,-0.017,0,0)" d="M125 390L69 107C68 99 56 61 56 31C56 6 67 -9 86 -9C121 -9 156 11 234 74L265 99L255 117L210 86C181 66 161 56 150 56C141 56 136 64 136 76C136 102 150 183 179 328L192 390L299 390L310 440C272 436 238 434 200 434C216 528 227 577 245 631L234 646C214 634 187 622 156 610L131 440C87 419 61 408 43 403L41 390Z" stroke="rgb(208,2,27)" stroke-opacity="1" stroke-width="8" fill="rgb(208,2,27)" fill-opacity="1"></path></g></g><g><g><g><g><g transform="matrix(1,0,0,1,173.03499603271484,307.36498107910154)"><path transform="matrix(0.0119,0,0,-0.0119,0,0)" d="M275 482C208 482 55 419 55 259C55 182 100 136 177 136C185 136 196 136 207 137L166 99C150 84 139 66 139 52C139 42 146 31 160 19C91 -4 -37 -48 -37 -159C-37 -230 33 -276 142 -276C271 -276 384 -204 384 -121C384 -85 363 -49 320 -14L260 35C226 62 213 81 213 100C213 114 228 128 240 146C338 170 409 253 409 342C409 357 406 376 405 380C422 378 430 378 439 378C456 378 466 379 489 382L498 427L495 433C467 426 447 424 393 424C393 425 369 482 275 482ZM176 1L253 -58C299 -94 318 -121 318 -154C318 -206 249 -248 166 -248C84 -248 27 -206 27 -145C27 -43 137 -11 176 1ZM250 448C308 448 337 412 337 341C337 238 289 168 219 168C158 168 126 209 126 288C126 383 177 448 250 448ZM991 473L984 482L916 465L906 414C891 336 866 268 835 221C776 130 698 59 658 59C650 59 645 68 645 85C645 99 647 112 652 137L709 408C712 424 714 438 714 451C714 470 705 482 691 482C671 482 633 461 559 408L531 388L538 368L570 389C598 407 609 412 618 412C627 412 635 403 635 392C635 388 634 378 633 374L570 77C568 68 566 44 566 30C566 7 581 -11 601 -11C664 -11 785 101 869 239L832 97C825 73 821 46 821 31C821 6 832 -9 851 -9C877 -9 913 12 1011 85L1001 103L975 86C951 70 925 59 914 59C906 59 901 66 901 76C901 112 976 416 991 473ZM1382 111L1358 94C1305 56 1257 36 1221 36C1174 36 1145 73 1145 133C1145 158 1148 185 1153 214C1170 218 1279 248 1304 259C1389 296 1428 342 1428 404C1428 451 1394 482 1344 482C1276 496 1166 423 1129 349C1099 299 1069 180 1069 113C1069 35 1113 -11 1185 -11C1242 -11 1298 17 1390 92ZM1167 274C1184 343 1204 386 1233 412C1251 428 1282 440 1306 440C1335 440 1354 420 1354 388C1354 344 1319 297 1267 272C1239 258 1203 247 1158 237ZM1473 148C1468 97 1462 62 1451 16C1489 -2 1523 -11 1558 -11C1607 -11 1653 7 1704 47C1755 87 1776 124 1776 174C1776 228 1744 257 1670 271L1627 279C1567 290 1548 307 1548 348C1548 401 1593 442 1650 442C1691 442 1729 424 1745 397L1745 342L1768 342C1772 377 1776 404 1787 455C1748 474 1720 482 1687 482C1635 482 1574 452 1526 404C1500 377 1489 352 1489 316C1489 260 1520 228 1586 215L1649 203C1693 195 1709 177 1709 138C1709 73 1663 29 1592 29C1557 29 1526 40 1498 64L1498 148ZM1861 148C1856 97 1850 62 1839 16C1877 -2 1911 -11 1946 -11C1995 -11 2041 7 2092 47C2143 87 2164 124 2164 174C2164 228 2132 257 2058 271L2015 279C1955 290 1936 307 1936 348C1936 401 1981 442 2038 442C2079 442 2117 424 2133 397L2133 342L2156 342C2160 377 2164 404 2175 455C2136 474 2108 482 2075 482C2023 482 1962 452 1914 404C1888 377 1877 352 1877 316C1877 260 1908 228 1974 215L2037 203C2081 195 2097 177 2097 138C2097 73 2051 29 1980 29C1945 29 1914 40 1886 64L1886 148Z" stroke="rgb(208,2,27)" stroke-opacity="1" stroke-width="8" fill="rgb(208,2,27)" fill-opacity="1"></path></g></g></g></g></g></g></g></g></g></g></svg>
</svg>
