<svg xmlns="http://www.w3.org/2000/svg" x="0" y="0" width="662" height="538.2000122070312" style="
        width:662px;
        height:538.2000122070312px;
        background: #FFF;
        fill: none;
">
        
        
        <svg xmlns="http://www.w3.org/2000/svg" class="role-diagram-draw-area"><g class="shapes-region" style="stroke: black; fill: none;"><g class="composite-shape"><path class="real" d=" M122,155 L533.5,155 L533.5,196.2 L122,196.2 Z" style="stroke-width: 1; stroke: rgb(0, 0, 0); fill: none;"/></g><g class="arrow-line"><path class="connection real" stroke-dasharray="" d="  M362.5,154.2 L362.5,196.2" style="stroke: rgb(0, 0, 0); stroke-width: 1; fill: none;"/></g><g class="composite-shape"><path class="real" d=" M361,155 Q361,148 354,148 L329.63,148 Q319.63,148 319.63,141 Q319.63,148 309.63,148 M312.63,148 L284.5,148 Q277.5,148 277.5,155" style="stroke-width: 1; stroke: rgb(0, 0, 0); fill: none;"/><!-- react-text: 3428 -->/&gt;<!-- /react-text --></g><g class="composite-shape"><path class="real" d=" M276,154 Q276,147 269,147 L244.63,147 Q234.63,147 234.63,140 Q234.63,147 224.63,147 M227.63,147 L199.5,147 Q192.5,147 192.5,154" style="stroke-width: 1; stroke: rgb(0, 0, 0); fill: none;"/><!-- react-text: 3676 -->/&gt;<!-- /react-text --></g><g class="composite-shape"><path class="real" d=" M533.5,154 Q533.5,147 526.5,147 L459.53,147 Q449.53,147 449.53,140 Q449.53,147 439.53,147 M442.53,147 L370.5,147 Q363.5,147 363.5,154" style="stroke-width: 1; stroke: rgb(0, 0, 0); fill: none;"/><!-- react-text: 4287 -->/&gt;<!-- /react-text --></g><g class="composite-shape"><path class="real" d=" M193.5,154 Q193.5,147 186.5,147 L168.28,147 Q158.28,147 158.28,140 Q158.28,147 148.28,147 M151.28,147 L129.5,147 Q122.5,147 122.5,154" style="stroke-width: 1; stroke: rgb(0, 0, 0); fill: none;"/><!-- react-text: 4764 -->/&gt;<!-- /react-text --></g><g class="composite-shape"><path class="real" d=" M122,196 Q122,203 129,203 L317.25,203 Q327.25,203 327.25,210 Q327.25,203 337.25,203 M334.25,203 L525.5,203 Q532.5,203 532.5,196" style="stroke-width: 1; stroke: rgb(0, 0, 0); fill: none;"/><!-- react-text: 5990 -->/&gt;<!-- /react-text --></g><g class="arrow-line"><path class="connection real" stroke-dasharray="" d="  M533.5,196.2 L533.5,100.2 L340.5,100.2 L340.5,195.2" style="stroke: rgb(208, 2, 27); stroke-width: 2; fill: none;"/></g><g class="composite-shape"><path class="real" d=" M342,157 Q342,161.01 346.01,161.01 L346.01,161.01 Q351.75,161.01 351.75,165.03 Q351.75,161.01 357.49,161.01 M355.76,161.01 L357.49,161.01 Q361.5,161.01 361.5,157" style="stroke-width: 1; stroke: rgb(208, 2, 27); fill: none;"/><!-- react-text: 14810 -->/&gt;<!-- /react-text --></g><g/></g><g><g class="connection-group"><g class="arrow-line"><path class="connection real" stroke-dasharray="" d="  M320,350 L320,290" style="stroke: rgb(0, 0, 0); stroke-width: 1; fill: none;"/><g stroke="none" transform="matrix(3.061616997868383e-16,1,-1,3.061616997868383e-16,320,287)" style="stroke: none; stroke-width: 1; fill: rgb(0, 0, 0);" fill="#000"><path d=" M8.93,-4.29 L0,0 L8.93,4.29 Z"/></g></g></g><g class="connection-group"><g class="arrow-line"><path class="connection real" stroke-dasharray="" d="  M202.01,350 L229.1,287.75" style="stroke: rgb(0, 0, 0); stroke-width: 1; fill: none;"/><g stroke="none" transform="matrix(-0.3990691589802943,0.9169208288346168,-0.9169208288346168,-0.3990691589802943,230.29629629629625,285)" style="stroke: none; stroke-width: 1; fill: rgb(0, 0, 0);" fill="#000"><path d=" M8.93,-4.29 L0,0 L8.93,4.29 Z"/></g></g></g><g class="connection-group"><g class="arrow-line"><path class="connection real" stroke-dasharray="" d="  M184.05,350 L162.9,288.84" style="stroke: rgb(0, 0, 0); stroke-width: 1; fill: none;"/><g stroke="none" transform="matrix(0.32688802965494335,0.9450630751798046,-0.9450630751798046,0.32688802965494335,161.9158878504673,286)" style="stroke: none; stroke-width: 1; fill: rgb(0, 0, 0);" fill="#000"><path d=" M8.93,-4.29 L0,0 L8.93,4.29 Z"/></g></g></g></g><g/><g/></svg>
        <svg xmlns="http://www.w3.org/2000/svg" width="660" height="536.2000122070312" style="width:660px;height:536.2000122070312px;font-family:Asana-Math, Asana;background:#FFF;"><g><g><text x="415.41253662109375" y="168.1999969482422" style="white-space:pre;stroke:none;fill:rgb(0, 0, 0);font-size:15px;font-family:Arial, Helvetica, sans-serif;font-weight:400;font-style:normal;dominant-baseline:text-before-edge;text-decoration:none solid rgb(0, 0, 0);">OFFSET</text></g></g><g><g><text x="442.65625" y="123.19999694824219" style="white-space:pre;stroke:none;fill:rgb(0, 0, 0);font-size:15px;font-family:Arial, Helvetica, sans-serif;font-weight:400;font-style:normal;dominant-baseline:text-before-edge;text-decoration:none solid rgb(0, 0, 0);">20</text></g></g><g><g><text x="310.65625" y="123.19999694824219" style="white-space:pre;stroke:none;fill:rgb(0, 0, 0);font-size:15px;font-family:Arial, Helvetica, sans-serif;font-weight:400;font-style:normal;dominant-baseline:text-before-edge;text-decoration:none solid rgb(0, 0, 0);">16</text></g></g><g><g><text x="225.65625" y="123.19999694824219" style="white-space:pre;stroke:none;fill:rgb(0, 0, 0);font-size:15px;font-family:Arial, Helvetica, sans-serif;font-weight:400;font-style:normal;dominant-baseline:text-before-edge;text-decoration:none solid rgb(0, 0, 0);">16</text></g></g><g><g><text x="149.65625" y="123.19999694824219" style="white-space:pre;stroke:none;fill:rgb(0, 0, 0);font-size:15px;font-family:Arial, Helvetica, sans-serif;font-weight:400;font-style:normal;dominant-baseline:text-before-edge;text-decoration:none solid rgb(0, 0, 0);">12</text></g></g><g><g><text x="319.65625" y="215.1999969482422" style="white-space:pre;stroke:none;fill:rgb(0, 0, 0);font-size:15px;font-family:Arial, Helvetica, sans-serif;font-weight:400;font-style:normal;dominant-baseline:text-before-edge;text-decoration:none solid rgb(0, 0, 0);">64</text></g></g><g><g><text x="426.65625" y="80.19999694824219" style="white-space:pre;stroke:none;fill:rgb(208, 2, 27);font-size:15px;font-family:Arial, Helvetica, sans-serif;font-weight:400;font-style:normal;dominant-baseline:text-before-edge;text-decoration:none solid rgb(208, 2, 27);">27</text></g></g><g><g><text x="147.78125" y="251.1999969482422" style="white-space:pre;stroke:none;fill:rgb(74, 144, 226);font-size:25.95px;font-family:Arial, Helvetica, sans-serif;font-weight:400;font-style:normal;dominant-baseline:text-before-edge;text-decoration:none solid rgb(74, 144, 226);">1</text></g></g><g><g><text x="231.78125" y="250.1999969482422" style="white-space:pre;stroke:none;fill:rgb(74, 144, 226);font-size:25.95px;font-family:Arial, Helvetica, sans-serif;font-weight:400;font-style:normal;dominant-baseline:text-before-edge;text-decoration:none solid rgb(74, 144, 226);">1</text></g></g><g><g><text x="312.78125" y="252.1999969482422" style="white-space:pre;stroke:none;fill:rgb(74, 144, 226);font-size:25.95px;font-family:Arial, Helvetica, sans-serif;font-weight:400;font-style:normal;dominant-baseline:text-before-edge;text-decoration:none solid rgb(74, 144, 226);">1</text></g></g><g><g><text x="269.6875" y="353.5375213623047" style="white-space:pre;stroke:none;fill:rgb(0, 0, 0);font-size:15px;font-family:Arial, Helvetica, sans-serif;font-weight:400;font-style:normal;dominant-baseline:text-before-edge;text-decoration:none solid rgb(0, 0, 0);">1 page table, </text></g><g><g><g><g><g style="transform:matrix(1,0,0,1,269.6875,390.6625213623047);"><path d="M16 23L16 -3C203 -3 203 0 239 0C275 0 275 -3 468 -3L468 82C353 77 307 81 122 77L304 270C401 373 431 428 431 503C431 618 353 689 226 689C154 689 105 669 56 619L39 483L68 483L81 529C97 587 133 612 200 612C286 612 341 558 341 473C341 398 299 324 186 204Z" stroke="rgb(0, 0, 0)" stroke-width="8" fill="rgb(0, 0, 0)" style="transform:matrix(0.017,0,0,-0.017,0,0);"></path></g><g><g><g><g style="transform:matrix(1,0,0,1,279.1500244140625,384.6375335693359);"><path d="M409 603L47 -1L157 -1L497 659L497 689L44 689L44 477L74 477L81 533C89 595 96 603 142 603Z" stroke="rgb(0, 0, 0)" stroke-width="8" fill="rgb(0, 0, 0)" style="transform:matrix(0.0119,0,0,-0.0119,0,0);"></path></g></g></g></g></g></g></g><text x="286.10003662109375" y="376.86253356933594" style="white-space:pre;stroke:none;fill:rgb(0, 0, 0);font-size:15px;font-family:Arial, Helvetica, sans-serif;font-weight:400;font-style:normal;dominant-baseline:text-before-edge;text-decoration:none solid rgb(0, 0, 0);"> valid entries</text></g></g><g><g><text x="146.54376220703125" y="353.80003356933594" style="white-space:pre;stroke:none;fill:rgb(0, 0, 0);font-size:15px;font-family:Arial, Helvetica, sans-serif;font-weight:400;font-style:normal;dominant-baseline:text-before-edge;text-decoration:none solid rgb(0, 0, 0);">1 page table, </text></g><g><text x="146.54376220703125" y="374.6000213623047" style="white-space:pre;stroke:none;fill:rgb(0, 0, 0);font-size:15px;font-family:Arial, Helvetica, sans-serif;font-weight:400;font-style:normal;dominant-baseline:text-before-edge;text-decoration:none solid rgb(0, 0, 0);">1 valid entry</text></g></g><g><g><text x="346.625" y="166.1999969482422" style="white-space:pre;stroke:none;fill:rgb(208, 2, 27);font-size:15px;font-family:Arial, Helvetica, sans-serif;font-weight:400;font-style:normal;dominant-baseline:text-before-edge;text-decoration:none solid rgb(208, 2, 27);">7</text></g></g></svg>
</svg>
