<?xml version="1.0" encoding="UTF-8" standalone="no"?>
<!DOCTYPE svg PUBLIC "-//W3C//DTD SVG 1.1//EN" "http://www.w3.org/Graphics/SVG/1.1/DTD/svg11.dtd">
<svg xmlns="http://www.w3.org/2000/svg" xmlns:xlink="http://www.w3.org/1999/xlink" version="1.1" width="360pt" height="129.6pt" viewBox="0 0 360 129.6">
<g enable-background="new">
<path transform="matrix(1,0,0,-1,0,10.592003)" stroke-width=".797" stroke-linecap="butt" stroke-miterlimit="10" stroke-linejoin="miter" fill="none" stroke="#000000" d="M 0 0 L 360 0 "/>
<symbol id="font_0_3">
<path d="M .43300004 .67200008 C .42200003 .698 .41000004 .698 .393 .698 C .365 .698 .361 .69000008 .354 .67200008 L .106 .07 C .1 .055000005 .09700001 .047000003 .021000002 .047000003 L 0 .047000003 L 0 0 C .038000004 .001 .086 .003 .117000009 .003 C .15600002 .003 .21200001 .003 .24900002 0 L .24900002 .047000003 C .24700001 .047000003 .16 .047000003 .16 .060000004 C .16 .061000006 .16300002 .071 .164 .072000008 L .21400002 .193 L .482 .193 L .542 .047000003 L .44700004 .047000003 L .44700004 0 C .485 .003 .58000007 .003 .623 .003 C .66300007 .003 .75100007 .003 .786 0 L .786 .047000003 L .689 .047000003 L .43300004 .67200008 M .34800003 .518 L .462 .24000001 L .234 .24000001 L .34800003 .518 Z "/>
</symbol>
<symbol id="font_0_9">
<path d="M .177 .694 L 0 .68600007 L 0 .63900008 C .062000004 .63900008 .069000009 .63900008 .069000009 .6 L .069000009 .047000003 L 0 .047000003 L 0 0 C .032 .001 .08 .003 .122999999 .003 C .16600001 .003 .212 .001 .246 0 L .246 .047000003 L .177 .047000003 L .177 .694 Z "/>
</symbol>
<symbol id="font_0_6">
<path d="M .22300002 .39100004 C .135 .39100004 .135 .458 .135 .503 C .135 .548 .135 .615 .22300002 .615 C .31100003 .615 .31100003 .548 .31100003 .503 C .31100003 .458 .31100003 .39100004 .22300002 .39100004 M .100999999 .381 C .147 .357 .198 .35500003 .22300002 .35500003 C .367 .35500003 .42200003 .43300004 .42200003 .503 C .42200003 .55 .397 .58300009 .38200004 .59900006 C .41200004 .615 .43300004 .617 .444 .61800006 C .44200004 .61300006 .44000004 .60400006 .44000004 .59800007 C .44000004 .573 .45700003 .555 .48300005 .555 C .509 .555 .526 .574 .526 .59800007 C .526 .62100008 .509 .656 .46300004 .656 C .448 .656 .40100003 .653 .35700003 .61800006 C .33900003 .63 .29700003 .651 .22300002 .651 C .07900001 .651 .024 .573 .024 .503 C .024 .462 .044000005 .421 .076000008 .398 C .048000006 .363 .042 .33 .042 .30900003 C .042 .294 .046 .245 .08600001 .213 C .073 .21000001 0 .18900001 0 .126 C 0 .075 .055000005 0 .255 0 C .432 0 .51000007 .059 .51000007 .12900001 C .51000007 .15900001 .50200006 .222 .435 .256 C .379 .284 .319 .284 .22300002 .284 C .19700001 .284 .15100001 .284 .146 .28500004 C .102 .292 .091000009 .33 .091000009 .348 C .091000009 .358 .095 .37300004 .100999999 .381 M .163 .18800001 L .28 .18800001 C .31100003 .18800001 .42400003 .18800001 .42400003 .126 C .42400003 .089999999 .38500003 .036 .255 .036 C .135 .036 .08600001 .082 .08600001 .12799999 C .08600001 .18800001 .149 .18800001 .163 .18800001 Z "/>
</symbol>
<symbol id="font_0_c">
<path d="M .51000007 .224 C .51000007 .35800005 .418 .45900003 .255 .45900003 C .091000009 .45900003 0 .35700003 0 .224 C 0 .1 .088 0 .255 0 C .423 0 .51000007 .101 .51000007 .224 M .255 .040000004 C .128 .040000004 .128 .148 .128 .23500002 C .128 .28000004 .128 .33100004 .145 .36500005 C .164 .40200005 .206 .42300005 .255 .42300005 C .29700003 .42300005 .33900003 .40700004 .361 .37200005 C .38200004 .33800004 .38200004 .28300003 .38200004 .23500002 C .38200004 .148 .38200004 .040000004 .255 .040000004 Z "/>
</symbol>
<symbol id="font_0_e">
<path d="M .16600001 .337 L .16600001 .45000003 L 0 .44200004 L 0 .395 C .062000008 .395 .069000009 .395 .069000009 .356 L .069000009 .047000003 L 0 .047000003 L 0 0 C .035000005 .001 .080000009 .003 .126 .003 C .164 .003 .22800002 .003 .26400004 0 L .26400004 .047000003 L .17700002 .047000003 L .17700002 .22200002 C .17700002 .29200004 .202 .41400004 .30200003 .41400004 C .30100004 .41300003 .28300003 .397 .28300003 .36800004 C .28300003 .32700003 .31500004 .307 .344 .307 C .37300004 .307 .40500004 .328 .40500004 .36800004 C .40500004 .42100004 .351 .45000003 .29900003 .45000003 C .229 .45000003 .18900001 .4 .16600001 .337 Z "/>
</symbol>
<symbol id="font_0_8">
<path d="M .177 .45000003 L .0029999987 .44200004 L .0029999987 .395 C .062000004 .395 .069000009 .395 .069000009 .356 L .069000009 .047000003 L 0 .047000003 L 0 0 C .031 .001 .08 .003 .12200001 .003 C .15200001 .003 .203 .001 .23900001 0 L .23900001 .047000003 L .177 .047000003 L .177 .45000003 M .187 .61700007 C .187 .661 .15100001 .69500008 .109 .69500008 C .066 .69500008 .031 .66 .031 .61700007 C .031 .574 .066 .53900006 .109 .53900006 C .15100001 .53900006 .187 .573 .187 .61700007 Z "/>
</symbol>
<symbol id="font_0_f">
<path d="M .082 .40300004 L .082 .12900001 C .082 .022 .16900002 0 .24000001 0 C .316 0 .36100004 .057000005 .36100004 .13000001 L .36100004 .183 L .314 .183 L .314 .132 C .314 .064 .282 .040000004 .254 .040000004 C .19600001 .040000004 .19600001 .104 .19600001 .127 L .19600001 .40300004 L .342 .40300004 L .342 .45000006 L .19600001 .45000006 L .19600001 .64100006 L .149 .64100006 C .14800002 .541 .09900001 .44200004 0 .43900005 L 0 .40300004 L .082 .40300004 Z "/>
</symbol>
<symbol id="font_0_7">
<path d="M .069000009 .047000003 L 0 .047000003 L 0 0 C .028000005 .001 .088 .003 .126 .003 C .165 .003 .22400002 .001 .25200004 0 L .25200004 .047000003 L .18300002 .047000003 L .18300002 .256 C .18300002 .365 .269 .41400004 .33200003 .41400004 C .366 .41400004 .38700003 .393 .38700003 .317 L .38700003 .047000003 L .31800003 .047000003 L .31800003 0 C .34600003 .001 .40600003 .003 .444 .003 C .48299999 .003 .542 .001 .57 0 L .57 .047000003 L .501 .047000003 L .501 .30600003 C .501 .411 .44700004 .45000003 .347 .45000003 C .251 .45000003 .2 .39200003 .17700002 .35200004 L .17700002 .694 L 0 .68600007 L 0 .63900008 C .062000008 .63900008 .069000009 .63900008 .069000009 .6 L .069000009 .047000003 Z "/>
</symbol>
<symbol id="font_0_a">
<path d="M .069000009 .356 L .069000009 .047000003 L 0 .047000003 L 0 0 C .028000005 .001 .088 .003 .126 .003 C .165 .003 .22400002 .001 .25200004 0 L .25200004 .047000003 L .18300002 .047000003 L .18300002 .256 C .18300002 .365 .27000005 .41400004 .33200003 .41400004 C .366 .41400004 .388 .39400003 .388 .317 L .388 .047000003 L .319 .047000003 L .319 0 C .347 .001 .407 .003 .445 .003 C .48400004 .003 .543 .001 .57100006 0 L .57100006 .047000003 L .50200006 .047000003 L .50200006 .256 C .50200006 .365 .589 .41400004 .651 .41400004 C .685 .41400004 .707 .39400003 .707 .317 L .707 .047000003 L .638 .047000003 L .638 0 C .666 .001 .726 .003 .764 .003 C .80300006 .003 .86200007 .001 .89000007 0 L .89000007 .047000003 L .82100006 .047000003 L .82100006 .30600003 C .82100006 .409 .77000007 .45000003 .667 .45000003 C .57600006 .45000003 .524 .4 .49800004 .354 C .478 .44700004 .38600005 .45000003 .348 .45000003 C .26100005 .45000003 .20400001 .40500004 .172 .342 L .172 .45000003 L 0 .44200004 L 0 .395 C .062000008 .395 .069000009 .395 .069000009 .356 Z "/>
</symbol>
<symbol id="font_0_1">
<path d="M .30400003 .36300005 C .37300004 .38400004 .446 .441 .446 .527 C .446 .60400006 .37 .666 .229 .666 C .11000001 .666 .032000007 .602 .032000007 .522 C .032000007 .47900004 .06300001 .45200003 .101 .45200003 C .146 .45200003 .171 .48400004 .171 .521 C .171 .579 .117000009 .59000006 .11300001 .591 C .148 .619 .192 .62700006 .22300002 .62700006 C .306 .62700006 .30900003 .563 .30900003 .53000006 C .30900003 .517 .308 .38600005 .204 .38000003 C .16300002 .37800003 .16100002 .37700004 .15600002 .37600003 C .146 .37500004 .144 .365 .144 .35900004 C .144 .34100003 .15400002 .34100003 .17200002 .34100003 L .21599999 .34100003 C .32500003 .34100003 .32500003 .24300002 .32500003 .19200002 C .32500003 .14500001 .32500003 .043 .22100002 .043 C .19500003 .043 .143 .047000003 .095000009 .077 C .12800002 .086 .153 .111 .153 .15200001 C .153 .19700001 .121000017 .22800002 .077 .22800002 C .035000005 .22800002 0 .20100002 0 .15000002 C 0 .060000004 .09700001 0 .22600001 0 C .405 0 .47800002 .1 .47800002 .19100002 C .47800002 .24600002 .449 .33200003 .30400003 .36300005 Z "/>
</symbol>
<symbol id="font_0_2">
<path d="M .15600002 .36600004 C .15600002 .409 .12100001 .44400005 .07800001 .44400005 C .035000005 .44400005 0 .409 0 .36600004 C 0 .323 .035000005 .28800003 .07800001 .28800003 C .12100001 .28800003 .15600002 .323 .15600002 .36600004 M .15600002 .078 C .15600002 .12100001 .12100001 .156 .07800001 .156 C .035000005 .156 0 .12100001 0 .078 C 0 .035 .035000005 0 .07800001 0 C .12100001 0 .15600002 .035 .15600002 .078 Z "/>
</symbol>
<use xlink:href="#font_0_3" transform="matrix(9.9626,0,0,-9.9626,7.880467,20.45501)"/>
<use xlink:href="#font_0_9" transform="matrix(9.9626,0,0,-9.9626,16.597743,20.45501)"/>
<use xlink:href="#font_0_6" transform="matrix(9.9626,0,0,-9.9626,19.626374,22.457493)"/>
<use xlink:href="#font_0_c" transform="matrix(9.9626,0,0,-9.9626,25.354868,20.514786)"/>
<use xlink:href="#font_0_e" transform="matrix(9.9626,0,0,-9.9626,31.133175,20.45501)"/>
<use xlink:href="#font_0_8" transform="matrix(9.9626,0,0,-9.9626,35.955076,20.45501)"/>
<use xlink:href="#font_0_f" transform="matrix(9.9626,0,0,-9.9626,38.874116,20.514786)"/>
<use xlink:href="#font_0_7" transform="matrix(9.9626,0,0,-9.9626,43.5665,20.45501)"/>
<use xlink:href="#font_0_a" transform="matrix(9.9626,0,0,-9.9626,49.932603,20.45501)"/>
<use xlink:href="#font_0_1" transform="matrix(9.9626,0,0,-9.9626,63.3323,20.564599)"/>
<use xlink:href="#font_0_2" transform="matrix(9.9626,0,0,-9.9626,69.38956,20.45501)"/>
<symbol id="font_1_17">
<path d="M .14400001 .57000008 L .14400001 .63600006 L 0 .625 L 0 .594 C .07100001 .594 .07800001 .58800008 .07800001 .544 L .07800001 .076 C .07800001 .031000004 .067 .031000004 0 .031000004 L 0 0 C .034 .001000002 .08600001 .0029999912 .112 .0029999912 C .13900002 .0029999912 .19000001 .001000002 .22500003 0 L .22500003 .031000004 C .158 .031000004 .14700002 .031000004 .14700002 .076 L .14700002 .244 L .14700002 .25300003 C .15200001 .237 .19400002 .183 .27 .183 C .38900004 .183 .49300004 .28100003 .49300004 .41000004 C .49300004 .53700008 .39600004 .63600006 .284 .63600006 C .20600002 .63600006 .164 .592 .14400001 .57000008 M .14700002 .30800004 L .14700002 .531 C .17600002 .582 .22500003 .61100009 .27600003 .61100009 C .349 .61100009 .41000004 .523 .41000004 .41000004 C .41000004 .289 .34000004 .20500002 .266 .20500002 C .22600001 .20500002 .18800001 .22500001 .16100002 .266 C .14700002 .287 .14700002 .28800003 .14700002 .30800004 Z "/>
</symbol>
<symbol id="font_1_16">
<path d="M .44300003 .22500003 C .44300003 .35300002 .34300003 .45900003 .222 .45900003 C .097 .45900003 0 .35000003 0 .22500003 C 0 .096 .104 0 .22100002 0 C .342 0 .44300003 .098000008 .44300003 .22500003 M .222 .025000003 C .17900002 .025000003 .135 .046 .10800001 .092 C .083000008 .136 .083000008 .19700001 .083000008 .23300003 C .083000008 .272 .083000008 .32600004 .10700001 .37000004 C .134 .41600005 .18100001 .43700005 .22100002 .43700005 C .26500003 .43700005 .30800004 .41500003 .33400003 .37200005 C .36 .32900004 .36 .27100004 .36 .23300003 C .36 .19700001 .36 .143 .33800004 .09900001 C .316 .054 .272 .025000003 .222 .025000003 Z "/>
</symbol>
<symbol id="font_1_13">
<path d="M .144 .694 L 0 .683 L 0 .652 C .07000001 .652 .07800001 .64500007 .07800001 .596 L .07800001 .076000008 C .07800001 .031000002 .067 .031000002 0 .031000002 L 0 0 C .033 .001 .086 .003 .11100001 .003 C .136 .003 .185 .001 .22200004 0 L .22200004 .031000002 C .155 .031000002 .144 .031000002 .144 .076000008 L .144 .694 Z "/>
</symbol>
<symbol id="font_1_12">
<path d="M .144 .44200004 L .0040000008 .43100003 L .0040000008 .4 C .069000009 .4 .07800001 .39400003 .07800001 .34500004 L .07800001 .076000008 C .07800001 .031000002 .067 .031000002 0 .031000002 L 0 0 C .032000007 .001 .086 .003 .11000001 .003 C .14500001 .003 .18 .001 .21400002 0 L .21400002 .031000002 C .148 .031000002 .144 .036000004 .144 .075 L .144 .44200004 M .148 .61600008 C .148 .648 .123 .669 .095000009 .669 C .064 .669 .042000005 .642 .042000005 .61600008 C .042000005 .58900007 .064 .563 .095000009 .563 C .123 .563 .148 .58400008 .148 .61600008 Z "/>
</symbol>
<symbol id="font_1_f">
<path d="M .083000008 .22900002 C .083000008 .39200003 .16500002 .43400003 .218 .43400003 C .227 .43400003 .29 .43300004 .32500003 .397 C .284 .39400003 .278 .36400003 .278 .351 C .278 .32500003 .296 .305 .324 .305 C .35 .305 .37 .32200004 .37 .35200004 C .37 .42000003 .294 .45900003 .21700001 .45900003 C .092 .45900003 0 .351 0 .22700002 C 0 .09900001 .099 0 .215 0 C .349 0 .381 .120000008 .381 .13000001 C .381 .14000002 .37100003 .14000002 .368 .14000002 C .359 .14000002 .35700003 .136 .35500003 .13000001 C .326 .037 .261 .025000003 .224 .025000003 C .171 .025000003 .083000008 .068 .083000008 .22900002 Z "/>
</symbol>
<symbol id="font_1_1c">
<path d="M .39600004 .541 C .42200003 .60400006 .47300003 .605 .48900003 .605 L .48900003 .63600006 C .46600003 .63400009 .43700005 .633 .41400004 .633 C .39600004 .633 .34900005 .635 .32700003 .63600006 L .32700003 .605 C .358 .60400006 .374 .587 .374 .56200006 C .374 .55200007 .37300004 .5500001 .36800004 .538 L .26700003 .29200004 L .15600002 .561 C .15200001 .57100006 .15 .57500007 .15 .579 C .15 .605 .187 .605 .206 .605 L .206 .63600006 C .18 .635 .114 .633 .097 .633 C .07 .633 .030000002 .63400009 0 .63600006 L 0 .605 C .048 .605 .067 .605 .081 .57000008 L .231 .20500002 C .22600001 .19200002 .21200001 .15900001 .206 .14600002 C .18400002 .091000009 .15600002 .022 .09200001 .022 C .087000008 .022 .064 .022 .045 .040000008 C .076000008 .044 .08400001 .066 .08400001 .08200001 C .08400001 .10800001 .065000008 .12400001 .042000005 .12400001 C .022 .12400001 0 .11100001 0 .08100001 C 0 .036 .042000005 0 .09200001 0 C .155 0 .19600001 .05700001 .22 .11400001 L .39600004 .541 Z "/>
</symbol>
<symbol id="font_1_b">
<path d="M .19700001 .605 C .19700001 .64100006 .20000002 .652 .279 .652 L .305 .652 L .305 .683 C .27 .68 .19100002 .68 .15300001 .68 C .11400001 .68 .035 .68 0 .683 L 0 .652 L .026 .652 C .105000007 .652 .10800001 .64100006 .10800001 .605 L .10800001 .078 C .10800001 .042000005 .105000007 .031000002 .026 .031000002 L 0 .031000002 L 0 0 C .035 .003 .11400001 .003 .15200001 .003 C .19100002 .003 .27 .003 .305 0 L .305 .031000002 L .279 .031000002 C .20000002 .031000002 .19700001 .042000005 .19700001 .078 L .19700001 .605 Z "/>
</symbol>
<symbol id="font_1_19">
<path d="M .15400002 .411 L .29700003 .411 L .29700003 .44200004 L .15400002 .44200004 L .15400002 .626 L .12900001 .626 C .12799999 .544 .098000008 .43700005 0 .43300004 L 0 .411 L .085 .411 L .085 .135 C .085 .012000001 .178 0 .21400002 0 C .28500004 0 .31300003 .071 .31300003 .135 L .31300003 .19200002 L .28800003 .19200002 L .28800003 .13700001 C .28800003 .063 .25800003 .025000003 .22100002 .025000003 C .15400002 .025000003 .15400002 .116000007 .15400002 .13300002 L .15400002 .411 Z "/>
</symbol>
<symbol id="font_1_10">
<path d="M .08400001 .263 C .09 .41200004 .17400001 .43700005 .20800002 .43700005 C .31100003 .43700005 .321 .30200003 .321 .263 L .08400001 .263 M .083000008 .24200002 L .36200003 .24200002 C .38400004 .24200002 .38700003 .24200002 .38700003 .263 C .38700003 .36200003 .33300004 .45900003 .20800002 .45900003 C .09200001 .45900003 0 .35600005 0 .23100002 C 0 .097 .105000007 0 .22000002 0 C .342 0 .38700003 .111 .38700003 .13000001 C .38700003 .14000002 .379 .14200002 .374 .14200002 C .365 .14200002 .36300005 .136 .36100004 .128 C .326 .025000003 .236 .025000003 .22600001 .025000003 C .17600002 .025000003 .136 .055000005 .113000009 .092 C .083000008 .14000002 .083000008 .20600002 .083000008 .24200002 Z "/>
</symbol>
<symbol id="font_1_18">
<path d="M .13900002 .33200003 L .13900002 .44200004 L 0 .43100003 L 0 .4 C .07000001 .4 .07800001 .393 .07800001 .344 L .07800001 .076000008 C .07800001 .031000002 .067 .031000002 0 .031000002 L 0 0 C .039 .001 .08600001 .003 .11400001 .003 C .15400002 .003 .20100002 .003 .24100003 0 L .24100003 .031000002 L .22000002 .031000002 C .14600002 .031000002 .14400001 .042000005 .14400001 .078 L .14400001 .23200001 C .14400001 .33100004 .18600002 .42000003 .26200003 .42000003 C .26900003 .42000003 .27100004 .42000003 .27300004 .41900004 C .27 .418 .25000004 .40600003 .25000004 .38000003 C .25000004 .35200004 .27100004 .337 .293 .337 C .31100003 .337 .33600004 .349 .33600004 .381 C .33600004 .41300003 .305 .44200004 .26200003 .44200004 C .18900001 .44200004 .15300001 .37500004 .13900002 .33200003 Z "/>
</symbol>
<symbol id="font_1_e">
<path d="M .291 .087000008 C .29500003 .047000003 .32200004 .005000001 .36900003 .005000001 C .39000003 .005000001 .45100004 .019000002 .45100004 .1 L .45100004 .15600002 L .42600004 .15600002 L .42600004 .1 C .42600004 .042000005 .40100003 .036000004 .39000003 .036000004 C .35700003 .036000004 .35300002 .081 .35300002 .086 L .35300002 .286 C .35300002 .328 .35300002 .367 .31700004 .404 C .27800004 .44300003 .22800002 .45900003 .18 .45900003 C .098 .45900003 .029 .41200004 .029 .34600003 C .029 .316 .049000004 .29900003 .075 .29900003 C .10300001 .29900003 .121 .31900005 .121 .34500004 C .121 .35700003 .116000007 .39000003 .07 .39100004 C .09700001 .42600004 .146 .43700005 .178 .43700005 C .22700003 .43700005 .284 .39800004 .284 .30900003 L .284 .272 C .23300001 .26900003 .16300002 .26600004 .1 .23600002 C .024999999 .20200002 0 .15000002 0 .106000009 C 0 .025000003 .09700001 0 .16 0 C .22600001 0 .272 .040000004 .291 .087000008 M .284 .25100003 L .284 .15100001 C .284 .056 .21200001 .022000002 .167 .022000002 C .11800001 .022000002 .077 .057000005 .077 .107 C .077 .16200002 .11900001 .24500002 .284 .25100003 Z "/>
</symbol>
<symbol id="font_1_15">
<path d="M .07800001 .344 L .07800001 .076000008 C .07800001 .031000002 .067 .031000002 0 .031000002 L 0 0 C .035 .001 .08600001 .003 .113000009 .003 C .139 .003 .191 .001 .225 0 L .225 .031000002 C .158 .031000002 .147 .031000002 .147 .076000008 L .147 .26000003 C .147 .36400003 .218 .42000003 .282 .42000003 C .345 .42000003 .356 .36600004 .356 .30900003 L .356 .076000008 C .356 .031000002 .345 .031000002 .278 .031000002 L .278 0 C .31300003 .001 .36400003 .003 .391 .003 C .41700004 .003 .46900005 .001 .503 0 L .503 .031000002 C .451 .031000002 .42600004 .031000002 .425 .061000006 L .425 .252 C .425 .33800004 .425 .36900003 .39400003 .40500004 C .38000003 .42200003 .347 .44200004 .289 .44200004 C .216 .44200004 .169 .39900003 .141 .337 L .141 .44200004 L 0 .43100003 L 0 .4 C .07000001 .4 .07800001 .393 .07800001 .344 Z "/>
</symbol>
<symbol id="font_1_1">
<path d="M .23200003 .00999999 C .23200003 .012999982 .23200003 .014999986 .215 .03199999 C .09 .15799999 .058 .347 .058 .5 C .058 .674 .096 .84800007 .21900001 .97300007 C .23200003 .985 .23200003 .98700007 .23200003 .99 C .23200003 .99700006 .22800002 1 .222 1 C .21200001 1 .12200001 .93200007 .06299999 .805 C .012000002 .69500008 0 .584 0 .5 C 0 .422 .011 .301 .066 .188 C .126 .065 .21200001 0 .222 0 C .22800002 0 .23200003 .0029999912 .23200003 .00999999 Z "/>
</symbol>
<symbol id="font_1_c">
<path d="M .20400001 .661 C .19500001 .683 .19200002 .683 .16900002 .683 L 0 .683 L 0 .652 L .024000004 .652 C .10100001 .652 .103 .64100006 .103 .605 L .103 .105000007 C .103 .078 .103 .031000002 0 .031000002 L 0 0 C .035000005 .001 .08400001 .003 .11700001 .003 C .15 .003 .19900002 .001 .23400003 0 L .23400003 .031000002 C .13100001 .031000002 .13100001 .078 .13100001 .105000007 L .13100001 .64400008 L .13200002 .64400008 L .37300004 .022000002 C .37800003 .009000001 .38300003 0 .393 0 C .404 0 .40700004 .008 .411 .019000002 L .657 .652 L .65800008 .652 L .65800008 .078 C .65800008 .042000005 .656 .031000002 .57900008 .031000002 L .555 .031000002 L .555 0 C .592 .003 .66 .003 .69900009 .003 C .73800006 .003 .80500009 .003 .84200009 0 L .84200009 .031000002 L .818 .031000002 C .74100008 .031000002 .739 .042000005 .739 .078 L .739 .605 C .739 .64100006 .74100008 .652 .818 .652 L .84200009 .652 L .84200009 .683 L .67300006 .683 C .647 .683 .647 .68200007 .64000007 .66400006 L .42100004 .101 L .20400001 .661 Z "/>
</symbol>
<symbol id="font_1_9">
<path d="M 0 .683 L 0 .652 L .024000004 .652 C .10100001 .652 .103000018 .64100006 .103000018 .605 L .103000018 .078 C .103000018 .042000005 .10100001 .031000002 .024000004 .031000002 L 0 .031000002 L 0 0 L .36600004 0 C .534 0 .672 .148 .672 .33600004 C .672 .526 .537 .683 .36600004 .683 L 0 .683 M .238 .031000002 C .19100002 .031000002 .18900001 .038000004 .18900001 .071 L .18900001 .61200007 C .18900001 .64500007 .19100002 .652 .238 .652 L .33800004 .652 C .40000005 .652 .469 .63000008 .52 .559 C .563 .5 .572 .41400004 .572 .33600004 C .572 .22500001 .553 .165 .517 .116000007 C .497 .089 .44000004 .031000002 .33900003 .031000002 L .238 .031000002 Z "/>
</symbol>
<symbol id="font_1_d">
<path d="M .19200002 .316 L .36100004 .316 C .48100005 .316 .589 .397 .589 .497 C .589 .595 .49000005 .683 .35300002 .683 L 0 .683 L 0 .652 L .024000004 .652 C .10100001 .652 .103000018 .64100006 .103000018 .605 L .103000018 .078 C .103000018 .042000005 .10100001 .031000002 .024000004 .031000002 L 0 .031000002 L 0 0 C .035 .003 .10900001 .003 .14700002 .003 C .18500002 .003 .26000003 .003 .29500003 0 L .29500003 .031000002 L .27100004 .031000002 C .19400002 .031000002 .19200002 .042000005 .19200002 .078 L .19200002 .316 M .18900001 .342 L .18900001 .61200007 C .18900001 .64500007 .19100002 .652 .238 .652 L .32700003 .652 C .48600004 .652 .48600004 .546 .48600004 .497 C .48600004 .45000003 .48600004 .342 .32700003 .342 L .18900001 .342 Z "/>
</symbol>
<symbol id="font_1_2">
<path d="M .232 .5 C .232 .578 .22100002 .699 .16600001 .81200006 C .106 .93500009 .020000004 1 .009999998 1 C .0040000008 1 0 .99600008 0 .99 C 0 .98700007 0 .985 .019000002 .967 C .117000009 .86800006 .174 .709 .174 .5 C .174 .329 .137 .153 .012999997 .026999996 C 0 .014999986 0 .012999982 0 .00999999 C 0 .003999993 .0040000008 0 .009999998 0 C .020000004 0 .11000001 .06799999 .169 .195 C .22 .305 .232 .416 .232 .5 Z "/>
</symbol>
<use xlink:href="#font_1_17" transform="matrix(9.9626,0,0,-9.9626,75.371959,22.387755)"/>
<use xlink:href="#font_1_16" transform="matrix(9.9626,0,0,-9.9626,81.19012,20.564599)"/>
<use xlink:href="#font_1_13" transform="matrix(9.9626,0,0,-9.9626,86.22123,20.45501)"/>
<use xlink:href="#font_1_12" transform="matrix(9.9626,0,0,-9.9626,88.99083,20.45501)"/>
<use xlink:href="#font_1_f" transform="matrix(9.9626,0,0,-9.9626,91.77039,20.564599)"/>
<use xlink:href="#font_1_1c" transform="matrix(9.9626,0,0,-9.9626,96.04435,22.497344)"/>
<use xlink:href="#font_1_b" transform="matrix(9.9626,0,0,-9.9626,101.394268,20.45501)"/>
<use xlink:href="#font_1_19" transform="matrix(9.9626,0,0,-9.9626,104.9011,20.564599)"/>
<use xlink:href="#font_1_10" transform="matrix(9.9626,0,0,-9.9626,108.86621,20.564599)"/>
<use xlink:href="#font_1_18" transform="matrix(9.9626,0,0,-9.9626,113.289608,20.45501)"/>
<use xlink:href="#font_1_e" transform="matrix(9.9626,0,0,-9.9626,117.33442,20.564599)"/>
<use xlink:href="#font_1_19" transform="matrix(9.9626,0,0,-9.9626,122.086589,20.564599)"/>
<use xlink:href="#font_1_12" transform="matrix(9.9626,0,0,-9.9626,126.10151,20.45501)"/>
<use xlink:href="#font_1_16" transform="matrix(9.9626,0,0,-9.9626,128.82129,20.564599)"/>
<use xlink:href="#font_1_15" transform="matrix(9.9626,0,0,-9.9626,133.84244,20.45501)"/>
<use xlink:href="#font_1_1" transform="matrix(9.9626,0,0,-9.9626,140.04914,22.94566)"/>
<use xlink:href="#font_1_c" transform="matrix(9.9626,0,0,-9.9626,143.30692,20.45501)"/>
<use xlink:href="#font_1_9" transform="matrix(9.9626,0,0,-9.9626,152.4227,20.45501)"/>
<use xlink:href="#font_1_d" transform="matrix(9.9626,0,0,-9.9626,160.03412,20.45501)"/>
<use xlink:href="#font_1_2" transform="matrix(9.9626,0,0,-9.9626,167.03783,22.94566)"/>
<path transform="matrix(1,0,0,-1,0,25.337006)" stroke-width=".797" stroke-linecap="butt" stroke-miterlimit="10" stroke-linejoin="miter" fill="none" stroke="#000000" d="M 0 0 L 360 0 "/>
<symbol id="font_1_1d">
<path d="M .36200003 .40100003 C .37100003 .41200004 .37100003 .41400004 .37100003 .418 C .37100003 .43100003 .36300005 .43100003 .34500004 .43100003 L .025000003 .43100003 L .014000002 .27 L .039 .27 C .045000007 .372 .06400001 .409 .17400001 .409 L .28800003 .409 L .009 .032 C 0 .021000002 0 .019000002 0 .014 C 0 0 .0069999995 0 .026 0 L .356 0 L .37300004 .187 L .34800003 .187 C .33900003 .069000009 .31800003 .025 .202 .025 L .08400001 .025 L .36200003 .40100003 Z "/>
</symbol>
<use xlink:href="#font_1_b" transform="matrix(9.9626,0,0,-9.9626,15.222953,34.646005)"/>
<use xlink:href="#font_1_15" transform="matrix(9.9626,0,0,-9.9626,18.859303,34.646005)"/>
<use xlink:href="#font_1_12" transform="matrix(9.9626,0,0,-9.9626,24.40847,34.646005)"/>
<use xlink:href="#font_1_19" transform="matrix(9.9626,0,0,-9.9626,27.038598,34.755594)"/>
<use xlink:href="#font_1_12" transform="matrix(9.9626,0,0,-9.9626,31.053526,34.646005)"/>
<use xlink:href="#font_1_e" transform="matrix(9.9626,0,0,-9.9626,33.912794,34.755594)"/>
<use xlink:href="#font_1_13" transform="matrix(9.9626,0,0,-9.9626,38.80443,34.646005)"/>
<use xlink:href="#font_1_12" transform="matrix(9.9626,0,0,-9.9626,41.57403,34.646005)"/>
<use xlink:href="#font_1_1d" transform="matrix(9.9626,0,0,-9.9626,44.293825,34.646005)"/>
<use xlink:href="#font_1_10" transform="matrix(9.9626,0,0,-9.9626,48.717218,34.755594)"/>
<symbol id="font_2_2">
<path d="M .23800002 .38400004 L .351 .38400004 C .31800003 .23600002 .30900003 .19300002 .30900003 .126 C .30900003 .111 .30900003 .08400001 .317 .05 C .327 .0060000007 .338 0 .35300002 0 C .373 0 .39400003 .018000002 .39400003 .038000004 C .39400003 .044 .39400003 .046 .388 .060000004 C .359 .13200002 .359 .19700001 .359 .22500003 C .359 .27800004 .366 .33200003 .377 .38400004 L .491 .38400004 C .504 .38400004 .54 .38400004 .54 .418 C .54 .44200004 .519 .44200004 .5 .44200004 L .165 .44200004 C .143 .44200004 .105 .44200004 .061000006 .395 C .026000003 .35600005 0 .31000004 0 .305 C 0 .30400003 0 .29500003 .012 .29500003 C .020000002 .29500003 .022000002 .29900003 .028000003 .307 C .077 .38400004 .135 .38400004 .15500002 .38400004 L .21200001 .38400004 C .18000002 .263 .12600002 .14200002 .08400001 .051000004 C .076000008 .036000004 .076000008 .034 .076000008 .027000003 C .076000008 .008000001 .092 0 .105 0 C .135 0 .143 .028 .15500002 .065000008 C .16900002 .111 .16900002 .113000009 .18200001 .16300002 L .23800002 .38400004 Z "/>
</symbol>
<use xlink:href="#font_2_2" transform="matrix(9.9626,0,0,-9.9626,56.44699,34.755594)"/>
<symbol id="font_3_2">
<path d="M .46400006 .33900003 C .46400006 .44900004 .45100004 .528 .40500004 .598 C .374 .644 .31200005 .684 .23200001 .684 C 0 .684 0 .41100005 0 .33900003 C 0 .26700003 0 0 .23200001 0 C .46400006 0 .46400006 .26700003 .46400006 .33900003 M .23200001 .028 C .186 .028 .125 .055 .105000007 .13700001 C .091000009 .19600001 .091000009 .27800004 .091000009 .35200004 C .091000009 .42500005 .091000009 .50100007 .106000009 .556 C .127 .635 .19100002 .656 .23200001 .656 C .286 .656 .338 .623 .356 .565 C .37200005 .51100006 .37300004 .43900005 .37300004 .35200004 C .37300004 .27800004 .37300004 .20400001 .36 .141 C .34000004 .050000006 .272 .028 .23200001 .028 Z "/>
</symbol>
<use xlink:href="#font_3_2" transform="matrix(6.9738,0,0,-6.9738,62.21964,36.280485)"/>
<use xlink:href="#font_1_19" transform="matrix(9.9626,0,0,-9.9626,69.837299,34.755594)"/>
<use xlink:href="#font_1_16" transform="matrix(9.9626,0,0,-9.9626,73.80241,34.755594)"/>
<use xlink:href="#font_1_e" transform="matrix(9.9626,0,0,-9.9626,82.24072,34.755594)"/>
<use xlink:href="#font_1_15" transform="matrix(9.9626,0,0,-9.9626,87.1224,34.646005)"/>
<use xlink:href="#font_1_1c" transform="matrix(9.9626,0,0,-9.9626,92.25314,36.688337)"/>
<use xlink:href="#font_1_17" transform="matrix(9.9626,0,0,-9.9626,100.930568,36.578748)"/>
<use xlink:href="#font_1_16" transform="matrix(9.9626,0,0,-9.9626,106.748729,34.755594)"/>
<use xlink:href="#font_1_13" transform="matrix(9.9626,0,0,-9.9626,111.77984,34.646005)"/>
<use xlink:href="#font_1_12" transform="matrix(9.9626,0,0,-9.9626,114.54944,34.646005)"/>
<use xlink:href="#font_1_f" transform="matrix(9.9626,0,0,-9.9626,117.31904,34.755594)"/>
<use xlink:href="#font_1_1c" transform="matrix(9.9626,0,0,-9.9626,121.60296,36.688337)"/>
<symbol id="font_2_6">
<path d="M .059000009 .07000001 C .056 .055000005 .050000006 .032 .050000006 .027000003 C .050000006 .009000001 .064 0 .079 0 C .091000009 0 .10900001 .008000001 .11600001 .028 C .11700001 .030000002 .12900001 .077 .135 .102000009 L .157 .19200002 C .163 .21400002 .16900002 .23600002 .17400001 .259 C .17800002 .27600003 .186 .305 .187 .30900003 C .202 .34000004 .255 .43100003 .35 .43100003 C .395 .43100003 .404 .39400003 .404 .36100004 C .404 .29900003 .355 .17100002 .33900003 .128 C .33 .105000007 .329 .093 .329 .082 C .329 .035 .364 0 .411 0 C .50500008 0 .54200008 .14600002 .54200008 .15400002 C .54200008 .16400002 .53300008 .16400002 .53000006 .16400002 C .52000007 .16400002 .52000007 .16100002 .51500007 .14600002 C .49500004 .078 .462 .022000002 .41300003 .022000002 C .396 .022000002 .389 .032 .389 .055000005 C .389 .080000009 .398 .104 .407 .126 C .426 .17900002 .468 .28900004 .468 .34600003 C .468 .41300003 .425 .45300005 .35300002 .45300005 C .263 .45300005 .21400002 .38900004 .19700001 .36600004 C .19200002 .42200003 .15100001 .45300005 .105000007 .45300005 C .059000009 .45300005 .040000008 .41400004 .030000003 .39600004 C .014 .36200003 0 .30300004 0 .29900003 C 0 .28900004 .01 .28900004 .012 .28900004 C .022000002 .28900004 .023 .29000003 .029000001 .31200005 C .046000005 .38300003 .06600001 .43100003 .10200001 .43100003 C .12200001 .43100003 .133 .418 .133 .38500003 C .133 .36400003 .13000001 .35300002 .11700001 .30100004 L .059000009 .07000001 Z "/>
</symbol>
<use xlink:href="#font_2_6" transform="matrix(9.9626,0,0,-9.9626,15.23292,46.710596)"/>
<symbol id="font_4_1">
<path d="M .85200008 .24100001 C .87000009 .24100001 .8880001 .24100001 .8880001 .261 C .8880001 .28100003 .87000009 .28100003 .85200008 .28100003 L .109000008 .28100003 C .164 .323 .19100002 .36400003 .19900003 .37700004 C .24400002 .44600005 .25200004 .509 .25200004 .51 C .25200004 .522 .24000001 .522 .23200003 .522 C .21500004 .522 .21400002 .52 .21000001 .50200006 C .187 .404 .12800002 .321 .015000001 .27400003 C .0040000008 .27 0 .268 0 .261 C 0 .254 .0050000029 .252 .015000001 .24800003 C .11900001 .20500002 .18600002 .127 .21100003 .015000001 C .21400002 .0030000006 .21500004 0 .23200003 0 C .24000001 0 .25200004 0 .25200004 .012000001 C .25200004 .014 .24300003 .077 .201 .14400001 C .18100003 .17400001 .15200001 .20900002 .109000008 .24100001 L .85200008 .24100001 Z "/>
</symbol>
<use xlink:href="#font_4_1" transform="matrix(9.9626,0,0,-9.9626,24.248909,46.710596)"/>
<symbol id="font_1_4">
<path d="M .421 .34200005 C .421 .42200003 .416 .50200006 .381 .57600006 C .335 .67200008 .25300003 .688 .211 .688 C .15100001 .688 .07800001 .66200008 .037000006 .56900009 C .0050000029 .5 0 .42200003 0 .34200005 C 0 .26700003 .0040000008 .177 .045000007 .101 C .088 .020000002 .161 0 .21000001 0 C .264 0 .34 .021000002 .384 .116000007 C .416 .185 .421 .263 .421 .34200005 M .21000001 .022000002 C .171 .022000002 .112 .047000003 .094 .143 C .083000008 .20300001 .083000008 .29500003 .083000008 .35400004 C .083000008 .41800005 .083000008 .48400004 .091000009 .53800007 C .11 .65700009 .185 .66600009 .21000001 .66600009 C .243 .66600009 .30900003 .64800009 .328 .549 C .338 .49300004 .338 .41700004 .338 .35400004 C .338 .279 .338 .21100001 .32700003 .147 C .312 .052 .255 .022000002 .21000001 .022000002 Z "/>
</symbol>
<use xlink:href="#font_1_4" transform="matrix(9.9626,0,0,-9.9626,36.809549,46.820184)"/>
<symbol id="font_0_5">
<path d="M .43 .224 C .45200003 .224 .462 .224 .462 .25100003 C .462 .28200004 .45600004 .35500003 .40600003 .40500004 C .36900003 .44100005 .316 .45900003 .24700001 .45900003 C .087 .45900003 0 .35600005 0 .231 C 0 .097 .099999997 0 .261 0 C .41900004 0 .462 .106 .462 .123 C .462 .141 .44300003 .141 .43800003 .141 C .421 .141 .41900004 .136 .41300003 .120000008 C .39200003 .072 .335 .040000004 .27 .040000004 C .12900001 .040000004 .128 .17300001 .128 .224 L .43 .224 M .128 .25700004 C .13 .29600004 .131 .33800004 .15200001 .37100003 C .178 .41100005 .218 .42300005 .24700001 .42300005 C .36400003 .42300005 .36600004 .29200004 .367 .25700004 L .128 .25700004 Z "/>
</symbol>
<symbol id="font_0_d">
<path d="M .18300002 .523 C .18300002 .54200008 .18400002 .543 .19800002 .55700007 C .238 .59800007 .29000003 .60400006 .312 .60400006 C .379 .60400006 .43500004 .543 .43500004 .417 C .43500004 .27600003 .365 .224 .3 .224 C .286 .224 .23900002 .224 .194 .278 C .18300002 .291 .18300002 .292 .18300002 .31100003 L .18300002 .523 M .18300002 .23300001 C .22600001 .198 .27 .18800001 .31100003 .18800001 C .46100004 .18800001 .563 .278 .563 .417 C .563 .55 .472 .64400008 .328 .64400008 C .25300003 .64400008 .20000002 .61300006 .17700002 .595 L .17700002 .64400008 L 0 .63600006 L 0 .589 C .062000008 .589 .069000009 .589 .069000009 .551 L .069000009 .047000007 L 0 .047000007 L 0 0 C .028000005 .001000002 .088 .0029999912 .126 .0029999912 C .165 .0029999912 .224 .001000002 .252 0 L .252 .047000007 L .18300002 .047000007 L .18300002 .23300001 Z "/>
</symbol>
<symbol id="font_0_4">
<path d="M .342 .083000008 C .342 .052000006 .342 .006 .446 .006 L .49400003 .006 C .514 .006 .526 .006 .526 .030000002 C .526 .053000004 .513 .053000004 .5 .053000004 C .439 .054 .439 .067 .439 .09 L .439 .30500005 C .439 .39400003 .368 .45900003 .21900001 .45900003 C .162 .45900003 .040000004 .45500005 .040000004 .36700005 C .040000004 .323 .075 .30400003 .102 .30400003 C .133 .30400003 .165 .32500003 .165 .36700005 C .165 .39700005 .146 .41400004 .143 .41600005 C .171 .42200003 .20300001 .42300005 .215 .42300005 C .29000003 .42300005 .32500003 .38100005 .32500003 .30500005 L .32500003 .27100004 C .254 .26800005 0 .25900004 0 .114 C 0 .018 .124 0 .193 0 C .273 0 .32000003 .041 .342 .083000008 M .32500003 .24000001 L .32500003 .14500001 C .32500003 .049000004 .23300001 .036000004 .208 .036000004 C .157 .036000004 .117 .071 .117 .115 C .117 .223 .275 .237 .32500003 .24000001 Z "/>
</symbol>
<use xlink:href="#font_0_e" transform="matrix(9.9626,0,0,-9.9626,15.312622,58.557008)"/>
<use xlink:href="#font_0_5" transform="matrix(9.9626,0,0,-9.9626,19.985083,58.616785)"/>
<use xlink:href="#font_0_d" transform="matrix(9.9626,0,0,-9.9626,25.285185,60.48975)"/>
<use xlink:href="#font_0_5" transform="matrix(9.9626,0,0,-9.9626,31.920279,58.616785)"/>
<use xlink:href="#font_0_4" transform="matrix(9.9626,0,0,-9.9626,37.170568,58.616785)"/>
<use xlink:href="#font_0_f" transform="matrix(9.9626,0,0,-9.9626,42.63007,58.616785)"/>
<path transform="matrix(1,0,0,-1,20.125,93.802)" stroke-width=".398" stroke-linecap="butt" stroke-miterlimit="10" stroke-linejoin="miter" fill="none" stroke="#000000" d="M 0 0 L 0 31.659 "/>
<symbol id="font_1_a">
<path d="M .10300001 .078 C .10300001 .042000005 .101 .031000002 .024000004 .031000002 L 0 .031000002 L 0 0 L .577 0 L .619 .25800003 L .59400007 .25800003 C .56900009 .104 .54600009 .031000002 .374 .031000002 L .24100003 .031000002 C .194 .031000002 .192 .038000004 .192 .071 L .192 .33800004 L .28200004 .33800004 C .37900005 .33800004 .39000003 .30600003 .39000003 .22100002 L .41500003 .22100002 L .41500003 .48600004 L .39000003 .48600004 C .39000003 .4 .37900005 .36900003 .28200004 .36900003 L .192 .36900003 L .192 .609 C .192 .642 .194 .64900007 .24100003 .64900007 L .37000004 .64900007 C .52300009 .64900007 .55 .59400007 .56600007 .455 L .591 .455 L .563 .68 L 0 .68 L 0 .64900007 L .024000004 .64900007 C .101 .64900007 .10300001 .638 .10300001 .60200008 L .10300001 .078 Z "/>
</symbol>
<symbol id="font_1_1a">
<path d="M .397 .344 C .40600003 .367 .42300005 .41000004 .48900003 .411 L .48900003 .44200004 C .46600003 .44000004 .43700005 .43900005 .41400004 .43900005 C .39000003 .43900005 .344 .441 .32700003 .44200004 L .32700003 .411 C .36400003 .41000004 .37500004 .38700003 .37500004 .36800004 C .37500004 .35900004 .37300004 .35500003 .36900003 .344 L .26700003 .089 L .155 .36800004 C .14900002 .381 .14900002 .38300003 .14900002 .38500003 C .14900002 .411 .18800003 .411 .206 .411 L .206 .44200004 C .176 .441 .12000001 .43900005 .097 .43900005 C .07 .43900005 .030000002 .44000004 0 .44200004 L 0 .411 C .063 .411 .067 .40500004 .080000009 .374 L .224 .019000002 C .23000002 .005000001 .23200003 0 .245 0 C .25800003 0 .26200003 .009000001 .26600004 .019000002 L .397 .344 Z "/>
</symbol>
<symbol id="font_1_6">
<path d="M .106 .37800003 C .106 .407 .08200001 .43100003 .05300001 .43100003 C .024000004 .43100003 0 .407 0 .37800003 C 0 .349 .024000004 .32500003 .05300001 .32500003 C .08200001 .32500003 .106 .349 .106 .37800003 M .106 .053000004 C .106 .082 .08200001 .106000009 .05300001 .106000009 C .024000004 .106000009 0 .082 0 .053000004 C 0 .024 .024000004 0 .05300001 0 C .08200001 0 .106 .024 .106 .053000004 Z "/>
</symbol>
<use xlink:href="#font_1_a" transform="matrix(9.9626,0,0,-9.9626,30.614766,69.06201)"/>
<use xlink:href="#font_1_1a" transform="matrix(9.9626,0,0,-9.9626,37.25982,69.1716)"/>
<use xlink:href="#font_1_e" transform="matrix(9.9626,0,0,-9.9626,42.191308,69.1716)"/>
<use xlink:href="#font_1_13" transform="matrix(9.9626,0,0,-9.9626,47.082944,69.06201)"/>
<use xlink:href="#font_1_6" transform="matrix(9.9626,0,0,-9.9626,50.380567,69.06201)"/>
<symbol id="font_2_5">
<path d="M .572 .591 C .62100008 .669 .66300007 .67200008 .70000007 .674 C .712 .6750001 .71300008 .69200006 .71300008 .693 C .71300008 .70100006 .70800009 .70500007 .70000007 .70500007 C .674 .70500007 .64500007 .702 .61800006 .702 C .58500006 .702 .55100008 .70500007 .51900008 .70500007 C .513 .70500007 .50000008 .70500007 .50000008 .68600007 C .50000008 .6750001 .509 .674 .51600006 .674 C .54300007 .67200008 .56200006 .66200008 .56200006 .64100006 C .56200006 .62600007 .54700008 .60400006 .54700008 .60300007 L .24000001 .115 L .17200002 .64400008 C .17200002 .6610001 .19500003 .674 .24100003 .674 C .25500003 .674 .26600004 .674 .26600004 .69400009 C .26600004 .70300009 .25800003 .70500007 .25200004 .70500007 C .21200001 .70500007 .169 .702 .12800002 .702 C .11000001 .702 .091 .70300009 .07300001 .70300009 C .055000009 .70300009 .036000007 .70500007 .019000002 .70500007 C .012000002 .70500007 0 .70500007 0 .68600007 C 0 .674 .009000003 .674 .024999999 .674 C .08100001 .674 .08200001 .665 .085 .64000007 L .164 .023000002 C .167 .0030000006 .171 0 .18400002 0 C .20000002 0 .20400003 .005000001 .21200001 .018000002 L .572 .591 Z "/>
</symbol>
<use xlink:href="#font_2_5" transform="matrix(9.9626,0,0,-9.9626,57.272909,69.28119)"/>
<symbol id="font_5_3">
<path d="M .075 .073 C .07100001 .060000004 .065 .035 .065 .032 C .065 .010000001 .083000008 0 .09900001 0 C .117 0 .133 .013 .138 .022 C .143 .031000004 .15100001 .063 .156 .084 C .161 .103 .172 .14900002 .178 .17400001 C .184 .19600001 .19000001 .21800001 .19500001 .24100001 C .20600002 .282 .20800002 .29 .237 .331 C .26500003 .37100003 .31200005 .423 .38700003 .423 C .44500003 .423 .44600005 .372 .44600005 .35300002 C .44600005 .293 .40300004 .18200001 .38700003 .14000002 C .37600003 .112 .37200005 .103 .37200005 .086 C .37200005 .033000005 .41600005 0 .467 0 C .56700006 0 .61100009 .13800001 .61100009 .15300001 C .61100009 .16600001 .59800007 .16600001 .595 .16600001 C .58100005 .16600001 .58000007 .16000001 .57600006 .14900002 C .55300006 .069000009 .51000007 .028 .47000004 .028 C .44900004 .028 .44500003 .042000005 .44500003 .063 C .44500003 .086 .45000003 .099 .46800006 .14400001 C .48000003 .17500001 .521 .28100003 .521 .337 C .521 .43400003 .44400005 .451 .39100004 .451 C .30800004 .451 .25200004 .4 .22200002 .36 C .21500002 .42900003 .156 .451 .114999998 .451 C .072 .451 .049 .42000003 .036000004 .397 C .014000002 .36 0 .303 0 .298 C 0 .285 .014000002 .285 .017 .285 C .031 .285 .032 .28800003 .039 .315 C .054 .374 .073 .423 .112 .423 C .138 .423 .145 .40100003 .145 .374 C .145 .35500003 .136 .31800003 .12900001 .291 C .12200001 .264 .112 .22300002 .10700001 .20100002 L .075 .073 Z "/>
</symbol>
<use xlink:href="#font_5_3" transform="matrix(6.9738,0,0,-6.9738,62.85477,70.62575)"/>
<symbol id="font_1_8">
<path d="M .63100007 .19400002 C .646 .19400002 .665 .19400002 .665 .214 C .665 .23400001 .646 .23400001 .632 .23400001 L .033 .23400001 C .019000002 .23400001 0 .23400001 0 .214 C 0 .19400002 .019000002 .19400002 .034 .19400002 L .63100007 .19400002 M .632 0 C .646 0 .665 0 .665 .02000001 C .665 .040000008 .646 .040000008 .63100007 .040000008 L .034 .040000008 C .019000002 .040000008 0 .040000008 0 .02000001 C 0 0 .019000002 0 .033 0 L .632 0 Z "/>
</symbol>
<use xlink:href="#font_1_8" transform="matrix(9.9626,0,0,-9.9626,71.27491,67.736988)"/>
<symbol id="font_2_3">
<path d="M .33400003 .63600006 C .34 .66 .343 .67 .36200003 .67300006 C .37100003 .674 .40300004 .674 .423 .674 C .49400003 .674 .605 .674 .605 .57500007 C .605 .54100009 .58900007 .47200004 .55 .43300004 C .524 .40700004 .47100003 .37500004 .381 .37500004 L .269 .37500004 L .33400003 .63600006 M .47800005 .36200003 C .579 .38400004 .698 .45400004 .698 .55500009 C .698 .64100006 .60800006 .70500007 .477 .70500007 L .192 .70500007 C .17200002 .70500007 .16300002 .70500007 .16300002 .68500009 C .16300002 .674 .17200002 .674 .19100002 .674 C .19300002 .674 .21200001 .674 .229 .67200008 C .24700001 .67 .256 .669 .256 .656 C .256 .65200009 .255 .64900007 .252 .637 L .11800001 .1 C .108 .061000006 .106 .053000004 .027000003 .053000004 C .009 .053000004 0 .053000004 0 .033000005 C 0 .022000002 .012000002 .022000002 .014000002 .022000002 C .042000005 .022000002 .11200001 .025000003 .14000002 .025000003 C .16800002 .025000003 .239 .022000002 .26700003 .022000002 C .275 .022000002 .287 .022000002 .287 .042000005 C .287 .053000004 .278 .053000004 .259 .053000004 C .222 .053000004 .194 .053000004 .194 .071 C .194 .07700001 .19600001 .082 .197 .088 L .263 .35300005 L .382 .35300005 C .473 .35300005 .491 .29700003 .491 .26200003 C .491 .24700001 .48300005 .216 .477 .193 C .47000004 .165 .46100004 .128 .46100004 .108 C .46100004 0 .58100005 0 .59400007 0 C .679 0 .71400007 .101 .71400007 .115 C .71400007 .127 .703 .127 .702 .127 C .693 .127 .69100007 .120000008 .689 .113000009 C .66400006 .039000006 .62100008 .022000002 .59800007 .022000002 C .565 .022000002 .558 .044000005 .558 .083000008 C .558 .11400001 .564 .165 .568 .19700001 C .57 .21100001 .572 .23 .572 .24400002 C .572 .32100005 .505 .35200004 .47800005 .36200003 Z "/>
</symbol>
<use xlink:href="#font_2_3" transform="matrix(9.9626,0,0,-9.9626,81.64147,69.28119)"/>
<symbol id="font_5_1">
<path d="M .26600004 .373 L .385 .373 C .37 .313 .348 .22200002 .348 .143 C .348 .103 .35300005 .076 .35900004 .054000006 C .375 .0040000008 .388 0 .40400005 0 C .42700006 0 .45100004 .021000002 .45100004 .045 C .45100004 .053000004 .449 .057000005 .44300003 .067 C .42400003 .104 .40600003 .16100002 .40600003 .24300002 C .40600003 .262 .40600003 .30200003 .42000003 .373 L .545 .373 C .563 .373 .57100006 .373 .582 .381 C .596 .391 .59900006 .407 .59900006 .412 C .59900006 .441 .573 .441 .556 .441 L .179 .441 C .13800001 .441 .11 .432 .065000008 .39000003 C .039000006 .367 0 .313 0 .304 C 0 .292 .013 .292 .017 .292 C .028000005 .292 .029 .294 .035000005 .303 C .08600001 .373 .148 .373 .17 .373 L .23100002 .373 C .2 .263 .14600002 .14500001 .11600001 .085 C .11 .072000008 .10000001 .051000004 .097 .047000003 C .096 .043 .09400001 .039 .09400001 .032 C .09400001 .016 .106000009 0 .12900001 0 C .16900002 0 .18 .045 .20400001 .135 L .26600004 .373 Z "/>
</symbol>
<use xlink:href="#font_5_1" transform="matrix(6.9738,0,0,-6.9738,89.18882,65.51575)"/>
<symbol id="font_6_1">
<path d="M .104 .109000008 C .098000008 .08400001 .087 .040000004 .087 .035 C .087 .013000001 .105000007 0 .124 0 C .139 0 .161 .008000001 .172 .033000005 C .173 .038000004 .18500002 .085 .191 .111 C .22500001 .24600002 .22500001 .24800003 .22700002 .252 C .24000003 .279 .31200005 .41900004 .43400003 .41900004 C .48299999 .41900004 .504 .39200003 .504 .34700004 C .504 .29000003 .462 .18700002 .439 .13000001 C .43400003 .11800001 .42900003 .105000007 .42900003 .08800001 C .42900003 .036000004 .47900004 0 .538 0 C .64500007 0 .7 .13000001 .7 .15500002 C .7 .16900002 .683 .16900002 .679 .16900002 C .662 .16900002 .661 .16500002 .65500006 .14600002 C .63600006 .086 .59000006 .034 .542 .034 C .519 .034 .512 .05 .512 .072000008 C .512 .093 .51600006 .10300001 .52500006 .12500002 C .542 .16500002 .588 .279 .588 .33400003 C .588 .40800003 .535 .45300005 .44 .45300005 C .34900005 .45300005 .286 .39800004 .251 .35400004 C .246 .43600003 .166 .45300005 .12900001 .45300005 C .029 .45300005 0 .3 0 .298 C 0 .284 .016000003 .284 .020999998 .284 C .038000004 .284 .040000008 .29000003 .044 .30300004 C .059 .36100004 .082 .41900004 .124 .41900004 C .158 .41900004 .165 .38700003 .165 .36600004 C .165 .35200004 .155 .314 .149 .28800003 C .142 .261 .132 .22000002 .127 .19800002 L .104 .109000008 Z "/>
</symbol>
<use xlink:href="#font_6_1" transform="matrix(4.9813,0,0,-4.9813,93.9863,66.4978)"/>
<symbol id="font_1_3">
<path d="M .35300002 .31300003 L .632 .31300003 C .646 .31300003 .665 .31300003 .665 .333 C .665 .35300002 .646 .35300002 .632 .35300002 L .35300002 .35300002 L .35300002 .633 C .35300002 .647 .35300002 .666 .33300004 .666 C .31300003 .666 .31300003 .647 .31300003 .633 L .31300003 .35300002 L .033 .35300002 C .019000002 .35300002 0 .35300002 0 .333 C 0 .31300003 .019000002 .31300003 .033 .31300003 L .31300003 .31300003 L .31300003 .033000005 C .31300003 .019000002 .31300003 0 .33300004 0 C .35300002 0 .35300002 .019000002 .35300002 .033000005 L .35300002 .31300003 Z "/>
</symbol>
<use xlink:href="#font_1_3" transform="matrix(9.9626,0,0,-9.9626,101.6889,69.88891)"/>
<symbol id="font_2_1">
<path d="M .023 .469 C .062000008 .584 .171 .58500006 .182 .58500006 C .333 .58500006 .344 .41000004 .344 .331 C .344 .27 .33900003 .25300003 .33200003 .23300001 C .31 .16 .28 .044 .28 .017999992 C .28 .0069999995 .285 0 .293 0 C .306 0 .314 .022 .32500003 .060000004 C .34800003 .144 .358 .201 .36200003 .23200001 C .36400003 .245 .366 .25800003 .37 .271 C .402 .37 .46600003 .51900008 .50600007 .59800007 C .513 .61 .52500006 .632 .52500006 .63600006 C .52500006 .646 .51500007 .646 .513 .646 C .51 .646 .504 .646 .50100007 .63900008 C .449 .544 .409 .444 .36900003 .343 C .368 .374 .367 .45000003 .328 .54700008 C .30400003 .60800006 .264 .65700009 .19500001 .65700009 C .07000001 .65700009 0 .505 0 .474 C 0 .46400003 .009 .46400003 .019 .46400003 L .023 .469 Z "/>
</symbol>
<symbol id="font_2_4">
<path d="M .40300004 .60700008 C .41000004 .63500007 .41400004 .64100006 .42600004 .64400008 C .43500004 .646 .46800003 .646 .48900003 .646 C .59000006 .646 .63500007 .642 .63500007 .564 C .63500007 .549 .63100007 .51000007 .62700006 .48400004 C .62600007 .48000003 .624 .46800003 .624 .46500004 C .624 .45900003 .62700006 .45200003 .63600006 .45200003 C .647 .45200003 .64900007 .46 .651 .47500003 L .67800006 .64900007 C .679 .65300008 .68000009 .66300007 .68000009 .666 C .68000009 .67700007 .67 .67700007 .65300008 .67700007 L .098000008 .67700007 C .074 .67700007 .073 .67600008 .066 .657 L .006000001 .48100005 C .005000001 .47900004 0 .46500004 0 .46300004 C 0 .45700003 .005000001 .45200003 .012000002 .45200003 C .022000004 .45200003 .023000002 .45700003 .029000003 .47300003 C .083000008 .628 .109 .646 .25700004 .646 L .29600004 .646 C .32400004 .646 .32400004 .642 .32400004 .634 C .32400004 .628 .32100005 .61600008 .32000003 .61300006 L .186 .079 C .177 .042000005 .17400001 .031000002 .067 .031000002 C .031000004 .031000002 .025000003 .031000002 .025000003 .012 C .025000003 0 .036000004 0 .042 0 C .069000009 0 .097 .002 .124 .002 C .15200001 .002 .18100001 .003 .209 .003 C .237 .003 .26500003 .002 .29200004 .002 C .32100005 .002 .35100005 0 .37900005 0 C .38900004 0 .40100003 0 .40100003 .020000002 C .40100003 .031000002 .39300005 .031000002 .36700005 .031000002 C .34200005 .031000002 .32900004 .031000002 .30300004 .033 C .27400003 .036000004 .26600004 .039 .26600004 .055000005 C .26600004 .056 .26600004 .061000006 .27 .076000008 L .40300004 .60700008 Z "/>
</symbol>
<use xlink:href="#font_2_1" transform="matrix(9.9626,0,0,-9.9626,111.27332,71.20397)"/>
<use xlink:href="#font_2_4" transform="matrix(9.9626,0,0,-9.9626,117.051639,69.06201)"/>
<use xlink:href="#font_5_1" transform="matrix(6.9738,0,0,-6.9738,124.324817,65.51575)"/>
<use xlink:href="#font_6_1" transform="matrix(4.9813,0,0,-4.9813,129.12329,66.4978)"/>
<use xlink:href="#font_2_5" transform="matrix(9.9626,0,0,-9.9626,134.6109,69.28119)"/>
<use xlink:href="#font_5_3" transform="matrix(6.9738,0,0,-6.9738,140.19277,70.62575)"/>
<symbol id="font_1_14">
<path d="M .07800001 .344 L .07800001 .076000008 C .07800001 .031000002 .067 .031000002 0 .031000002 L 0 0 C .035 .001 .08600001 .003 .113000009 .003 C .139 .003 .191 .001 .225 0 L .225 .031000002 C .158 .031000002 .147 .031000002 .147 .076000008 L .147 .26000003 C .147 .36400003 .218 .42000003 .282 .42000003 C .345 .42000003 .356 .36600004 .356 .30900003 L .356 .076000008 C .356 .031000002 .345 .031000002 .278 .031000002 L .278 0 C .31300003 .001 .36400003 .003 .391 .003 C .41700004 .003 .46900005 .001 .503 0 L .503 .031000002 C .43600003 .031000002 .425 .031000002 .425 .076000008 L .425 .26000003 C .425 .36400003 .496 .42000003 .56 .42000003 C .623 .42000003 .634 .36600004 .634 .30900003 L .634 .076000008 C .634 .031000002 .623 .031000002 .556 .031000002 L .556 0 C .591 .001 .642 .003 .669 .003 C .69500008 .003 .74700006 .001 .781 0 L .781 .031000002 C .72900006 .031000002 .70400008 .031000002 .703 .061000006 L .703 .252 C .703 .33800004 .703 .36900003 .67200008 .40500004 C .65800008 .42200003 .625 .44200004 .56700006 .44200004 C .48300005 .44200004 .439 .38200004 .42200003 .344 C .40800003 .43100003 .33400003 .44200004 .289 .44200004 C .216 .44200004 .169 .39900003 .141 .337 L .141 .44200004 L 0 .43100003 L 0 .4 C .07000001 .4 .07800001 .393 .07800001 .344 Z "/>
</symbol>
<use xlink:href="#font_1_b" transform="matrix(9.9626,0,0,-9.9626,30.564942,81.017009)"/>
<use xlink:href="#font_1_14" transform="matrix(9.9626,0,0,-9.9626,34.20129,81.017009)"/>
<use xlink:href="#font_1_17" transform="matrix(9.9626,0,0,-9.9626,42.46029,82.94975)"/>
<use xlink:href="#font_1_18" transform="matrix(9.9626,0,0,-9.9626,47.999498,81.017009)"/>
<use xlink:href="#font_1_16" transform="matrix(9.9626,0,0,-9.9626,51.904836,81.126598)"/>
<use xlink:href="#font_1_1a" transform="matrix(9.9626,0,0,-9.9626,56.517518,81.126598)"/>
<use xlink:href="#font_1_10" transform="matrix(9.9626,0,0,-9.9626,61.58848,81.126598)"/>
<use xlink:href="#font_1_6" transform="matrix(9.9626,0,0,-9.9626,66.58971,81.017009)"/>
<use xlink:href="#font_2_2" transform="matrix(9.9626,0,0,-9.9626,73.20098,81.126598)"/>
<use xlink:href="#font_5_3" transform="matrix(6.9738,0,0,-6.9738,78.93876,82.58074)"/>
<symbol id="font_3_1">
<path d="M .39300005 .344 L .69900009 .344 C .7120001 .344 .73600009 .344 .73600009 .368 C .73600009 .393 .71300008 .393 .69900009 .393 L .39300005 .393 L .39300005 .70000007 C .39300005 .71300008 .39300005 .73700007 .36900003 .73700007 C .34400005 .73700007 .34400005 .71400007 .34400005 .70000007 L .34400005 .393 L .037000009 .393 C .024000004 .393 0 .393 0 .36900003 C 0 .344 .023000002 .344 .037000009 .344 L .34400005 .344 L .34400005 .037000009 C .34400005 .024000004 .34400005 0 .36800004 0 C .39300005 0 .39300005 .023000002 .39300005 .037000009 L .39300005 .344 Z "/>
</symbol>
<symbol id="font_3_3">
<path d="M .22600001 .63600006 C .22600001 .66300007 .224 .66400006 .19600001 .66400006 C .132 .601 .041 .6 0 .6 L 0 .564 C .023999997 .564 .09000001 .564 .14500001 .592 L .14500001 .082 C .14500001 .049000004 .14500001 .036000004 .04500001 .036000004 L .0069999995 .036000004 L .0069999995 0 C .024999999 .001 .148 .004 .185 .004 C .21600002 .004 .34200005 .001 .36400003 0 L .36400003 .036000004 L .32600004 .036000004 C .22600001 .036000004 .22600001 .049000004 .22600001 .082 L .22600001 .63600006 Z "/>
</symbol>
<use xlink:href="#font_3_1" transform="matrix(6.9738,0,0,-6.9738,84.02416,83.33391)"/>
<use xlink:href="#font_3_3" transform="matrix(6.9738,0,0,-6.9738,90.41216,82.511)"/>
<use xlink:href="#font_4_1" transform="matrix(9.9626,0,0,-9.9626,97.4469,81.126598)"/>
<symbol id="font_1_11">
<path d="M .19400002 .37800003 C .10700001 .37800003 .10700001 .47800005 .10700001 .50100007 C .10700001 .52800008 .10800001 .56 .12300001 .58500006 C .13100001 .59700009 .15400002 .62500008 .19400002 .62500008 C .28100003 .62500008 .28100003 .52500006 .28100003 .50200006 C .28100003 .47500003 .28000004 .44300003 .26500003 .41800005 C .25700004 .40600003 .23400003 .37800003 .19400002 .37800003 M .07800001 .33900003 C .07800001 .34300003 .07800001 .36600004 .095 .38600005 C .134 .35800005 .17500001 .35500003 .19400002 .35500003 C .28700004 .35500003 .356 .42400003 .356 .50100007 C .356 .53800007 .34000004 .57500007 .31500004 .59800007 C .351 .632 .38700003 .637 .40500004 .637 C .40700004 .637 .41200004 .637 .41500003 .63600006 C .404 .632 .39900003 .62100008 .39900003 .609 C .39900003 .592 .41200004 .58000007 .42800004 .58000007 C .43800003 .58000007 .45700003 .587 .45700003 .61 C .45700003 .62700006 .44500003 .65900006 .40600003 .65900006 C .38600005 .65900006 .342 .65300008 .3 .61200007 C .25800003 .64500007 .21600002 .64800009 .19400002 .64800009 C .10100001 .64800009 .032 .57900008 .032 .50200006 C .032 .458 .054 .42000003 .07900001 .39900003 C .066 .384 .048000006 .351 .048000006 .316 C .048000006 .28500004 .061 .24700001 .09200001 .22700002 C .032 .21000001 0 .16700001 0 .127 C 0 .055000009 .09900001 0 .22100002 0 C .33900003 0 .44300003 .051000015 .44300003 .12900001 C .44300003 .164 .42900003 .21500002 .37800003 .24300002 C .32500003 .27100004 .26700003 .27100004 .20600002 .27100004 C .18100001 .27100004 .13800001 .27100004 .13100001 .272 C .09900001 .27600003 .07800001 .307 .07800001 .33900003 M .222 .023000002 C .12100001 .023000002 .052000006 .074000019 .052000006 .127 C .052000006 .17300001 .09 .21000001 .134 .21300002 L .19300002 .21300002 C .279 .21300002 .39100004 .21300002 .39100004 .127 C .39100004 .073000017 .32000003 .023000002 .222 .023000002 Z "/>
</symbol>
<symbol id="font_1_1b">
<path d="M .275 .23500002 C .305 .273 .34300003 .32200004 .367 .34800003 C .39800004 .384 .43900005 .39900003 .48600004 .4 L .48600004 .43100003 C .46000005 .42900003 .43000005 .42800004 .404 .42800004 C .374 .42800004 .321 .43 .30800004 .43100003 L .30800004 .4 C .32900004 .39800004 .337 .38500003 .337 .36900003 C .337 .35300002 .32700003 .34 .32200004 .33400003 L .26000003 .256 L .18200001 .35700003 C .17300001 .367 .17300001 .36900003 .17300001 .37500004 C .17300001 .39000003 .18800001 .39900003 .20800002 .4 L .20800002 .43100003 C .18200001 .43 .116000007 .42800004 .1 .42800004 C .079 .42800004 .032000007 .42900003 .005000001 .43100003 L .005000001 .4 C .075 .4 .076000008 .39900003 .123 .33900003 L .22200002 .21000001 L .128 .091000009 C .080000009 .033 .021 .031000002 0 .031000002 L 0 0 C .026000003 .002 .057000005 .003 .083000008 .003 C .112 .003 .15400002 .001 .17800002 0 L .17800002 .031000002 C .15600002 .034 .14900002 .047000003 .14900002 .062000004 C .14900002 .08400001 .17800002 .117000009 .23900002 .18900001 L .31500004 .089 C .323 .078 .33600004 .062000004 .33600004 .056 C .33600004 .047000003 .32700003 .032 .3 .031000002 L .3 0 C .33 .001 .38600005 .003 .40800003 .003 C .43500004 .003 .47400005 .002 .504 0 L .504 .031000002 C .45000003 .031000002 .43200005 .033 .40900005 .062000004 L .275 .23500002 Z "/>
</symbol>
<use xlink:href="#font_1_e" transform="matrix(9.9626,0,0,-9.9626,110.037418,81.126598)"/>
<use xlink:href="#font_1_18" transform="matrix(9.9626,0,0,-9.9626,114.87924,81.017009)"/>
<use xlink:href="#font_1_11" transform="matrix(9.9626,0,0,-9.9626,118.784587,83.069309)"/>
<use xlink:href="#font_1_14" transform="matrix(9.9626,0,0,-9.9626,123.80573,81.017009)"/>
<use xlink:href="#font_1_e" transform="matrix(9.9626,0,0,-9.9626,132.20421,81.126598)"/>
<use xlink:href="#font_1_1b" transform="matrix(9.9626,0,0,-9.9626,136.88663,81.017009)"/>
<symbol id="font_5_2">
<path d="M .361 .39200003 C .34000004 .425 .306 .451 .25800003 .451 C .13000001 .451 0 .31 0 .16600001 C 0 .069000009 .065 0 .15100001 0 C .205 0 .25300003 .031000004 .29299999 .07 C .31200005 .010000001 .37 0 .39600004 0 C .43200005 0 .45700003 .022 .47500003 .053000004 C .49700005 .092 .51000007 .14900002 .51000007 .15300001 C .51000007 .16600001 .49700005 .16600001 .49400003 .16600001 C .48000003 .16600001 .47900004 .16200002 .47200007 .135 C .46000005 .087000008 .44100005 .028 .399 .028 C .37300004 .028 .366 .050000006 .366 .077 C .366 .094000007 .374 .13000001 .38100005 .15600002 C .388 .18300002 .398 .22400002 .403 .24600002 L .42300005 .322 C .42900003 .34800003 .44100005 .395 .44100005 .4 C .44100005 .42200003 .42300005 .432 .407 .432 C .39000006 .432 .36700005 .42000003 .361 .39200003 M .297 .135 C .29000003 .107 .268 .087000008 .246 .068 C .237 .060000004 .19700001 .028 .154 .028 C .117 .028 .081 .054000006 .081 .125 C .081 .17800002 .11 .28800003 .133 .328 C .179 .40800003 .23 .423 .25800003 .423 C .328 .423 .347 .347 .347 .336 C .347 .33200003 .34500004 .32500003 .34400005 .322 L .297 .135 Z "/>
</symbol>
<use xlink:href="#font_5_2" transform="matrix(6.9738,0,0,-6.9738,142.4504,83.52175)"/>
<use xlink:href="#font_2_3" transform="matrix(9.9626,0,0,-9.9626,148.91345,81.23618)"/>
<use xlink:href="#font_5_2" transform="matrix(6.9738,0,0,-6.9738,156.5714,77.47175)"/>
<use xlink:href="#font_1_3" transform="matrix(9.9626,0,0,-9.9626,163.7379,81.8439)"/>
<use xlink:href="#font_2_1" transform="matrix(9.9626,0,0,-9.9626,173.32231,83.158969)"/>
<use xlink:href="#font_2_4" transform="matrix(9.9626,0,0,-9.9626,179.10063,81.017009)"/>
<use xlink:href="#font_5_2" transform="matrix(6.9738,0,0,-6.9738,186.4854,77.47175)"/>
<use xlink:href="#font_2_5" transform="matrix(9.9626,0,0,-9.9626,191.4369,81.23618)"/>
<use xlink:href="#font_5_3" transform="matrix(6.9738,0,0,-6.9738,197.01877,82.58074)"/>
<use xlink:href="#font_2_6" transform="matrix(9.9626,0,0,-9.9626,30.574912,93.0816)"/>
<use xlink:href="#font_4_1" transform="matrix(9.9626,0,0,-9.9626,39.591905,93.0816)"/>
<use xlink:href="#font_2_6" transform="matrix(9.9626,0,0,-9.9626,52.05291,93.0816)"/>
<symbol id="font_1_5">
<path d="M .205 .64000007 C .205 .66400006 .205 .666 .18200003 .666 C .120000008 .60200008 .032000007 .60200008 0 .60200008 L 0 .57100006 C .020000004 .57100006 .07900001 .57100006 .13100001 .597 L .13100001 .079 C .13100001 .043 .128 .031000002 .038000004 .031000002 L .0060000049 .031000002 L .0060000049 0 C .04100001 .003 .128 .003 .168 .003 C .20800002 .003 .29500003 .003 .33000005 0 L .33000005 .031000002 L .29800005 .031000002 C .20800002 .031000002 .205 .042000005 .205 .079 L .205 .64000007 Z "/>
</symbol>
<use xlink:href="#font_1_3" transform="matrix(9.9626,0,0,-9.9626,60.515905,93.798908)"/>
<use xlink:href="#font_1_5" transform="matrix(9.9626,0,0,-9.9626,70.807277,92.97201)"/>
<symbol id="font_0_10">
<path d="M .393 .078 L .393 0 L .57 .006 L .57 .053000004 C .508 .053000004 .501 .053000004 .501 .092 L .501 .45600004 L .31800003 .44800005 L .31800003 .40100003 C .38 .40100003 .38700003 .40100003 .38700003 .36200003 L .38700003 .171 C .38700003 .089 .33600004 .036000004 .263 .036000004 C .186 .036000004 .18300002 .061000006 .18300002 .115 L .18300002 .45600004 L 0 .44800005 L 0 .40100003 C .062000008 .40100003 .069000009 .40100003 .069000009 .36200003 L .069000009 .12900001 C .069000009 .022 .15 0 .249 0 C .27500005 0 .347 0 .393 .078 Z "/>
</symbol>
<symbol id="font_0_b">
<path d="M .069000009 .356 L .069000009 .047000003 L 0 .047000003 L 0 0 C .028000005 .001 .088 .003 .126 .003 C .165 .003 .22400002 .001 .25200004 0 L .25200004 .047000003 L .18300002 .047000003 L .18300002 .256 C .18300002 .365 .269 .41400004 .33200003 .41400004 C .366 .41400004 .38700003 .393 .38700003 .317 L .38700003 .047000003 L .31800003 .047000003 L .31800003 0 C .34600003 .001 .40600003 .003 .444 .003 C .48299999 .003 .542 .001 .57 0 L .57 .047000003 L .501 .047000003 L .501 .30600003 C .501 .411 .44700004 .45000003 .347 .45000003 C .251 .45000003 .19800002 .393 .172 .342 L .172 .45000003 L 0 .44200004 L 0 .395 C .062000008 .395 .069000009 .395 .069000009 .356 Z "/>
</symbol>
<use xlink:href="#font_0_10" transform="matrix(9.9626,0,0,-9.9626,15.392313,103.22678)"/>
<use xlink:href="#font_0_b" transform="matrix(9.9626,0,0,-9.9626,21.758416,103.16701)"/>
<use xlink:href="#font_0_f" transform="matrix(9.9626,0,0,-9.9626,27.566613,103.22678)"/>
<use xlink:href="#font_0_8" transform="matrix(9.9626,0,0,-9.9626,32.278924,103.16701)"/>
<use xlink:href="#font_0_9" transform="matrix(9.9626,0,0,-9.9626,35.456995,103.16701)"/>
<use xlink:href="#font_2_2" transform="matrix(9.9626,0,0,-9.9626,41.765985,103.276599)"/>
<use xlink:href="#font_5_3" transform="matrix(6.9738,0,0,-6.9738,47.503767,104.73175)"/>
<use xlink:href="#font_3_1" transform="matrix(6.9738,0,0,-6.9738,52.58916,105.48492)"/>
<use xlink:href="#font_3_3" transform="matrix(6.9738,0,0,-6.9738,58.97716,104.66201)"/>
<use xlink:href="#font_1_8" transform="matrix(9.9626,0,0,-9.9626,66.0119,101.84198)"/>
<use xlink:href="#font_2_2" transform="matrix(9.9626,0,0,-9.9626,76.23898,103.276599)"/>
<use xlink:href="#font_5_3" transform="matrix(6.9738,0,0,-6.9738,81.97676,104.73175)"/>
<symbol id="font_1_7">
<path d="M .106 .57100006 C .106 .6 .08200001 .624 .05300001 .624 C .024000004 .624 0 .6 0 .57100006 C 0 .542 .024000004 .518 .05300001 .518 C .08200001 .518 .106 .542 .106 .57100006 M .087000008 .20400001 C .087000008 .176 .087000008 .098 .023000002 .023999989 C .016000003 .016000003 .016000003 .013999999 .016000003 .0109999929 C .016000003 .003999993 .021000006 0 .026 0 C .037 0 .109000008 .08 .109000008 .19600001 C .109000008 .22500001 .107 .29900003 .05300001 .29900003 C .018 .29900003 0 .272 0 .246 C 0 .22 .017000005 .193 .05300001 .193 C .058000007 .193 .06000001 .193 .060999998 .194 C .06800001 .19500001 .079 .197 .087000008 .20400001 Z "/>
</symbol>
<use xlink:href="#font_1_7" transform="matrix(9.9626,0,0,-9.9626,87.92877,105.08979)"/>
<use xlink:href="#font_0_e" transform="matrix(9.9626,0,0,-9.9626,15.312609,115.12201)"/>
<use xlink:href="#font_0_5" transform="matrix(9.9626,0,0,-9.9626,19.98507,115.181789)"/>
<use xlink:href="#font_0_f" transform="matrix(9.9626,0,0,-9.9626,25.12577,115.181789)"/>
<use xlink:href="#font_0_10" transform="matrix(9.9626,0,0,-9.9626,29.818156,115.181789)"/>
<use xlink:href="#font_0_e" transform="matrix(9.9626,0,0,-9.9626,36.104558,115.12201)"/>
<use xlink:href="#font_0_b" transform="matrix(9.9626,0,0,-9.9626,40.906534,115.12201)"/>
<use xlink:href="#font_2_2" transform="matrix(9.9626,0,0,-9.9626,50.406984,115.2316)"/>
<use xlink:href="#font_5_3" transform="matrix(6.9738,0,0,-6.9738,56.144765,116.686748)"/>
<path transform="matrix(1,0,0,-1,0,119.008)" stroke-width=".797" stroke-linecap="butt" stroke-miterlimit="10" stroke-linejoin="miter" fill="none" stroke="#000000" d="M 0 0 L 360 0 "/>
</g>
</svg>
